<mxfile host="app.diagrams.net" modified="2021-12-02T10:38:43.999Z" agent="5.0 (Windows NT 10.0; Win64; x64) AppleWebKit/537.36 (KHTML, like Gecko) Chrome/96.0.4664.45 Safari/537.36" etag="Q8-NTzLnvyvgd2MbUweg" version="15.8.7" type="github" pages="2">
  <diagram id="ECHlZJd9yOwyVjQOdr3G" name="Raw">
    <mxGraphModel dx="2522" dy="1651" grid="1" gridSize="10" guides="1" tooltips="1" connect="1" arrows="1" fold="1" page="1" pageScale="1" pageWidth="827" pageHeight="1169" math="0" shadow="0">
      <root>
        <mxCell id="0" />
        <mxCell id="1" parent="0" />
        <mxCell id="XXxo-U4MYCcqB2J5j0j6-159" value="" style="whiteSpace=wrap;html=1;aspect=fixed;fontSize=13;fillColor=#fff2cc;strokeColor=#FFFFFF;" parent="1" vertex="1">
          <mxGeometry x="507.5" y="232.5" width="185" height="185" as="geometry" />
        </mxCell>
        <mxCell id="XXxo-U4MYCcqB2J5j0j6-157" value="" style="ellipse;shape=cloud;whiteSpace=wrap;html=1;fontSize=13;fillColor=#d5e8d4;strokeColor=#82b366;" parent="1" vertex="1">
          <mxGeometry x="1010" y="-200" width="310" height="200" as="geometry" />
        </mxCell>
        <mxCell id="02Wh0ydd3BotBdVYYqZC-41" value="" style="rounded=0;whiteSpace=wrap;html=1;fontSize=14;dashed=1;fillColor=#ffe6cc;strokeColor=#FFFFFF;" parent="1" vertex="1">
          <mxGeometry x="105" y="530" width="350" height="380" as="geometry" />
        </mxCell>
        <mxCell id="XXxo-U4MYCcqB2J5j0j6-185" style="edgeStyle=orthogonalEdgeStyle;rounded=0;orthogonalLoop=1;jettySize=auto;html=1;entryX=0;entryY=0.5;entryDx=0;entryDy=0;dashed=1;fontSize=15;" parent="1" source="02Wh0ydd3BotBdVYYqZC-1" target="XXxo-U4MYCcqB2J5j0j6-52" edge="1">
          <mxGeometry relative="1" as="geometry" />
        </mxCell>
        <mxCell id="pakWP-vBIHIwawOGiF0U-11" style="edgeStyle=orthogonalEdgeStyle;rounded=0;orthogonalLoop=1;jettySize=auto;html=1;entryX=0;entryY=0.75;entryDx=0;entryDy=0;" parent="1" source="02Wh0ydd3BotBdVYYqZC-1" target="pakWP-vBIHIwawOGiF0U-3" edge="1">
          <mxGeometry relative="1" as="geometry" />
        </mxCell>
        <mxCell id="pakWP-vBIHIwawOGiF0U-12" style="edgeStyle=orthogonalEdgeStyle;rounded=0;orthogonalLoop=1;jettySize=auto;html=1;entryX=1;entryY=0.5;entryDx=0;entryDy=0;" parent="1" source="02Wh0ydd3BotBdVYYqZC-1" target="Ad5oymGmrPjmeHMKjceV-26" edge="1">
          <mxGeometry relative="1" as="geometry" />
        </mxCell>
        <mxCell id="02Wh0ydd3BotBdVYYqZC-1" value="&lt;font style=&quot;font-size: 14px&quot;&gt;Network&lt;br&gt;Components&lt;/font&gt;" style="whiteSpace=wrap;html=1;aspect=fixed;fillColor=#d5e8d4;strokeColor=#82b366;" parent="1" vertex="1">
          <mxGeometry x="97.5" y="380" width="92.5" height="92.5" as="geometry" />
        </mxCell>
        <mxCell id="02Wh0ydd3BotBdVYYqZC-24" style="edgeStyle=orthogonalEdgeStyle;rounded=0;orthogonalLoop=1;jettySize=auto;html=1;exitX=1;exitY=0.5;exitDx=0;exitDy=0;entryX=0;entryY=0.5;entryDx=0;entryDy=0;" parent="1" source="02Wh0ydd3BotBdVYYqZC-3" target="02Wh0ydd3BotBdVYYqZC-6" edge="1">
          <mxGeometry relative="1" as="geometry" />
        </mxCell>
        <mxCell id="02Wh0ydd3BotBdVYYqZC-3" value="&lt;font style=&quot;font-size: 14px&quot;&gt;Chassis&lt;/font&gt;" style="whiteSpace=wrap;html=1;aspect=fixed;" parent="1" vertex="1">
          <mxGeometry x="320" y="200" width="80" height="80" as="geometry" />
        </mxCell>
        <mxCell id="02Wh0ydd3BotBdVYYqZC-17" value="" style="edgeStyle=orthogonalEdgeStyle;rounded=0;orthogonalLoop=1;jettySize=auto;html=1;" parent="1" source="02Wh0ydd3BotBdVYYqZC-4" target="02Wh0ydd3BotBdVYYqZC-5" edge="1">
          <mxGeometry relative="1" as="geometry" />
        </mxCell>
        <mxCell id="02Wh0ydd3BotBdVYYqZC-4" value="&lt;font style=&quot;font-size: 14px&quot;&gt;Vcenter&lt;/font&gt;" style="rounded=1;whiteSpace=wrap;html=1;" parent="1" vertex="1">
          <mxGeometry x="540" y="30" width="120" height="60" as="geometry" />
        </mxCell>
        <mxCell id="02Wh0ydd3BotBdVYYqZC-18" value="" style="edgeStyle=orthogonalEdgeStyle;rounded=0;orthogonalLoop=1;jettySize=auto;html=1;" parent="1" source="02Wh0ydd3BotBdVYYqZC-5" target="02Wh0ydd3BotBdVYYqZC-6" edge="1">
          <mxGeometry relative="1" as="geometry" />
        </mxCell>
        <mxCell id="02Wh0ydd3BotBdVYYqZC-5" value="&lt;font style=&quot;font-size: 14px&quot;&gt;cluster&lt;/font&gt;" style="rounded=0;whiteSpace=wrap;html=1;" parent="1" vertex="1">
          <mxGeometry x="540" y="150" width="120" height="60" as="geometry" />
        </mxCell>
        <mxCell id="02Wh0ydd3BotBdVYYqZC-19" value="" style="edgeStyle=orthogonalEdgeStyle;rounded=0;orthogonalLoop=1;jettySize=auto;html=1;" parent="1" source="02Wh0ydd3BotBdVYYqZC-6" target="02Wh0ydd3BotBdVYYqZC-7" edge="1">
          <mxGeometry relative="1" as="geometry" />
        </mxCell>
        <mxCell id="02Wh0ydd3BotBdVYYqZC-6" value="&lt;font style=&quot;font-size: 14px&quot;&gt;ESXi Hosts&lt;/font&gt;" style="rounded=0;whiteSpace=wrap;html=1;" parent="1" vertex="1">
          <mxGeometry x="540" y="280" width="120" height="60" as="geometry" />
        </mxCell>
        <mxCell id="02Wh0ydd3BotBdVYYqZC-21" style="edgeStyle=orthogonalEdgeStyle;rounded=0;orthogonalLoop=1;jettySize=auto;html=1;exitX=0.5;exitY=1;exitDx=0;exitDy=0;entryX=0.5;entryY=0;entryDx=0;entryDy=0;startArrow=none;" parent="1" source="pakWP-vBIHIwawOGiF0U-7" target="02Wh0ydd3BotBdVYYqZC-14" edge="1">
          <mxGeometry relative="1" as="geometry">
            <Array as="points">
              <mxPoint x="600" y="590" />
              <mxPoint x="750" y="590" />
            </Array>
          </mxGeometry>
        </mxCell>
        <mxCell id="02Wh0ydd3BotBdVYYqZC-7" value="&lt;font style=&quot;font-size: 14px&quot;&gt;Datastore&lt;/font&gt;" style="rounded=0;whiteSpace=wrap;html=1;" parent="1" vertex="1">
          <mxGeometry x="540" y="430" width="120" height="60" as="geometry" />
        </mxCell>
        <mxCell id="XXxo-U4MYCcqB2J5j0j6-170" style="edgeStyle=orthogonalEdgeStyle;rounded=0;orthogonalLoop=1;jettySize=auto;html=1;fontSize=13;entryX=1;entryY=0;entryDx=0;entryDy=0;" parent="1" source="02Wh0ydd3BotBdVYYqZC-8" target="02Wh0ydd3BotBdVYYqZC-6" edge="1">
          <mxGeometry relative="1" as="geometry">
            <mxPoint x="815" y="280" as="targetPoint" />
            <Array as="points">
              <mxPoint x="820" y="280" />
            </Array>
          </mxGeometry>
        </mxCell>
        <mxCell id="02Wh0ydd3BotBdVYYqZC-8" value="&lt;font style=&quot;font-size: 14px&quot;&gt;Std Switch&lt;/font&gt;" style="rounded=0;whiteSpace=wrap;html=1;" parent="1" vertex="1">
          <mxGeometry x="780" y="175" width="60" height="50" as="geometry" />
        </mxCell>
        <mxCell id="02Wh0ydd3BotBdVYYqZC-27" style="edgeStyle=orthogonalEdgeStyle;rounded=0;orthogonalLoop=1;jettySize=auto;html=1;exitX=1;exitY=0.5;exitDx=0;exitDy=0;entryX=0;entryY=0.5;entryDx=0;entryDy=0;" parent="1" source="02Wh0ydd3BotBdVYYqZC-9" target="02Wh0ydd3BotBdVYYqZC-10" edge="1">
          <mxGeometry relative="1" as="geometry" />
        </mxCell>
        <mxCell id="02Wh0ydd3BotBdVYYqZC-29" style="edgeStyle=orthogonalEdgeStyle;rounded=0;orthogonalLoop=1;jettySize=auto;html=1;exitX=0.5;exitY=1;exitDx=0;exitDy=0;" parent="1" source="02Wh0ydd3BotBdVYYqZC-9" target="02Wh0ydd3BotBdVYYqZC-12" edge="1">
          <mxGeometry relative="1" as="geometry" />
        </mxCell>
        <mxCell id="XXxo-U4MYCcqB2J5j0j6-101" style="edgeStyle=orthogonalEdgeStyle;rounded=0;orthogonalLoop=1;jettySize=auto;html=1;entryX=1.008;entryY=0.367;entryDx=0;entryDy=0;entryPerimeter=0;fontSize=14;exitX=0.5;exitY=0;exitDx=0;exitDy=0;" parent="1" source="02Wh0ydd3BotBdVYYqZC-9" target="02Wh0ydd3BotBdVYYqZC-4" edge="1">
          <mxGeometry relative="1" as="geometry" />
        </mxCell>
        <mxCell id="02Wh0ydd3BotBdVYYqZC-9" value="&lt;font style=&quot;font-size: 14px&quot;&gt;Replication Appliance DC&lt;/font&gt;" style="shape=parallelogram;perimeter=parallelogramPerimeter;whiteSpace=wrap;html=1;fixedSize=1;" parent="1" vertex="1">
          <mxGeometry x="869" y="88.75" width="190" height="75" as="geometry" />
        </mxCell>
        <mxCell id="02Wh0ydd3BotBdVYYqZC-10" value="" style="shape=parallelogram;perimeter=parallelogramPerimeter;whiteSpace=wrap;html=1;fixedSize=1;" parent="1" vertex="1">
          <mxGeometry x="1430" y="98.75" width="200" height="55" as="geometry" />
        </mxCell>
        <mxCell id="XXxo-U4MYCcqB2J5j0j6-122" style="edgeStyle=orthogonalEdgeStyle;rounded=0;orthogonalLoop=1;jettySize=auto;html=1;fontSize=13;" parent="1" source="02Wh0ydd3BotBdVYYqZC-11" edge="1">
          <mxGeometry relative="1" as="geometry">
            <mxPoint x="1140" y="120" as="targetPoint" />
          </mxGeometry>
        </mxCell>
        <mxCell id="02Wh0ydd3BotBdVYYqZC-11" value="&lt;font style=&quot;font-size: 14px&quot;&gt;P2P Link/GDE&lt;/font&gt;" style="whiteSpace=wrap;html=1;aspect=fixed;" parent="1" vertex="1">
          <mxGeometry x="1100" y="-140" width="80" height="80" as="geometry" />
        </mxCell>
        <mxCell id="XXxo-U4MYCcqB2J5j0j6-133" value="" style="edgeStyle=orthogonalEdgeStyle;rounded=0;orthogonalLoop=1;jettySize=auto;html=1;fontSize=13;" parent="1" source="02Wh0ydd3BotBdVYYqZC-12" target="XXxo-U4MYCcqB2J5j0j6-132" edge="1">
          <mxGeometry relative="1" as="geometry" />
        </mxCell>
        <mxCell id="XXxo-U4MYCcqB2J5j0j6-163" style="edgeStyle=orthogonalEdgeStyle;rounded=0;orthogonalLoop=1;jettySize=auto;html=1;entryX=1;entryY=0.5;entryDx=0;entryDy=0;fontSize=13;" parent="1" source="02Wh0ydd3BotBdVYYqZC-12" target="02Wh0ydd3BotBdVYYqZC-6" edge="1">
          <mxGeometry relative="1" as="geometry" />
        </mxCell>
        <mxCell id="02Wh0ydd3BotBdVYYqZC-12" value="&lt;font style=&quot;font-size: 14px&quot;&gt;zerto VRA m/c&lt;/font&gt;" style="rounded=0;whiteSpace=wrap;html=1;" parent="1" vertex="1">
          <mxGeometry x="905" y="295" width="120" height="30" as="geometry" />
        </mxCell>
        <mxCell id="02Wh0ydd3BotBdVYYqZC-20" style="edgeStyle=orthogonalEdgeStyle;rounded=0;orthogonalLoop=1;jettySize=auto;html=1;exitX=0.5;exitY=0;exitDx=0;exitDy=0;exitPerimeter=0;entryX=0.5;entryY=1;entryDx=0;entryDy=0;startArrow=none;" parent="1" source="pakWP-vBIHIwawOGiF0U-7" target="02Wh0ydd3BotBdVYYqZC-7" edge="1">
          <mxGeometry relative="1" as="geometry" />
        </mxCell>
        <mxCell id="02Wh0ydd3BotBdVYYqZC-13" value="&lt;font style=&quot;font-size: 14px&quot;&gt;DB&lt;/font&gt;" style="shape=cylinder3;whiteSpace=wrap;html=1;boundedLbl=1;backgroundOutline=1;size=15;" parent="1" vertex="1">
          <mxGeometry x="490" y="610" width="60" height="80" as="geometry" />
        </mxCell>
        <mxCell id="02Wh0ydd3BotBdVYYqZC-14" value="&lt;font style=&quot;font-size: 14px&quot;&gt;Middleware/App&lt;/font&gt;" style="shape=process;whiteSpace=wrap;html=1;backgroundOutline=1;" parent="1" vertex="1">
          <mxGeometry x="660" y="610" width="180" height="60" as="geometry" />
        </mxCell>
        <mxCell id="02Wh0ydd3BotBdVYYqZC-38" style="edgeStyle=orthogonalEdgeStyle;rounded=0;orthogonalLoop=1;jettySize=auto;html=1;entryX=0.5;entryY=1;entryDx=0;entryDy=0;startArrow=none;" parent="1" source="pakWP-vBIHIwawOGiF0U-1" target="02Wh0ydd3BotBdVYYqZC-37" edge="1">
          <mxGeometry relative="1" as="geometry" />
        </mxCell>
        <mxCell id="02Wh0ydd3BotBdVYYqZC-34" value="&lt;font style=&quot;font-size: 14px&quot;&gt;User&lt;/font&gt;" style="shape=umlActor;verticalLabelPosition=bottom;verticalAlign=top;html=1;outlineConnect=0;" parent="1" vertex="1">
          <mxGeometry x="185" y="800" width="70" height="100" as="geometry" />
        </mxCell>
        <mxCell id="XXxo-U4MYCcqB2J5j0j6-77" style="edgeStyle=orthogonalEdgeStyle;rounded=0;orthogonalLoop=1;jettySize=auto;html=1;entryX=0;entryY=0.5;entryDx=0;entryDy=0;fontSize=14;exitX=0.5;exitY=0;exitDx=0;exitDy=0;" parent="1" source="02Wh0ydd3BotBdVYYqZC-37" target="02Wh0ydd3BotBdVYYqZC-7" edge="1">
          <mxGeometry relative="1" as="geometry" />
        </mxCell>
        <mxCell id="02Wh0ydd3BotBdVYYqZC-37" value="&lt;font style=&quot;font-size: 21px&quot;&gt;IPC console/Catalyst&lt;/font&gt;" style="shape=process;whiteSpace=wrap;html=1;backgroundOutline=1;" parent="1" vertex="1">
          <mxGeometry x="170.5" y="570" width="139.5" height="110" as="geometry" />
        </mxCell>
        <mxCell id="XXxo-U4MYCcqB2J5j0j6-12" style="edgeStyle=orthogonalEdgeStyle;rounded=0;orthogonalLoop=1;jettySize=auto;html=1;entryX=0.5;entryY=0;entryDx=0;entryDy=0;dashed=1;" parent="1" source="XXxo-U4MYCcqB2J5j0j6-2" target="XXxo-U4MYCcqB2J5j0j6-4" edge="1">
          <mxGeometry relative="1" as="geometry" />
        </mxCell>
        <mxCell id="XXxo-U4MYCcqB2J5j0j6-2" value="One" style="text;html=1;strokeColor=none;fillColor=none;align=center;verticalAlign=middle;whiteSpace=wrap;rounded=0;" parent="1" vertex="1">
          <mxGeometry x="550" y="90" width="60" height="15" as="geometry" />
        </mxCell>
        <mxCell id="XXxo-U4MYCcqB2J5j0j6-4" value="Many" style="text;html=1;strokeColor=none;fillColor=none;align=center;verticalAlign=middle;whiteSpace=wrap;rounded=0;" parent="1" vertex="1">
          <mxGeometry x="550" y="130" width="60" height="20" as="geometry" />
        </mxCell>
        <mxCell id="XXxo-U4MYCcqB2J5j0j6-5" value="Many" style="text;html=1;strokeColor=none;fillColor=none;align=center;verticalAlign=middle;whiteSpace=wrap;rounded=0;" parent="1" vertex="1">
          <mxGeometry x="550" y="265" width="60" height="10" as="geometry" />
        </mxCell>
        <mxCell id="XXxo-U4MYCcqB2J5j0j6-20" value="" style="edgeStyle=orthogonalEdgeStyle;rounded=0;orthogonalLoop=1;jettySize=auto;html=1;dashed=1;" parent="1" source="XXxo-U4MYCcqB2J5j0j6-6" target="XXxo-U4MYCcqB2J5j0j6-5" edge="1">
          <mxGeometry relative="1" as="geometry" />
        </mxCell>
        <mxCell id="XXxo-U4MYCcqB2J5j0j6-6" value="One" style="text;html=1;strokeColor=none;fillColor=none;align=center;verticalAlign=middle;whiteSpace=wrap;rounded=0;" parent="1" vertex="1">
          <mxGeometry x="550" y="210" width="60" height="20" as="geometry" />
        </mxCell>
        <mxCell id="XXxo-U4MYCcqB2J5j0j6-19" style="edgeStyle=orthogonalEdgeStyle;rounded=0;orthogonalLoop=1;jettySize=auto;html=1;entryX=0.5;entryY=1;entryDx=0;entryDy=0;dashed=1;" parent="1" source="XXxo-U4MYCcqB2J5j0j6-13" target="XXxo-U4MYCcqB2J5j0j6-14" edge="1">
          <mxGeometry relative="1" as="geometry" />
        </mxCell>
        <mxCell id="XXxo-U4MYCcqB2J5j0j6-13" value="One" style="text;html=1;strokeColor=none;fillColor=none;align=center;verticalAlign=middle;whiteSpace=wrap;rounded=0;" parent="1" vertex="1">
          <mxGeometry x="590" y="132.5" width="60" height="15" as="geometry" />
        </mxCell>
        <mxCell id="XXxo-U4MYCcqB2J5j0j6-14" value="One" style="text;html=1;strokeColor=none;fillColor=none;align=center;verticalAlign=middle;whiteSpace=wrap;rounded=0;" parent="1" vertex="1">
          <mxGeometry x="590" y="88.75" width="60" height="17.5" as="geometry" />
        </mxCell>
        <mxCell id="XXxo-U4MYCcqB2J5j0j6-23" style="edgeStyle=orthogonalEdgeStyle;rounded=0;orthogonalLoop=1;jettySize=auto;html=1;entryX=0.5;entryY=1;entryDx=0;entryDy=0;dashed=1;" parent="1" target="XXxo-U4MYCcqB2J5j0j6-22" edge="1">
          <mxGeometry relative="1" as="geometry">
            <mxPoint x="620" y="260" as="sourcePoint" />
          </mxGeometry>
        </mxCell>
        <mxCell id="XXxo-U4MYCcqB2J5j0j6-21" value="One" style="text;html=1;strokeColor=none;fillColor=none;align=center;verticalAlign=middle;whiteSpace=wrap;rounded=0;" parent="1" vertex="1">
          <mxGeometry x="590" y="260" width="60" height="20" as="geometry" />
        </mxCell>
        <mxCell id="XXxo-U4MYCcqB2J5j0j6-22" value="One" style="text;html=1;strokeColor=none;fillColor=none;align=center;verticalAlign=middle;whiteSpace=wrap;rounded=0;" parent="1" vertex="1">
          <mxGeometry x="590" y="210" width="60" height="20" as="geometry" />
        </mxCell>
        <mxCell id="XXxo-U4MYCcqB2J5j0j6-25" value="" style="endArrow=classic;html=1;rounded=0;exitX=1.008;exitY=0.429;exitDx=0;exitDy=0;exitPerimeter=0;entryX=1;entryY=0.5;entryDx=0;entryDy=0;" parent="1" source="02Wh0ydd3BotBdVYYqZC-5" target="pakWP-vBIHIwawOGiF0U-7" edge="1">
          <mxGeometry width="50" height="50" relative="1" as="geometry">
            <mxPoint x="680" y="310" as="sourcePoint" />
            <mxPoint x="730" y="260" as="targetPoint" />
            <Array as="points">
              <mxPoint x="790" y="290" />
            </Array>
          </mxGeometry>
        </mxCell>
        <mxCell id="XXxo-U4MYCcqB2J5j0j6-28" style="edgeStyle=orthogonalEdgeStyle;rounded=0;orthogonalLoop=1;jettySize=auto;html=1;entryX=0.5;entryY=0;entryDx=0;entryDy=0;dashed=1;" parent="1" source="XXxo-U4MYCcqB2J5j0j6-26" target="XXxo-U4MYCcqB2J5j0j6-27" edge="1">
          <mxGeometry relative="1" as="geometry" />
        </mxCell>
        <mxCell id="XXxo-U4MYCcqB2J5j0j6-26" value="One" style="text;html=1;strokeColor=none;fillColor=none;align=center;verticalAlign=middle;whiteSpace=wrap;rounded=0;" parent="1" vertex="1">
          <mxGeometry x="650" y="200" width="60" height="20" as="geometry" />
        </mxCell>
        <mxCell id="XXxo-U4MYCcqB2J5j0j6-27" value="Many" style="text;html=1;strokeColor=none;fillColor=none;align=center;verticalAlign=middle;whiteSpace=wrap;rounded=0;" parent="1" vertex="1">
          <mxGeometry x="650" y="380" width="60" height="20" as="geometry" />
        </mxCell>
        <mxCell id="XXxo-U4MYCcqB2J5j0j6-32" style="edgeStyle=orthogonalEdgeStyle;rounded=0;orthogonalLoop=1;jettySize=auto;html=1;entryX=0.5;entryY=1;entryDx=0;entryDy=0;dashed=1;" parent="1" source="XXxo-U4MYCcqB2J5j0j6-30" target="XXxo-U4MYCcqB2J5j0j6-31" edge="1">
          <mxGeometry relative="1" as="geometry" />
        </mxCell>
        <mxCell id="XXxo-U4MYCcqB2J5j0j6-30" value="One" style="text;html=1;strokeColor=none;fillColor=none;align=center;verticalAlign=middle;whiteSpace=wrap;rounded=0;" parent="1" vertex="1">
          <mxGeometry x="690" y="340" width="60" height="20" as="geometry" />
        </mxCell>
        <mxCell id="XXxo-U4MYCcqB2J5j0j6-31" value="Many" style="text;html=1;strokeColor=none;fillColor=none;align=center;verticalAlign=middle;whiteSpace=wrap;rounded=0;" parent="1" vertex="1">
          <mxGeometry x="690" y="240" width="60" height="20" as="geometry" />
        </mxCell>
        <mxCell id="XXxo-U4MYCcqB2J5j0j6-35" value="" style="edgeStyle=orthogonalEdgeStyle;rounded=0;orthogonalLoop=1;jettySize=auto;html=1;dashed=1;" parent="1" source="XXxo-U4MYCcqB2J5j0j6-33" target="XXxo-U4MYCcqB2J5j0j6-34" edge="1">
          <mxGeometry relative="1" as="geometry" />
        </mxCell>
        <mxCell id="XXxo-U4MYCcqB2J5j0j6-33" value="One" style="text;html=1;strokeColor=none;fillColor=none;align=center;verticalAlign=middle;whiteSpace=wrap;rounded=0;" parent="1" vertex="1">
          <mxGeometry x="550" y="340" width="60" height="20" as="geometry" />
        </mxCell>
        <mxCell id="XXxo-U4MYCcqB2J5j0j6-34" value="Many" style="text;html=1;strokeColor=none;fillColor=none;align=center;verticalAlign=middle;whiteSpace=wrap;rounded=0;" parent="1" vertex="1">
          <mxGeometry x="550" y="400" width="60" height="20" as="geometry" />
        </mxCell>
        <mxCell id="XXxo-U4MYCcqB2J5j0j6-36" value="Many" style="text;html=1;strokeColor=none;fillColor=none;align=center;verticalAlign=middle;whiteSpace=wrap;rounded=0;" parent="1" vertex="1">
          <mxGeometry x="590" y="340" width="60" height="20" as="geometry" />
        </mxCell>
        <mxCell id="XXxo-U4MYCcqB2J5j0j6-38" value="" style="edgeStyle=orthogonalEdgeStyle;rounded=0;orthogonalLoop=1;jettySize=auto;html=1;dashed=1;" parent="1" source="XXxo-U4MYCcqB2J5j0j6-37" target="XXxo-U4MYCcqB2J5j0j6-36" edge="1">
          <mxGeometry relative="1" as="geometry" />
        </mxCell>
        <mxCell id="XXxo-U4MYCcqB2J5j0j6-37" value="One" style="text;html=1;strokeColor=none;fillColor=none;align=center;verticalAlign=middle;whiteSpace=wrap;rounded=0;" parent="1" vertex="1">
          <mxGeometry x="590" y="410" width="60" height="20" as="geometry" />
        </mxCell>
        <mxCell id="XXxo-U4MYCcqB2J5j0j6-40" value="One" style="text;html=1;strokeColor=none;fillColor=none;align=center;verticalAlign=middle;whiteSpace=wrap;rounded=0;" parent="1" vertex="1">
          <mxGeometry x="400" y="210" width="30" height="20" as="geometry" />
        </mxCell>
        <mxCell id="XXxo-U4MYCcqB2J5j0j6-46" style="edgeStyle=orthogonalEdgeStyle;rounded=0;orthogonalLoop=1;jettySize=auto;html=1;dashed=1;entryX=1;entryY=0.25;entryDx=0;entryDy=0;" parent="1" source="XXxo-U4MYCcqB2J5j0j6-41" target="XXxo-U4MYCcqB2J5j0j6-40" edge="1">
          <mxGeometry relative="1" as="geometry">
            <mxPoint x="520" y="170" as="targetPoint" />
            <Array as="points">
              <mxPoint x="520" y="215" />
            </Array>
          </mxGeometry>
        </mxCell>
        <mxCell id="XXxo-U4MYCcqB2J5j0j6-41" value="One" style="text;html=1;strokeColor=none;fillColor=none;align=center;verticalAlign=middle;whiteSpace=wrap;rounded=0;" parent="1" vertex="1">
          <mxGeometry x="490" y="290" width="60" height="20" as="geometry" />
        </mxCell>
        <mxCell id="XXxo-U4MYCcqB2J5j0j6-49" style="edgeStyle=orthogonalEdgeStyle;rounded=0;orthogonalLoop=1;jettySize=auto;html=1;entryX=0;entryY=0.5;entryDx=0;entryDy=0;dashed=1;" parent="1" source="XXxo-U4MYCcqB2J5j0j6-47" target="XXxo-U4MYCcqB2J5j0j6-48" edge="1">
          <mxGeometry relative="1" as="geometry" />
        </mxCell>
        <mxCell id="XXxo-U4MYCcqB2J5j0j6-47" value="One" style="text;html=1;strokeColor=none;fillColor=none;align=center;verticalAlign=middle;whiteSpace=wrap;rounded=0;" parent="1" vertex="1">
          <mxGeometry x="399" y="240" width="30" height="20" as="geometry" />
        </mxCell>
        <mxCell id="XXxo-U4MYCcqB2J5j0j6-48" value="Many" style="text;html=1;strokeColor=none;fillColor=none;align=center;verticalAlign=middle;whiteSpace=wrap;rounded=0;" parent="1" vertex="1">
          <mxGeometry x="490" y="310" width="60" height="20" as="geometry" />
        </mxCell>
        <mxCell id="XXxo-U4MYCcqB2J5j0j6-54" style="edgeStyle=orthogonalEdgeStyle;rounded=0;orthogonalLoop=1;jettySize=auto;html=1;entryX=0;entryY=0.5;entryDx=0;entryDy=0;" parent="1" source="XXxo-U4MYCcqB2J5j0j6-52" target="02Wh0ydd3BotBdVYYqZC-3" edge="1">
          <mxGeometry relative="1" as="geometry" />
        </mxCell>
        <mxCell id="XXxo-U4MYCcqB2J5j0j6-58" style="edgeStyle=orthogonalEdgeStyle;rounded=0;orthogonalLoop=1;jettySize=auto;html=1;fontSize=14;entryX=0;entryY=1;entryDx=0;entryDy=0;" parent="1" source="XXxo-U4MYCcqB2J5j0j6-52" target="02Wh0ydd3BotBdVYYqZC-6" edge="1">
          <mxGeometry relative="1" as="geometry">
            <mxPoint x="530" y="340" as="targetPoint" />
            <Array as="points">
              <mxPoint x="200" y="340" />
            </Array>
          </mxGeometry>
        </mxCell>
        <mxCell id="XXxo-U4MYCcqB2J5j0j6-52" value="If chassis" style="rhombus;whiteSpace=wrap;html=1;" parent="1" vertex="1">
          <mxGeometry x="130" y="215" width="140" height="50" as="geometry" />
        </mxCell>
        <mxCell id="XXxo-U4MYCcqB2J5j0j6-56" value="&lt;font style=&quot;font-size: 14px&quot;&gt;Yes&lt;/font&gt;" style="text;html=1;strokeColor=none;fillColor=none;align=center;verticalAlign=middle;whiteSpace=wrap;rounded=0;" parent="1" vertex="1">
          <mxGeometry x="250" y="215" width="60" height="25" as="geometry" />
        </mxCell>
        <mxCell id="XXxo-U4MYCcqB2J5j0j6-59" value="&lt;font style=&quot;font-size: 14px&quot;&gt;No&lt;/font&gt;" style="text;html=1;strokeColor=none;fillColor=none;align=center;verticalAlign=middle;whiteSpace=wrap;rounded=0;" parent="1" vertex="1">
          <mxGeometry x="190" y="265" width="60" height="25" as="geometry" />
        </mxCell>
        <mxCell id="XXxo-U4MYCcqB2J5j0j6-73" style="edgeStyle=orthogonalEdgeStyle;rounded=0;orthogonalLoop=1;jettySize=auto;html=1;entryX=1;entryY=0.5;entryDx=0;entryDy=0;dashed=1;fontSize=14;" parent="1" edge="1">
          <mxGeometry relative="1" as="geometry">
            <mxPoint x="400" y="325" as="sourcePoint" />
          </mxGeometry>
        </mxCell>
        <mxCell id="XXxo-U4MYCcqB2J5j0j6-76" style="edgeStyle=orthogonalEdgeStyle;rounded=0;orthogonalLoop=1;jettySize=auto;html=1;dashed=1;fontSize=14;" parent="1" edge="1">
          <mxGeometry relative="1" as="geometry">
            <mxPoint x="250" y="355" as="sourcePoint" />
          </mxGeometry>
        </mxCell>
        <mxCell id="XXxo-U4MYCcqB2J5j0j6-80" value="Many" style="text;html=1;strokeColor=none;fillColor=none;align=center;verticalAlign=middle;whiteSpace=wrap;rounded=0;fontSize=14;" parent="1" vertex="1">
          <mxGeometry x="730" y="189.38" width="50" height="21.25" as="geometry" />
        </mxCell>
        <mxCell id="XXxo-U4MYCcqB2J5j0j6-82" value="One" style="text;html=1;align=center;verticalAlign=middle;whiteSpace=wrap;rounded=0;fontSize=14;" parent="1" vertex="1">
          <mxGeometry x="740" y="153.75" width="40" height="11.25" as="geometry" />
        </mxCell>
        <mxCell id="XXxo-U4MYCcqB2J5j0j6-83" value="One" style="text;html=1;align=center;verticalAlign=middle;whiteSpace=wrap;rounded=0;fontSize=14;" parent="1" vertex="1">
          <mxGeometry x="680" y="98.75" width="40" height="21.25" as="geometry" />
        </mxCell>
        <mxCell id="XXxo-U4MYCcqB2J5j0j6-86" value="" style="endArrow=classic;html=1;rounded=0;fontSize=14;exitX=0.966;exitY=0.973;exitDx=0;exitDy=0;entryX=0;entryY=0.5;entryDx=0;entryDy=0;exitPerimeter=0;" parent="1" source="02Wh0ydd3BotBdVYYqZC-4" target="02Wh0ydd3BotBdVYYqZC-8" edge="1">
          <mxGeometry width="50" height="50" relative="1" as="geometry">
            <mxPoint x="710" y="270" as="sourcePoint" />
            <mxPoint x="760" y="220" as="targetPoint" />
          </mxGeometry>
        </mxCell>
        <mxCell id="XXxo-U4MYCcqB2J5j0j6-87" value="One" style="text;html=1;strokeColor=none;fillColor=none;align=center;verticalAlign=middle;whiteSpace=wrap;rounded=0;fontSize=14;" parent="1" vertex="1">
          <mxGeometry x="640" y="105" width="50" height="21.25" as="geometry" />
        </mxCell>
        <mxCell id="XXxo-U4MYCcqB2J5j0j6-95" value="" style="endArrow=classic;html=1;rounded=0;dashed=1;fontSize=14;entryX=0.25;entryY=0;entryDx=0;entryDy=0;" parent="1" source="XXxo-U4MYCcqB2J5j0j6-87" target="XXxo-U4MYCcqB2J5j0j6-80" edge="1">
          <mxGeometry width="50" height="50" relative="1" as="geometry">
            <mxPoint x="690" y="270" as="sourcePoint" />
            <mxPoint x="740" y="220" as="targetPoint" />
          </mxGeometry>
        </mxCell>
        <mxCell id="XXxo-U4MYCcqB2J5j0j6-98" value="" style="endArrow=classic;html=1;rounded=0;dashed=1;fontSize=14;entryX=0.75;entryY=1;entryDx=0;entryDy=0;exitX=0.112;exitY=-0.044;exitDx=0;exitDy=0;exitPerimeter=0;" parent="1" source="XXxo-U4MYCcqB2J5j0j6-82" target="XXxo-U4MYCcqB2J5j0j6-83" edge="1">
          <mxGeometry width="50" height="50" relative="1" as="geometry">
            <mxPoint x="749.995433070866" y="78.75" as="sourcePoint" />
            <mxPoint x="808.46" y="147.5" as="targetPoint" />
          </mxGeometry>
        </mxCell>
        <mxCell id="XXxo-U4MYCcqB2J5j0j6-102" value="Many" style="text;html=1;strokeColor=none;fillColor=none;align=center;verticalAlign=middle;whiteSpace=wrap;rounded=0;fontSize=14;" parent="1" vertex="1">
          <mxGeometry x="660" y="58.75" width="40" height="11.25" as="geometry" />
        </mxCell>
        <mxCell id="XXxo-U4MYCcqB2J5j0j6-105" style="edgeStyle=orthogonalEdgeStyle;rounded=0;orthogonalLoop=1;jettySize=auto;html=1;entryX=1;entryY=0.5;entryDx=0;entryDy=0;dashed=1;fontSize=14;" parent="1" source="XXxo-U4MYCcqB2J5j0j6-103" target="XXxo-U4MYCcqB2J5j0j6-102" edge="1">
          <mxGeometry relative="1" as="geometry" />
        </mxCell>
        <mxCell id="XXxo-U4MYCcqB2J5j0j6-103" value="One" style="text;html=1;strokeColor=none;fillColor=none;align=center;verticalAlign=middle;whiteSpace=wrap;rounded=0;fontSize=14;" parent="1" vertex="1">
          <mxGeometry x="920" y="58.75" width="40" height="11.25" as="geometry" />
        </mxCell>
        <mxCell id="XXxo-U4MYCcqB2J5j0j6-106" value="One" style="text;html=1;strokeColor=none;fillColor=none;align=center;verticalAlign=middle;whiteSpace=wrap;rounded=0;fontSize=14;" parent="1" vertex="1">
          <mxGeometry x="920" y="29.999999999999993" width="40" height="11.25" as="geometry" />
        </mxCell>
        <mxCell id="XXxo-U4MYCcqB2J5j0j6-111" style="edgeStyle=orthogonalEdgeStyle;rounded=0;orthogonalLoop=1;jettySize=auto;html=1;entryX=0;entryY=0.5;entryDx=0;entryDy=0;dashed=1;fontSize=14;" parent="1" source="XXxo-U4MYCcqB2J5j0j6-107" target="XXxo-U4MYCcqB2J5j0j6-106" edge="1">
          <mxGeometry relative="1" as="geometry" />
        </mxCell>
        <mxCell id="XXxo-U4MYCcqB2J5j0j6-107" value="One" style="text;html=1;strokeColor=none;fillColor=none;align=center;verticalAlign=middle;whiteSpace=wrap;rounded=0;fontSize=14;" parent="1" vertex="1">
          <mxGeometry x="660" y="30" width="40" height="11.25" as="geometry" />
        </mxCell>
        <mxCell id="XXxo-U4MYCcqB2J5j0j6-116" style="edgeStyle=orthogonalEdgeStyle;rounded=0;orthogonalLoop=1;jettySize=auto;html=1;entryX=0;entryY=0.75;entryDx=0;entryDy=0;dashed=1;fontSize=14;" parent="1" source="XXxo-U4MYCcqB2J5j0j6-113" target="XXxo-U4MYCcqB2J5j0j6-114" edge="1">
          <mxGeometry relative="1" as="geometry" />
        </mxCell>
        <mxCell id="XXxo-U4MYCcqB2J5j0j6-113" value="One" style="text;html=1;strokeColor=none;fillColor=none;align=center;verticalAlign=middle;whiteSpace=wrap;rounded=0;fontSize=14;" parent="1" vertex="1">
          <mxGeometry x="1040" y="138.75" width="40" height="11.25" as="geometry" />
        </mxCell>
        <mxCell id="XXxo-U4MYCcqB2J5j0j6-114" value="One" style="text;html=1;strokeColor=none;fillColor=none;align=center;verticalAlign=middle;whiteSpace=wrap;rounded=0;fontSize=14;" parent="1" vertex="1">
          <mxGeometry x="1390" y="132.5" width="40" height="11.25" as="geometry" />
        </mxCell>
        <mxCell id="XXxo-U4MYCcqB2J5j0j6-117" value="One" style="text;html=1;strokeColor=none;fillColor=none;align=center;verticalAlign=middle;whiteSpace=wrap;rounded=0;fontSize=14;" parent="1" vertex="1">
          <mxGeometry x="1050" y="105" width="40" height="11.25" as="geometry" />
        </mxCell>
        <mxCell id="XXxo-U4MYCcqB2J5j0j6-121" style="edgeStyle=orthogonalEdgeStyle;rounded=0;orthogonalLoop=1;jettySize=auto;html=1;dashed=1;fontSize=13;entryX=1.058;entryY=0.563;entryDx=0;entryDy=0;entryPerimeter=0;" parent="1" source="XXxo-U4MYCcqB2J5j0j6-118" target="XXxo-U4MYCcqB2J5j0j6-117" edge="1">
          <mxGeometry relative="1" as="geometry">
            <mxPoint x="1130" y="111.875" as="targetPoint" />
          </mxGeometry>
        </mxCell>
        <mxCell id="XXxo-U4MYCcqB2J5j0j6-118" value="One" style="text;html=1;strokeColor=none;fillColor=none;align=center;verticalAlign=middle;whiteSpace=wrap;rounded=0;fontSize=14;" parent="1" vertex="1">
          <mxGeometry x="1400" y="106.25" width="40" height="11.25" as="geometry" />
        </mxCell>
        <mxCell id="XXxo-U4MYCcqB2J5j0j6-125" style="edgeStyle=orthogonalEdgeStyle;rounded=0;orthogonalLoop=1;jettySize=auto;html=1;entryX=0.5;entryY=0;entryDx=0;entryDy=0;fontSize=13;dashed=1;" parent="1" source="XXxo-U4MYCcqB2J5j0j6-123" target="XXxo-U4MYCcqB2J5j0j6-124" edge="1">
          <mxGeometry relative="1" as="geometry" />
        </mxCell>
        <mxCell id="XXxo-U4MYCcqB2J5j0j6-123" value="One" style="text;html=1;strokeColor=none;fillColor=none;align=center;verticalAlign=middle;whiteSpace=wrap;rounded=0;fontSize=14;" parent="1" vertex="1">
          <mxGeometry x="920" y="174.38" width="40" height="11.25" as="geometry" />
        </mxCell>
        <mxCell id="XXxo-U4MYCcqB2J5j0j6-124" value="Many" style="text;html=1;strokeColor=none;fillColor=none;align=center;verticalAlign=middle;whiteSpace=wrap;rounded=0;fontSize=14;" parent="1" vertex="1">
          <mxGeometry x="920" y="260" width="40" height="11.25" as="geometry" />
        </mxCell>
        <mxCell id="XXxo-U4MYCcqB2J5j0j6-126" value="One" style="text;html=1;strokeColor=none;fillColor=none;align=center;verticalAlign=middle;whiteSpace=wrap;rounded=0;fontSize=14;" parent="1" vertex="1">
          <mxGeometry x="970" y="174.37" width="40" height="11.25" as="geometry" />
        </mxCell>
        <mxCell id="XXxo-U4MYCcqB2J5j0j6-128" style="edgeStyle=orthogonalEdgeStyle;rounded=0;orthogonalLoop=1;jettySize=auto;html=1;entryX=0.5;entryY=1;entryDx=0;entryDy=0;dashed=1;fontSize=13;" parent="1" source="XXxo-U4MYCcqB2J5j0j6-127" target="XXxo-U4MYCcqB2J5j0j6-126" edge="1">
          <mxGeometry relative="1" as="geometry" />
        </mxCell>
        <mxCell id="XXxo-U4MYCcqB2J5j0j6-127" value="One" style="text;html=1;strokeColor=none;fillColor=none;align=center;verticalAlign=middle;whiteSpace=wrap;rounded=0;fontSize=14;" parent="1" vertex="1">
          <mxGeometry x="970" y="260" width="40" height="11.25" as="geometry" />
        </mxCell>
        <mxCell id="XXxo-U4MYCcqB2J5j0j6-134" style="edgeStyle=orthogonalEdgeStyle;rounded=0;orthogonalLoop=1;jettySize=auto;html=1;fontSize=13;exitX=0.5;exitY=1;exitDx=0;exitDy=0;" parent="1" source="XXxo-U4MYCcqB2J5j0j6-132" edge="1">
          <mxGeometry relative="1" as="geometry">
            <mxPoint x="660" y="460" as="targetPoint" />
            <Array as="points">
              <mxPoint x="965" y="460" />
            </Array>
          </mxGeometry>
        </mxCell>
        <mxCell id="XXxo-U4MYCcqB2J5j0j6-135" value="Protects" style="edgeLabel;html=1;align=center;verticalAlign=middle;resizable=0;points=[];fontSize=13;" parent="XXxo-U4MYCcqB2J5j0j6-134" vertex="1" connectable="0">
          <mxGeometry x="-0.3897" y="1" relative="1" as="geometry">
            <mxPoint x="-36" y="-1" as="offset" />
          </mxGeometry>
        </mxCell>
        <mxCell id="XXxo-U4MYCcqB2J5j0j6-132" value="Protection Group" style="ellipse;whiteSpace=wrap;html=1;fontSize=13;" parent="1" vertex="1">
          <mxGeometry x="905" y="390" width="120" height="50" as="geometry" />
        </mxCell>
        <mxCell id="XXxo-U4MYCcqB2J5j0j6-136" value="Many" style="text;html=1;align=center;verticalAlign=middle;whiteSpace=wrap;rounded=0;fontSize=13;" parent="1" vertex="1">
          <mxGeometry x="920" y="380" width="40" height="10" as="geometry" />
        </mxCell>
        <mxCell id="XXxo-U4MYCcqB2J5j0j6-143" style="edgeStyle=orthogonalEdgeStyle;rounded=0;orthogonalLoop=1;jettySize=auto;html=1;entryX=0.5;entryY=0;entryDx=0;entryDy=0;fontSize=13;dashed=1;" parent="1" source="XXxo-U4MYCcqB2J5j0j6-137" target="XXxo-U4MYCcqB2J5j0j6-136" edge="1">
          <mxGeometry relative="1" as="geometry" />
        </mxCell>
        <mxCell id="XXxo-U4MYCcqB2J5j0j6-137" value="One" style="text;html=1;align=center;verticalAlign=middle;whiteSpace=wrap;rounded=0;fontSize=13;" parent="1" vertex="1">
          <mxGeometry x="920" y="325" width="40" height="20" as="geometry" />
        </mxCell>
        <mxCell id="XXxo-U4MYCcqB2J5j0j6-146" style="edgeStyle=orthogonalEdgeStyle;rounded=0;orthogonalLoop=1;jettySize=auto;html=1;entryX=1;entryY=0.5;entryDx=0;entryDy=0;dashed=1;fontSize=13;" parent="1" source="XXxo-U4MYCcqB2J5j0j6-144" target="XXxo-U4MYCcqB2J5j0j6-145" edge="1">
          <mxGeometry relative="1" as="geometry">
            <Array as="points">
              <mxPoint x="870" y="450" />
              <mxPoint x="870" y="450" />
            </Array>
          </mxGeometry>
        </mxCell>
        <mxCell id="XXxo-U4MYCcqB2J5j0j6-144" value="One" style="text;html=1;align=center;verticalAlign=middle;whiteSpace=wrap;rounded=0;fontSize=13;" parent="1" vertex="1">
          <mxGeometry x="920" y="445" width="40" height="10" as="geometry" />
        </mxCell>
        <mxCell id="XXxo-U4MYCcqB2J5j0j6-145" value="many" style="text;html=1;align=center;verticalAlign=middle;whiteSpace=wrap;rounded=0;fontSize=13;" parent="1" vertex="1">
          <mxGeometry x="670" y="445" width="40" height="10" as="geometry" />
        </mxCell>
        <mxCell id="XXxo-U4MYCcqB2J5j0j6-151" style="edgeStyle=orthogonalEdgeStyle;rounded=0;orthogonalLoop=1;jettySize=auto;html=1;entryX=0.5;entryY=1;entryDx=0;entryDy=0;dashed=1;fontSize=13;" parent="1" source="XXxo-U4MYCcqB2J5j0j6-147" target="XXxo-U4MYCcqB2J5j0j6-148" edge="1">
          <mxGeometry relative="1" as="geometry">
            <Array as="points">
              <mxPoint x="990" y="470" />
            </Array>
          </mxGeometry>
        </mxCell>
        <mxCell id="XXxo-U4MYCcqB2J5j0j6-147" value="one" style="text;html=1;align=center;verticalAlign=middle;whiteSpace=wrap;rounded=0;fontSize=13;" parent="1" vertex="1">
          <mxGeometry x="670" y="470" width="40" height="10" as="geometry" />
        </mxCell>
        <mxCell id="XXxo-U4MYCcqB2J5j0j6-148" value="one" style="text;html=1;align=center;verticalAlign=middle;whiteSpace=wrap;rounded=0;fontSize=13;" parent="1" vertex="1">
          <mxGeometry x="970" y="445" width="40" height="10" as="geometry" />
        </mxCell>
        <mxCell id="XXxo-U4MYCcqB2J5j0j6-152" value="Text" style="text;html=1;strokeColor=#b85450;fillColor=#f8cecc;align=center;verticalAlign=middle;whiteSpace=wrap;rounded=0;fontSize=13;" parent="1" vertex="1">
          <mxGeometry x="970" y="325" width="40" height="20" as="geometry" />
        </mxCell>
        <mxCell id="XXxo-U4MYCcqB2J5j0j6-154" style="edgeStyle=orthogonalEdgeStyle;rounded=0;orthogonalLoop=1;jettySize=auto;html=1;entryX=0.5;entryY=1;entryDx=0;entryDy=0;dashed=1;fontSize=13;" parent="1" source="XXxo-U4MYCcqB2J5j0j6-153" target="XXxo-U4MYCcqB2J5j0j6-152" edge="1">
          <mxGeometry relative="1" as="geometry" />
        </mxCell>
        <mxCell id="XXxo-U4MYCcqB2J5j0j6-153" value="Text" style="text;html=1;strokeColor=#b85450;fillColor=#f8cecc;align=center;verticalAlign=middle;whiteSpace=wrap;rounded=0;fontSize=13;" parent="1" vertex="1">
          <mxGeometry x="970" y="380" width="40" height="10" as="geometry" />
        </mxCell>
        <mxCell id="XXxo-U4MYCcqB2J5j0j6-158" value="Network Component" style="text;html=1;strokeColor=none;fillColor=none;align=center;verticalAlign=middle;whiteSpace=wrap;rounded=0;fontSize=13;" parent="1" vertex="1">
          <mxGeometry x="1190" y="-130" width="80" height="40" as="geometry" />
        </mxCell>
        <mxCell id="XXxo-U4MYCcqB2J5j0j6-175" style="edgeStyle=orthogonalEdgeStyle;rounded=0;orthogonalLoop=1;jettySize=auto;html=1;entryX=0.625;entryY=0;entryDx=0;entryDy=0;entryPerimeter=0;fontSize=13;dashed=1;" parent="1" source="XXxo-U4MYCcqB2J5j0j6-172" target="XXxo-U4MYCcqB2J5j0j6-173" edge="1">
          <mxGeometry relative="1" as="geometry" />
        </mxCell>
        <mxCell id="XXxo-U4MYCcqB2J5j0j6-172" value="One" style="text;html=1;strokeColor=none;fillColor=none;align=center;verticalAlign=middle;whiteSpace=wrap;rounded=0;fontSize=14;" parent="1" vertex="1">
          <mxGeometry x="790" y="225" width="30" height="15" as="geometry" />
        </mxCell>
        <mxCell id="XXxo-U4MYCcqB2J5j0j6-173" value="Many" style="text;html=1;strokeColor=none;fillColor=none;align=center;verticalAlign=middle;whiteSpace=wrap;rounded=0;fontSize=14;" parent="1" vertex="1">
          <mxGeometry x="780" y="260" width="40" height="15" as="geometry" />
        </mxCell>
        <mxCell id="XXxo-U4MYCcqB2J5j0j6-176" value="Many" style="text;html=1;align=center;verticalAlign=middle;whiteSpace=wrap;rounded=0;fontSize=14;" parent="1" vertex="1">
          <mxGeometry x="820" y="225" width="40" height="15" as="geometry" />
        </mxCell>
        <mxCell id="XXxo-U4MYCcqB2J5j0j6-178" style="edgeStyle=orthogonalEdgeStyle;rounded=0;orthogonalLoop=1;jettySize=auto;html=1;entryX=0.5;entryY=1;entryDx=0;entryDy=0;dashed=1;fontSize=13;" parent="1" source="XXxo-U4MYCcqB2J5j0j6-177" target="XXxo-U4MYCcqB2J5j0j6-176" edge="1">
          <mxGeometry relative="1" as="geometry" />
        </mxCell>
        <mxCell id="XXxo-U4MYCcqB2J5j0j6-177" value="One" style="text;html=1;align=center;verticalAlign=middle;whiteSpace=wrap;rounded=0;fontSize=14;" parent="1" vertex="1">
          <mxGeometry x="825" y="265" width="30" height="15" as="geometry" />
        </mxCell>
        <mxCell id="XXxo-U4MYCcqB2J5j0j6-179" value="" style="endArrow=none;dashed=1;html=1;dashPattern=1 3;strokeWidth=2;rounded=0;fontSize=13;" parent="1" edge="1">
          <mxGeometry width="50" height="50" relative="1" as="geometry">
            <mxPoint x="1360" y="494" as="sourcePoint" />
            <mxPoint x="1360" y="-200" as="targetPoint" />
            <Array as="points" />
          </mxGeometry>
        </mxCell>
        <mxCell id="XXxo-U4MYCcqB2J5j0j6-181" value="&lt;h1 style=&quot;font-size: 15px&quot;&gt;Replication Appliance DR&lt;/h1&gt;&lt;p&gt;Same set of configuration will be part of DR also&lt;/p&gt;&lt;p&gt;we can ignore bcoz this can be eventually be available for the other vcenter also wherever replication is enabled&lt;/p&gt;" style="text;html=1;strokeColor=none;fillColor=none;spacing=5;spacingTop=-20;whiteSpace=wrap;overflow=hidden;rounded=0;fontSize=13;" parent="1" vertex="1">
          <mxGeometry x="1450" y="111.75" width="190" height="164" as="geometry" />
        </mxCell>
        <mxCell id="XXxo-U4MYCcqB2J5j0j6-198" style="edgeStyle=orthogonalEdgeStyle;rounded=0;orthogonalLoop=1;jettySize=auto;html=1;fontSize=15;" parent="1" source="XXxo-U4MYCcqB2J5j0j6-191" target="XXxo-U4MYCcqB2J5j0j6-193" edge="1">
          <mxGeometry relative="1" as="geometry" />
        </mxCell>
        <mxCell id="XXxo-U4MYCcqB2J5j0j6-191" value="Storage Controllers" style="rounded=0;whiteSpace=wrap;html=1;fontSize=15;strokeColor=#000000;strokeWidth=1;fillColor=default;gradientColor=none;gradientDirection=south;" parent="1" vertex="1">
          <mxGeometry x="-82.5" y="-584" width="95" height="60" as="geometry" />
        </mxCell>
        <mxCell id="XXxo-U4MYCcqB2J5j0j6-200" style="edgeStyle=orthogonalEdgeStyle;rounded=0;orthogonalLoop=1;jettySize=auto;html=1;entryX=0.5;entryY=0;entryDx=0;entryDy=0;fontSize=15;" parent="1" source="XXxo-U4MYCcqB2J5j0j6-193" target="XXxo-U4MYCcqB2J5j0j6-194" edge="1">
          <mxGeometry relative="1" as="geometry" />
        </mxCell>
        <mxCell id="XXxo-U4MYCcqB2J5j0j6-193" value="Disk Enclosure&lt;br&gt;24 disks" style="rounded=0;whiteSpace=wrap;html=1;fontSize=15;strokeColor=#000000;strokeWidth=1;fillColor=default;gradientColor=none;gradientDirection=south;" parent="1" vertex="1">
          <mxGeometry x="-120" y="-425" width="170" height="60" as="geometry" />
        </mxCell>
        <mxCell id="XXxo-U4MYCcqB2J5j0j6-201" style="edgeStyle=orthogonalEdgeStyle;rounded=0;orthogonalLoop=1;jettySize=auto;html=1;entryX=0.5;entryY=0;entryDx=0;entryDy=0;fontSize=15;" parent="1" source="XXxo-U4MYCcqB2J5j0j6-194" target="XXxo-U4MYCcqB2J5j0j6-196" edge="1">
          <mxGeometry relative="1" as="geometry" />
        </mxCell>
        <mxCell id="XXxo-U4MYCcqB2J5j0j6-194" value="Storage Pool" style="ellipse;whiteSpace=wrap;html=1;fontSize=15;strokeColor=#000000;strokeWidth=1;fillColor=default;gradientColor=none;gradientDirection=south;" parent="1" vertex="1">
          <mxGeometry x="-95" y="-260" width="120" height="80" as="geometry" />
        </mxCell>
        <mxCell id="XXxo-U4MYCcqB2J5j0j6-206" style="edgeStyle=orthogonalEdgeStyle;rounded=0;orthogonalLoop=1;jettySize=auto;html=1;fontSize=15;" parent="1" source="XXxo-U4MYCcqB2J5j0j6-196" edge="1">
          <mxGeometry relative="1" as="geometry">
            <mxPoint x="-35" y="80" as="targetPoint" />
          </mxGeometry>
        </mxCell>
        <mxCell id="XXxo-U4MYCcqB2J5j0j6-196" value="Multiple Chunks(LUN)" style="rounded=0;whiteSpace=wrap;html=1;fontSize=15;strokeColor=#000000;strokeWidth=1;fillColor=default;gradientColor=none;gradientDirection=south;" parent="1" vertex="1">
          <mxGeometry x="-95" y="-90" width="120" height="60" as="geometry" />
        </mxCell>
        <mxCell id="Ad5oymGmrPjmeHMKjceV-11" style="edgeStyle=orthogonalEdgeStyle;rounded=0;orthogonalLoop=1;jettySize=auto;html=1;" parent="1" source="XXxo-U4MYCcqB2J5j0j6-202" target="XXxo-U4MYCcqB2J5j0j6-191" edge="1">
          <mxGeometry relative="1" as="geometry">
            <mxPoint x="-90" y="-560" as="targetPoint" />
            <Array as="points">
              <mxPoint x="-270" y="-560" />
            </Array>
          </mxGeometry>
        </mxCell>
        <mxCell id="Ad5oymGmrPjmeHMKjceV-12" value="Storage Port" style="edgeLabel;html=1;align=center;verticalAlign=middle;resizable=0;points=[];labelBackgroundColor=#D5E8D4;" parent="Ad5oymGmrPjmeHMKjceV-11" vertex="1" connectable="0">
          <mxGeometry x="-0.9035" y="1" relative="1" as="geometry">
            <mxPoint as="offset" />
          </mxGeometry>
        </mxCell>
        <mxCell id="Ad5oymGmrPjmeHMKjceV-13" style="edgeStyle=orthogonalEdgeStyle;rounded=0;orthogonalLoop=1;jettySize=auto;html=1;entryX=0;entryY=1;entryDx=0;entryDy=0;" parent="1" source="XXxo-U4MYCcqB2J5j0j6-202" target="XXxo-U4MYCcqB2J5j0j6-211" edge="1">
          <mxGeometry relative="1" as="geometry">
            <mxPoint x="200" y="82" as="targetPoint" />
            <Array as="points">
              <mxPoint x="200" y="82" />
            </Array>
          </mxGeometry>
        </mxCell>
        <mxCell id="Ad5oymGmrPjmeHMKjceV-14" value="ESXi port" style="edgeLabel;html=1;align=center;verticalAlign=middle;resizable=0;points=[];labelBackgroundColor=#D5E8D4;" parent="Ad5oymGmrPjmeHMKjceV-13" vertex="1" connectable="0">
          <mxGeometry x="-0.3094" y="-3" relative="1" as="geometry">
            <mxPoint x="-16" y="-3" as="offset" />
          </mxGeometry>
        </mxCell>
        <mxCell id="Ad5oymGmrPjmeHMKjceV-29" style="edgeStyle=orthogonalEdgeStyle;rounded=0;orthogonalLoop=1;jettySize=auto;html=1;entryX=1.032;entryY=0.444;entryDx=0;entryDy=0;entryPerimeter=0;" parent="1" source="XXxo-U4MYCcqB2J5j0j6-202" target="Ad5oymGmrPjmeHMKjceV-16" edge="1">
          <mxGeometry relative="1" as="geometry" />
        </mxCell>
        <mxCell id="XXxo-U4MYCcqB2J5j0j6-202" value="Storage Switch" style="rounded=0;whiteSpace=wrap;html=1;fontSize=15;strokeColor=#000000;strokeWidth=1;fillColor=default;gradientColor=none;gradientDirection=south;" parent="1" vertex="1">
          <mxGeometry x="-330" y="56.25" width="120" height="60" as="geometry" />
        </mxCell>
        <mxCell id="XXxo-U4MYCcqB2J5j0j6-209" style="edgeStyle=orthogonalEdgeStyle;rounded=0;orthogonalLoop=1;jettySize=auto;html=1;fontSize=15;dashed=1;" parent="1" source="XXxo-U4MYCcqB2J5j0j6-207" edge="1">
          <mxGeometry relative="1" as="geometry">
            <mxPoint x="180" y="190" as="targetPoint" />
            <Array as="points">
              <mxPoint x="-80" y="140" />
              <mxPoint x="180" y="140" />
            </Array>
          </mxGeometry>
        </mxCell>
        <mxCell id="XXxo-U4MYCcqB2J5j0j6-207" value="Many" style="text;html=1;strokeColor=none;fillColor=none;align=center;verticalAlign=middle;whiteSpace=wrap;rounded=0;fontSize=15;" parent="1" vertex="1">
          <mxGeometry x="-95" y="-30" width="60" height="15" as="geometry" />
        </mxCell>
        <mxCell id="XXxo-U4MYCcqB2J5j0j6-210" value="One" style="text;html=1;strokeColor=none;fillColor=none;align=center;verticalAlign=middle;whiteSpace=wrap;rounded=0;fontSize=15;" parent="1" vertex="1">
          <mxGeometry x="140" y="195" width="60" height="15" as="geometry" />
        </mxCell>
        <mxCell id="XXxo-U4MYCcqB2J5j0j6-213" style="edgeStyle=orthogonalEdgeStyle;rounded=0;orthogonalLoop=1;jettySize=auto;html=1;entryX=0.5;entryY=1;entryDx=0;entryDy=0;dashed=1;fontSize=15;exitX=0.5;exitY=0;exitDx=0;exitDy=0;" parent="1" source="XXxo-U4MYCcqB2J5j0j6-211" target="XXxo-U4MYCcqB2J5j0j6-212" edge="1">
          <mxGeometry relative="1" as="geometry" />
        </mxCell>
        <mxCell id="XXxo-U4MYCcqB2J5j0j6-211" value="One" style="text;html=1;strokeColor=none;fillColor=none;align=center;verticalAlign=middle;whiteSpace=wrap;rounded=0;fontSize=15;" parent="1" vertex="1">
          <mxGeometry x="200" y="195" width="60" height="15" as="geometry" />
        </mxCell>
        <mxCell id="XXxo-U4MYCcqB2J5j0j6-212" value="Many" style="text;html=1;strokeColor=none;fillColor=#FFFFFF;align=center;verticalAlign=middle;whiteSpace=wrap;rounded=0;fontSize=15;" parent="1" vertex="1">
          <mxGeometry x="-30" y="-30" width="60" height="15" as="geometry" />
        </mxCell>
        <mxCell id="XXxo-U4MYCcqB2J5j0j6-214" style="edgeStyle=orthogonalEdgeStyle;rounded=0;orthogonalLoop=1;jettySize=auto;html=1;exitX=0.75;exitY=1;exitDx=0;exitDy=0;entryX=1;entryY=0.75;entryDx=0;entryDy=0;dashed=1;fontSize=15;" parent="1" source="XXxo-U4MYCcqB2J5j0j6-191" target="XXxo-U4MYCcqB2J5j0j6-191" edge="1">
          <mxGeometry relative="1" as="geometry" />
        </mxCell>
        <mxCell id="XXxo-U4MYCcqB2J5j0j6-217" style="edgeStyle=orthogonalEdgeStyle;rounded=0;orthogonalLoop=1;jettySize=auto;html=1;dashed=1;fontSize=15;" parent="1" source="XXxo-U4MYCcqB2J5j0j6-215" target="XXxo-U4MYCcqB2J5j0j6-216" edge="1">
          <mxGeometry relative="1" as="geometry" />
        </mxCell>
        <mxCell id="XXxo-U4MYCcqB2J5j0j6-215" value="Many" style="text;html=1;strokeColor=none;fillColor=none;align=center;verticalAlign=middle;whiteSpace=wrap;rounded=0;fontSize=15;" parent="1" vertex="1">
          <mxGeometry x="-92.5" y="-525" width="60" height="30" as="geometry" />
        </mxCell>
        <mxCell id="XXxo-U4MYCcqB2J5j0j6-216" value="One" style="text;html=1;strokeColor=none;fillColor=none;align=center;verticalAlign=middle;whiteSpace=wrap;rounded=0;fontSize=15;" parent="1" vertex="1">
          <mxGeometry x="-92.5" y="-455" width="60" height="30" as="geometry" />
        </mxCell>
        <mxCell id="XXxo-U4MYCcqB2J5j0j6-220" style="edgeStyle=orthogonalEdgeStyle;rounded=0;orthogonalLoop=1;jettySize=auto;html=1;dashed=1;fontSize=15;" parent="1" source="XXxo-U4MYCcqB2J5j0j6-218" target="XXxo-U4MYCcqB2J5j0j6-219" edge="1">
          <mxGeometry relative="1" as="geometry" />
        </mxCell>
        <mxCell id="XXxo-U4MYCcqB2J5j0j6-218" value="One" style="text;html=1;strokeColor=none;fillColor=none;align=center;verticalAlign=middle;whiteSpace=wrap;rounded=0;fontSize=15;" parent="1" vertex="1">
          <mxGeometry x="-40" y="-455" width="60" height="30" as="geometry" />
        </mxCell>
        <mxCell id="XXxo-U4MYCcqB2J5j0j6-219" value="Many" style="text;html=1;strokeColor=none;fillColor=none;align=center;verticalAlign=middle;whiteSpace=wrap;rounded=0;fontSize=15;" parent="1" vertex="1">
          <mxGeometry x="-35" y="-520" width="50" height="20" as="geometry" />
        </mxCell>
        <mxCell id="XXxo-U4MYCcqB2J5j0j6-223" style="edgeStyle=orthogonalEdgeStyle;rounded=0;orthogonalLoop=1;jettySize=auto;html=1;entryX=0.5;entryY=0;entryDx=0;entryDy=0;dashed=1;fontSize=15;" parent="1" source="XXxo-U4MYCcqB2J5j0j6-221" target="XXxo-U4MYCcqB2J5j0j6-222" edge="1">
          <mxGeometry relative="1" as="geometry" />
        </mxCell>
        <mxCell id="XXxo-U4MYCcqB2J5j0j6-221" value="Many" style="text;html=1;strokeColor=none;fillColor=none;align=center;verticalAlign=middle;whiteSpace=wrap;rounded=0;fontSize=15;" parent="1" vertex="1">
          <mxGeometry x="-100" y="-370" width="60" height="30" as="geometry" />
        </mxCell>
        <mxCell id="XXxo-U4MYCcqB2J5j0j6-222" value="Many" style="text;html=1;strokeColor=none;fillColor=none;align=center;verticalAlign=middle;whiteSpace=wrap;rounded=0;fontSize=15;" parent="1" vertex="1">
          <mxGeometry x="-98.75" y="-280" width="57.5" height="20" as="geometry" />
        </mxCell>
        <mxCell id="XXxo-U4MYCcqB2J5j0j6-226" style="edgeStyle=orthogonalEdgeStyle;rounded=0;orthogonalLoop=1;jettySize=auto;html=1;dashed=1;fontSize=15;" parent="1" source="XXxo-U4MYCcqB2J5j0j6-224" target="XXxo-U4MYCcqB2J5j0j6-225" edge="1">
          <mxGeometry relative="1" as="geometry" />
        </mxCell>
        <mxCell id="XXxo-U4MYCcqB2J5j0j6-224" value="One" style="text;html=1;strokeColor=none;fillColor=none;align=center;verticalAlign=middle;whiteSpace=wrap;rounded=0;fontSize=15;" parent="1" vertex="1">
          <mxGeometry x="-40" y="-285" width="60" height="30" as="geometry" />
        </mxCell>
        <mxCell id="XXxo-U4MYCcqB2J5j0j6-225" value="Many" style="text;html=1;strokeColor=none;fillColor=none;align=center;verticalAlign=middle;whiteSpace=wrap;rounded=0;fontSize=15;" parent="1" vertex="1">
          <mxGeometry x="-40" y="-365" width="60" height="20" as="geometry" />
        </mxCell>
        <mxCell id="XXxo-U4MYCcqB2J5j0j6-231" style="edgeStyle=orthogonalEdgeStyle;rounded=0;orthogonalLoop=1;jettySize=auto;html=1;entryX=0.5;entryY=0;entryDx=0;entryDy=0;dashed=1;fontSize=15;" parent="1" source="XXxo-U4MYCcqB2J5j0j6-227" target="XXxo-U4MYCcqB2J5j0j6-230" edge="1">
          <mxGeometry relative="1" as="geometry" />
        </mxCell>
        <mxCell id="XXxo-U4MYCcqB2J5j0j6-227" value="One" style="text;html=1;strokeColor=none;fillColor=none;align=center;verticalAlign=middle;whiteSpace=wrap;rounded=0;fontSize=15;" parent="1" vertex="1">
          <mxGeometry x="-90" y="-190" width="60" height="30" as="geometry" />
        </mxCell>
        <mxCell id="XXxo-U4MYCcqB2J5j0j6-230" value="Many" style="text;html=1;strokeColor=none;fillColor=none;align=center;verticalAlign=middle;whiteSpace=wrap;rounded=0;fontSize=15;" parent="1" vertex="1">
          <mxGeometry x="-90" y="-120" width="60" height="30" as="geometry" />
        </mxCell>
        <mxCell id="XXxo-U4MYCcqB2J5j0j6-232" value="One" style="text;html=1;strokeColor=none;fillColor=none;align=center;verticalAlign=middle;whiteSpace=wrap;rounded=0;fontSize=15;" parent="1" vertex="1">
          <mxGeometry x="-40" y="-185" width="60" height="20" as="geometry" />
        </mxCell>
        <mxCell id="XXxo-U4MYCcqB2J5j0j6-234" style="edgeStyle=orthogonalEdgeStyle;rounded=0;orthogonalLoop=1;jettySize=auto;html=1;dashed=1;fontSize=15;" parent="1" source="XXxo-U4MYCcqB2J5j0j6-233" target="XXxo-U4MYCcqB2J5j0j6-232" edge="1">
          <mxGeometry relative="1" as="geometry" />
        </mxCell>
        <mxCell id="XXxo-U4MYCcqB2J5j0j6-233" value="One" style="text;html=1;strokeColor=none;fillColor=none;align=center;verticalAlign=middle;whiteSpace=wrap;rounded=0;fontSize=15;" parent="1" vertex="1">
          <mxGeometry x="-40" y="-120" width="60" height="30" as="geometry" />
        </mxCell>
        <mxCell id="Ad5oymGmrPjmeHMKjceV-16" value="Replication" style="rounded=0;whiteSpace=wrap;html=1;fontSize=15;strokeColor=#000000;strokeWidth=1;gradientDirection=south;" parent="1" vertex="1">
          <mxGeometry x="-890" y="35.059999999999995" width="120" height="108.25" as="geometry" />
        </mxCell>
        <mxCell id="Ad5oymGmrPjmeHMKjceV-18" value="" style="ellipse;shape=cloud;whiteSpace=wrap;html=1;fontSize=13;fillColor=#d5e8d4;strokeColor=#82b366;" parent="1" vertex="1">
          <mxGeometry x="-710" y="-190" width="310" height="200" as="geometry" />
        </mxCell>
        <mxCell id="Ad5oymGmrPjmeHMKjceV-30" style="edgeStyle=orthogonalEdgeStyle;rounded=0;orthogonalLoop=1;jettySize=auto;html=1;" parent="1" source="Ad5oymGmrPjmeHMKjceV-19" edge="1">
          <mxGeometry relative="1" as="geometry">
            <mxPoint x="-569.9999999999998" y="80" as="targetPoint" />
          </mxGeometry>
        </mxCell>
        <mxCell id="Ad5oymGmrPjmeHMKjceV-19" value="&lt;font style=&quot;font-size: 14px&quot;&gt;P2P Link&lt;/font&gt;" style="whiteSpace=wrap;html=1;aspect=fixed;" parent="1" vertex="1">
          <mxGeometry x="-610" y="-145" width="80" height="80" as="geometry" />
        </mxCell>
        <mxCell id="Ad5oymGmrPjmeHMKjceV-21" value="" style="endArrow=none;dashed=1;html=1;rounded=0;" parent="1" edge="1">
          <mxGeometry width="50" height="50" relative="1" as="geometry">
            <mxPoint x="-720" y="360" as="sourcePoint" />
            <mxPoint x="-720" y="-550" as="targetPoint" />
          </mxGeometry>
        </mxCell>
        <mxCell id="Ad5oymGmrPjmeHMKjceV-24" value="Same volume will be created as in DC" style="text;html=1;strokeColor=none;fillColor=none;align=center;verticalAlign=middle;whiteSpace=wrap;rounded=0;labelBackgroundColor=#FFFFFF;" parent="1" vertex="1">
          <mxGeometry x="-880" y="106.19" width="100" height="30" as="geometry" />
        </mxCell>
        <mxCell id="Ad5oymGmrPjmeHMKjceV-48" style="edgeStyle=orthogonalEdgeStyle;rounded=0;orthogonalLoop=1;jettySize=auto;html=1;entryX=0.5;entryY=0;entryDx=0;entryDy=0;" parent="1" source="Ad5oymGmrPjmeHMKjceV-26" target="Ad5oymGmrPjmeHMKjceV-33" edge="1">
          <mxGeometry relative="1" as="geometry" />
        </mxCell>
        <mxCell id="Ad5oymGmrPjmeHMKjceV-26" value="backup traffic switch" style="rounded=0;whiteSpace=wrap;html=1;labelBackgroundColor=#FFFFFF;strokeColor=#000000;fillColor=default;" parent="1" vertex="1">
          <mxGeometry x="-202.5" y="270" width="120" height="60" as="geometry" />
        </mxCell>
        <mxCell id="Ad5oymGmrPjmeHMKjceV-31" value="Management Switch" style="rounded=0;whiteSpace=wrap;html=1;labelBackgroundColor=#FFFFFF;strokeColor=#000000;fillColor=default;" parent="1" vertex="1">
          <mxGeometry x="-460" y="340" width="120" height="60" as="geometry" />
        </mxCell>
        <mxCell id="Ad5oymGmrPjmeHMKjceV-36" style="edgeStyle=orthogonalEdgeStyle;rounded=0;orthogonalLoop=1;jettySize=auto;html=1;entryX=0.5;entryY=1;entryDx=0;entryDy=0;" parent="1" source="Ad5oymGmrPjmeHMKjceV-32" target="Ad5oymGmrPjmeHMKjceV-31" edge="1">
          <mxGeometry relative="1" as="geometry" />
        </mxCell>
        <mxCell id="Ad5oymGmrPjmeHMKjceV-39" style="edgeStyle=orthogonalEdgeStyle;rounded=0;orthogonalLoop=1;jettySize=auto;html=1;entryX=0;entryY=0.5;entryDx=0;entryDy=0;" parent="1" source="Ad5oymGmrPjmeHMKjceV-32" target="Ad5oymGmrPjmeHMKjceV-34" edge="1">
          <mxGeometry relative="1" as="geometry" />
        </mxCell>
        <mxCell id="Ad5oymGmrPjmeHMKjceV-32" value="Tape library" style="rounded=0;whiteSpace=wrap;html=1;labelBackgroundColor=#FFFFFF;strokeColor=#000000;fillColor=default;" parent="1" vertex="1">
          <mxGeometry x="-460" y="530" width="120" height="60" as="geometry" />
        </mxCell>
        <mxCell id="Ad5oymGmrPjmeHMKjceV-37" style="edgeStyle=orthogonalEdgeStyle;rounded=0;orthogonalLoop=1;jettySize=auto;html=1;entryX=1;entryY=0.5;entryDx=0;entryDy=0;" parent="1" source="Ad5oymGmrPjmeHMKjceV-33" target="Ad5oymGmrPjmeHMKjceV-31" edge="1">
          <mxGeometry relative="1" as="geometry" />
        </mxCell>
        <mxCell id="Ad5oymGmrPjmeHMKjceV-40" style="edgeStyle=orthogonalEdgeStyle;rounded=0;orthogonalLoop=1;jettySize=auto;html=1;entryX=1;entryY=0.5;entryDx=0;entryDy=0;exitX=0.5;exitY=1;exitDx=0;exitDy=0;" parent="1" source="Ad5oymGmrPjmeHMKjceV-33" target="Ad5oymGmrPjmeHMKjceV-34" edge="1">
          <mxGeometry relative="1" as="geometry" />
        </mxCell>
        <mxCell id="Ad5oymGmrPjmeHMKjceV-33" value="Backup Server" style="rounded=0;whiteSpace=wrap;html=1;labelBackgroundColor=#FFFFFF;strokeColor=#000000;fillColor=default;" parent="1" vertex="1">
          <mxGeometry x="-202.5" y="520" width="120" height="60" as="geometry" />
        </mxCell>
        <mxCell id="Ad5oymGmrPjmeHMKjceV-34" value="SAN&amp;nbsp; Fabric switch" style="rounded=0;whiteSpace=wrap;html=1;labelBackgroundColor=#FFFFFF;strokeColor=#000000;fillColor=default;" parent="1" vertex="1">
          <mxGeometry x="-350" y="690" width="120" height="60" as="geometry" />
        </mxCell>
        <mxCell id="Ad5oymGmrPjmeHMKjceV-49" style="edgeStyle=orthogonalEdgeStyle;rounded=0;orthogonalLoop=1;jettySize=auto;html=1;entryX=1;entryY=0.5;entryDx=0;entryDy=0;exitX=0.5;exitY=0;exitDx=0;exitDy=0;" parent="1" source="Ad5oymGmrPjmeHMKjceV-35" target="Ad5oymGmrPjmeHMKjceV-33" edge="1">
          <mxGeometry relative="1" as="geometry" />
        </mxCell>
        <mxCell id="Ad5oymGmrPjmeHMKjceV-35" value="ICS Storage" style="ellipse;whiteSpace=wrap;html=1;aspect=fixed;labelBackgroundColor=#FFFFFF;strokeColor=#000000;fillColor=default;rotation=0;" parent="1" vertex="1">
          <mxGeometry x="-50" y="640" width="80" height="80" as="geometry" />
        </mxCell>
        <mxCell id="pakWP-vBIHIwawOGiF0U-1" value="Order" style="text;html=1;strokeColor=none;fillColor=none;align=center;verticalAlign=middle;whiteSpace=wrap;rounded=0;" parent="1" vertex="1">
          <mxGeometry x="190" y="720" width="60" height="30" as="geometry" />
        </mxCell>
        <mxCell id="pakWP-vBIHIwawOGiF0U-2" value="" style="edgeStyle=orthogonalEdgeStyle;rounded=0;orthogonalLoop=1;jettySize=auto;html=1;entryX=0.5;entryY=1;entryDx=0;entryDy=0;endArrow=none;" parent="1" source="02Wh0ydd3BotBdVYYqZC-34" target="pakWP-vBIHIwawOGiF0U-1" edge="1">
          <mxGeometry relative="1" as="geometry">
            <mxPoint x="258" y="750" as="sourcePoint" />
            <mxPoint x="258" y="680" as="targetPoint" />
          </mxGeometry>
        </mxCell>
        <mxCell id="pakWP-vBIHIwawOGiF0U-3" value="Standalone physical server" style="rounded=0;whiteSpace=wrap;html=1;" parent="1" vertex="1">
          <mxGeometry x="300" y="325" width="120" height="60" as="geometry" />
        </mxCell>
        <mxCell id="pakWP-vBIHIwawOGiF0U-6" value="DV switch" style="rounded=0;whiteSpace=wrap;html=1;" parent="1" vertex="1">
          <mxGeometry x="840" y="175" width="60" height="50" as="geometry" />
        </mxCell>
        <mxCell id="pakWP-vBIHIwawOGiF0U-8" value="" style="edgeStyle=orthogonalEdgeStyle;rounded=0;orthogonalLoop=1;jettySize=auto;html=1;exitX=0.5;exitY=0;exitDx=0;exitDy=0;exitPerimeter=0;entryX=0.5;entryY=1;entryDx=0;entryDy=0;endArrow=none;" parent="1" source="02Wh0ydd3BotBdVYYqZC-13" target="pakWP-vBIHIwawOGiF0U-7" edge="1">
          <mxGeometry relative="1" as="geometry">
            <mxPoint x="520" y="610" as="sourcePoint" />
            <mxPoint x="600" y="490" as="targetPoint" />
          </mxGeometry>
        </mxCell>
        <mxCell id="7T7FylVBJ-L8sZ3WLO1j-3" style="edgeStyle=orthogonalEdgeStyle;rounded=0;orthogonalLoop=1;jettySize=auto;html=1;entryX=0;entryY=0.5;entryDx=0;entryDy=0;dashed=1;startArrow=classic;startFill=1;" parent="1" source="7T7FylVBJ-L8sZ3WLO1j-1" target="7T7FylVBJ-L8sZ3WLO1j-2" edge="1">
          <mxGeometry relative="1" as="geometry" />
        </mxCell>
        <mxCell id="7T7FylVBJ-L8sZ3WLO1j-1" value="One" style="text;html=1;strokeColor=none;fillColor=none;align=center;verticalAlign=middle;whiteSpace=wrap;rounded=0;" parent="1" vertex="1">
          <mxGeometry x="425" y="345" width="30" height="20" as="geometry" />
        </mxCell>
        <mxCell id="7T7FylVBJ-L8sZ3WLO1j-2" value="One" style="text;html=1;strokeColor=none;fillColor=none;align=center;verticalAlign=middle;whiteSpace=wrap;rounded=0;" parent="1" vertex="1">
          <mxGeometry x="520" y="345" width="30" height="20" as="geometry" />
        </mxCell>
        <mxCell id="pakWP-vBIHIwawOGiF0U-7" value="vm" style="rounded=0;whiteSpace=wrap;html=1;" parent="1" vertex="1">
          <mxGeometry x="564.5" y="530" width="71" height="40" as="geometry" />
        </mxCell>
        <mxCell id="7T7FylVBJ-L8sZ3WLO1j-5" value="" style="edgeStyle=orthogonalEdgeStyle;rounded=0;orthogonalLoop=1;jettySize=auto;html=1;exitX=0.5;exitY=1;exitDx=0;exitDy=0;entryX=0.5;entryY=0;entryDx=0;entryDy=0;endArrow=none;" parent="1" source="02Wh0ydd3BotBdVYYqZC-7" target="pakWP-vBIHIwawOGiF0U-7" edge="1">
          <mxGeometry relative="1" as="geometry">
            <Array as="points" />
            <mxPoint x="600" y="490" as="sourcePoint" />
            <mxPoint x="750" y="610" as="targetPoint" />
          </mxGeometry>
        </mxCell>
      </root>
    </mxGraphModel>
  </diagram>
  <diagram id="Pz1DAnAGJnPg_Dsu-V3p" name="version_1.0">
    <mxGraphModel dx="2377" dy="1571" grid="1" gridSize="10" guides="1" tooltips="1" connect="1" arrows="1" fold="1" page="1" pageScale="1" pageWidth="827" pageHeight="1169" math="0" shadow="0">
      <root>
        <mxCell id="k85utWicbaK-2CsPMRpZ-0" />
        <mxCell id="k85utWicbaK-2CsPMRpZ-1" parent="k85utWicbaK-2CsPMRpZ-0" />
        <mxCell id="getGa0S9WeNUdmG6-dBY-350" value="" style="rounded=0;whiteSpace=wrap;html=1;labelBackgroundColor=none;fillColor=none;" parent="k85utWicbaK-2CsPMRpZ-1" vertex="1">
          <mxGeometry x="1332" y="590" width="348" height="230" as="geometry" />
        </mxCell>
        <mxCell id="lwx0LvJE-x4wmH1x_8i0-1" value="" style="ellipse;shape=cloud;whiteSpace=wrap;html=1;fontSize=13;fillColor=#d5e8d4;strokeColor=#82b366;" parent="k85utWicbaK-2CsPMRpZ-1" vertex="1">
          <mxGeometry x="1410" y="-205" width="310" height="200" as="geometry" />
        </mxCell>
        <mxCell id="lwx0LvJE-x4wmH1x_8i0-2" value="" style="rounded=0;whiteSpace=wrap;html=1;fontSize=14;dashed=1;fillColor=#ffe6cc;strokeColor=#FFFFFF;" parent="k85utWicbaK-2CsPMRpZ-1" vertex="1">
          <mxGeometry x="105" y="530" width="495" height="440" as="geometry" />
        </mxCell>
        <mxCell id="lwx0LvJE-x4wmH1x_8i0-5" style="edgeStyle=orthogonalEdgeStyle;rounded=0;orthogonalLoop=1;jettySize=auto;html=1;entryX=1;entryY=0.5;entryDx=0;entryDy=0;" parent="k85utWicbaK-2CsPMRpZ-1" source="lwx0LvJE-x4wmH1x_8i0-6" target="lwx0LvJE-x4wmH1x_8i0-167" edge="1">
          <mxGeometry relative="1" as="geometry" />
        </mxCell>
        <mxCell id="getGa0S9WeNUdmG6-dBY-273" style="edgeStyle=orthogonalEdgeStyle;rounded=0;orthogonalLoop=1;jettySize=auto;html=1;entryX=0.007;entryY=0.695;entryDx=0;entryDy=0;entryPerimeter=0;startArrow=none;startFill=0;endArrow=classic;endFill=1;exitX=0.25;exitY=0;exitDx=0;exitDy=0;" parent="k85utWicbaK-2CsPMRpZ-1" source="lwx0LvJE-x4wmH1x_8i0-71" target="lwx0LvJE-x4wmH1x_8i0-180" edge="1">
          <mxGeometry relative="1" as="geometry">
            <Array as="points">
              <mxPoint x="205" y="427" />
            </Array>
          </mxGeometry>
        </mxCell>
        <mxCell id="getGa0S9WeNUdmG6-dBY-304" style="edgeStyle=orthogonalEdgeStyle;rounded=0;orthogonalLoop=1;jettySize=auto;html=1;entryX=0;entryY=0.5;entryDx=0;entryDy=0;startArrow=none;startFill=0;endArrow=classic;endFill=1;strokeColor=#000000;" parent="k85utWicbaK-2CsPMRpZ-1" source="lwx0LvJE-x4wmH1x_8i0-6" target="lwx0LvJE-x4wmH1x_8i0-69" edge="1">
          <mxGeometry relative="1" as="geometry" />
        </mxCell>
        <mxCell id="lwx0LvJE-x4wmH1x_8i0-6" value="&lt;font style=&quot;font-size: 14px&quot;&gt;Network&lt;br&gt;Components&lt;/font&gt;" style="whiteSpace=wrap;html=1;aspect=fixed;fillColor=#d5e8d4;strokeColor=#82b366;" parent="k85utWicbaK-2CsPMRpZ-1" vertex="1">
          <mxGeometry x="47.5" y="365" width="92.5" height="92.5" as="geometry" />
        </mxCell>
        <mxCell id="getGa0S9WeNUdmG6-dBY-271" style="edgeStyle=orthogonalEdgeStyle;rounded=0;orthogonalLoop=1;jettySize=auto;html=1;entryX=0;entryY=0.75;entryDx=0;entryDy=0;startArrow=none;startFill=0;endArrow=classic;endFill=1;" parent="k85utWicbaK-2CsPMRpZ-1" source="lwx0LvJE-x4wmH1x_8i0-8" target="getGa0S9WeNUdmG6-dBY-198" edge="1">
          <mxGeometry relative="1" as="geometry" />
        </mxCell>
        <mxCell id="lwx0LvJE-x4wmH1x_8i0-8" value="&lt;font style=&quot;font-size: 14px&quot;&gt;Chassis&lt;/font&gt;" style="whiteSpace=wrap;html=1;aspect=fixed;" parent="k85utWicbaK-2CsPMRpZ-1" vertex="1">
          <mxGeometry x="310" y="245" width="80" height="80" as="geometry" />
        </mxCell>
        <mxCell id="lwx0LvJE-x4wmH1x_8i0-23" value="" style="shape=parallelogram;perimeter=parallelogramPerimeter;whiteSpace=wrap;html=1;fixedSize=1;" parent="k85utWicbaK-2CsPMRpZ-1" vertex="1">
          <mxGeometry x="1837" y="90.5" width="200" height="55" as="geometry" />
        </mxCell>
        <mxCell id="lwx0LvJE-x4wmH1x_8i0-24" style="edgeStyle=orthogonalEdgeStyle;rounded=0;orthogonalLoop=1;jettySize=auto;html=1;fontSize=13;" parent="k85utWicbaK-2CsPMRpZ-1" source="lwx0LvJE-x4wmH1x_8i0-25" edge="1">
          <mxGeometry relative="1" as="geometry">
            <mxPoint x="1547" y="111.75" as="targetPoint" />
          </mxGeometry>
        </mxCell>
        <mxCell id="lwx0LvJE-x4wmH1x_8i0-25" value="&lt;font style=&quot;font-size: 14px&quot;&gt;P2P Link/GDE&lt;/font&gt;" style="whiteSpace=wrap;html=1;aspect=fixed;" parent="k85utWicbaK-2CsPMRpZ-1" vertex="1">
          <mxGeometry x="1507" y="-148.25" width="80" height="80" as="geometry" />
        </mxCell>
        <mxCell id="getGa0S9WeNUdmG6-dBY-286" style="edgeStyle=orthogonalEdgeStyle;rounded=0;orthogonalLoop=1;jettySize=auto;html=1;startArrow=none;startFill=0;endArrow=classic;endFill=1;" parent="k85utWicbaK-2CsPMRpZ-1" source="lwx0LvJE-x4wmH1x_8i0-33" target="getGa0S9WeNUdmG6-dBY-285" edge="1">
          <mxGeometry relative="1" as="geometry" />
        </mxCell>
        <mxCell id="lwx0LvJE-x4wmH1x_8i0-33" value="&lt;font style=&quot;font-size: 14px&quot;&gt;User&lt;/font&gt;" style="shape=umlActor;verticalLabelPosition=bottom;verticalAlign=top;html=1;outlineConnect=0;" parent="k85utWicbaK-2CsPMRpZ-1" vertex="1">
          <mxGeometry x="290.5" y="870" width="70" height="100" as="geometry" />
        </mxCell>
        <mxCell id="lwx0LvJE-x4wmH1x_8i0-35" value="&lt;font style=&quot;font-size: 21px&quot;&gt;IPC console/Catalyst&lt;/font&gt;" style="shape=process;whiteSpace=wrap;html=1;backgroundOutline=1;" parent="k85utWicbaK-2CsPMRpZ-1" vertex="1">
          <mxGeometry x="125.12" y="540" width="209.75" height="110" as="geometry" />
        </mxCell>
        <mxCell id="lwx0LvJE-x4wmH1x_8i0-67" style="edgeStyle=orthogonalEdgeStyle;rounded=0;orthogonalLoop=1;jettySize=auto;html=1;entryX=0;entryY=0.5;entryDx=0;entryDy=0;" parent="k85utWicbaK-2CsPMRpZ-1" source="lwx0LvJE-x4wmH1x_8i0-69" target="lwx0LvJE-x4wmH1x_8i0-8" edge="1">
          <mxGeometry relative="1" as="geometry" />
        </mxCell>
        <mxCell id="lwx0LvJE-x4wmH1x_8i0-69" value="If chassis" style="rhombus;whiteSpace=wrap;html=1;" parent="k85utWicbaK-2CsPMRpZ-1" vertex="1">
          <mxGeometry x="130" y="215" width="140" height="50" as="geometry" />
        </mxCell>
        <mxCell id="lwx0LvJE-x4wmH1x_8i0-70" value="&lt;font style=&quot;font-size: 14px&quot;&gt;Yes&lt;/font&gt;" style="text;html=1;strokeColor=none;fillColor=none;align=center;verticalAlign=middle;whiteSpace=wrap;rounded=0;" parent="k85utWicbaK-2CsPMRpZ-1" vertex="1">
          <mxGeometry x="250" y="215" width="60" height="25" as="geometry" />
        </mxCell>
        <mxCell id="lwx0LvJE-x4wmH1x_8i0-71" value="&lt;font style=&quot;font-size: 14px&quot;&gt;No&lt;/font&gt;" style="text;html=1;strokeColor=none;fillColor=none;align=center;verticalAlign=middle;whiteSpace=wrap;rounded=0;" parent="k85utWicbaK-2CsPMRpZ-1" vertex="1">
          <mxGeometry x="190" y="265" width="60" height="25" as="geometry" />
        </mxCell>
        <mxCell id="getGa0S9WeNUdmG6-dBY-303" style="edgeStyle=orthogonalEdgeStyle;rounded=0;orthogonalLoop=1;jettySize=auto;html=1;startArrow=classic;startFill=1;endArrow=classic;endFill=1;strokeColor=#000000;dashed=1;" parent="k85utWicbaK-2CsPMRpZ-1" source="lwx0LvJE-x4wmH1x_8i0-86" edge="1">
          <mxGeometry relative="1" as="geometry">
            <mxPoint x="1780" y="136.12500000000023" as="targetPoint" />
          </mxGeometry>
        </mxCell>
        <mxCell id="lwx0LvJE-x4wmH1x_8i0-86" value="One" style="text;html=1;strokeColor=none;fillColor=none;align=center;verticalAlign=middle;whiteSpace=wrap;rounded=0;fontSize=14;" parent="k85utWicbaK-2CsPMRpZ-1" vertex="1">
          <mxGeometry x="1447" y="130.5" width="40" height="11.25" as="geometry" />
        </mxCell>
        <mxCell id="lwx0LvJE-x4wmH1x_8i0-90" value="One" style="text;html=1;strokeColor=none;fillColor=none;align=center;verticalAlign=middle;whiteSpace=wrap;rounded=0;fontSize=14;" parent="k85utWicbaK-2CsPMRpZ-1" vertex="1">
          <mxGeometry x="1797" y="126.25" width="40" height="11.25" as="geometry" />
        </mxCell>
        <mxCell id="lwx0LvJE-x4wmH1x_8i0-112" value="Network Component" style="text;html=1;strokeColor=none;fillColor=none;align=center;verticalAlign=middle;whiteSpace=wrap;rounded=0;fontSize=13;" parent="k85utWicbaK-2CsPMRpZ-1" vertex="1">
          <mxGeometry x="1597" y="-138.25" width="80" height="40" as="geometry" />
        </mxCell>
        <mxCell id="lwx0LvJE-x4wmH1x_8i0-120" value="&lt;h1 style=&quot;font-size: 15px&quot;&gt;Replication Appliance DR&lt;/h1&gt;&lt;p&gt;Same set of configuration will be part of DR also&lt;/p&gt;&lt;p&gt;we can ignore bcoz this can be eventually be available for the other vcenter also wherever replication is enabled&lt;/p&gt;" style="text;html=1;strokeColor=none;fillColor=none;spacing=5;spacingTop=-20;whiteSpace=wrap;overflow=hidden;rounded=0;fontSize=13;" parent="k85utWicbaK-2CsPMRpZ-1" vertex="1">
          <mxGeometry x="1857" y="103.5" width="190" height="164" as="geometry" />
        </mxCell>
        <mxCell id="lwx0LvJE-x4wmH1x_8i0-121" style="edgeStyle=orthogonalEdgeStyle;rounded=0;orthogonalLoop=1;jettySize=auto;html=1;fontSize=15;" parent="k85utWicbaK-2CsPMRpZ-1" source="lwx0LvJE-x4wmH1x_8i0-122" target="lwx0LvJE-x4wmH1x_8i0-124" edge="1">
          <mxGeometry relative="1" as="geometry" />
        </mxCell>
        <mxCell id="lwx0LvJE-x4wmH1x_8i0-122" value="Storage Controllers" style="rounded=0;whiteSpace=wrap;html=1;fontSize=15;strokeColor=#000000;strokeWidth=1;fillColor=default;gradientColor=none;gradientDirection=south;" parent="k85utWicbaK-2CsPMRpZ-1" vertex="1">
          <mxGeometry x="-82.5" y="-584" width="95" height="60" as="geometry" />
        </mxCell>
        <mxCell id="lwx0LvJE-x4wmH1x_8i0-123" style="edgeStyle=orthogonalEdgeStyle;rounded=0;orthogonalLoop=1;jettySize=auto;html=1;entryX=0.5;entryY=0;entryDx=0;entryDy=0;fontSize=15;" parent="k85utWicbaK-2CsPMRpZ-1" source="lwx0LvJE-x4wmH1x_8i0-124" target="lwx0LvJE-x4wmH1x_8i0-126" edge="1">
          <mxGeometry relative="1" as="geometry" />
        </mxCell>
        <mxCell id="lwx0LvJE-x4wmH1x_8i0-124" value="Disk Enclosure&lt;br&gt;24 disks" style="rounded=0;whiteSpace=wrap;html=1;fontSize=15;strokeColor=#000000;strokeWidth=1;fillColor=default;gradientColor=none;gradientDirection=south;" parent="k85utWicbaK-2CsPMRpZ-1" vertex="1">
          <mxGeometry x="-120" y="-425" width="170" height="60" as="geometry" />
        </mxCell>
        <mxCell id="lwx0LvJE-x4wmH1x_8i0-125" style="edgeStyle=orthogonalEdgeStyle;rounded=0;orthogonalLoop=1;jettySize=auto;html=1;entryX=0.5;entryY=0;entryDx=0;entryDy=0;fontSize=15;" parent="k85utWicbaK-2CsPMRpZ-1" source="lwx0LvJE-x4wmH1x_8i0-126" target="lwx0LvJE-x4wmH1x_8i0-128" edge="1">
          <mxGeometry relative="1" as="geometry" />
        </mxCell>
        <mxCell id="lwx0LvJE-x4wmH1x_8i0-126" value="Storage Pool" style="ellipse;whiteSpace=wrap;html=1;fontSize=15;strokeColor=#000000;strokeWidth=1;fillColor=default;gradientColor=none;gradientDirection=south;" parent="k85utWicbaK-2CsPMRpZ-1" vertex="1">
          <mxGeometry x="-95" y="-260" width="120" height="80" as="geometry" />
        </mxCell>
        <mxCell id="lwx0LvJE-x4wmH1x_8i0-127" style="edgeStyle=orthogonalEdgeStyle;rounded=0;orthogonalLoop=1;jettySize=auto;html=1;fontSize=15;" parent="k85utWicbaK-2CsPMRpZ-1" source="lwx0LvJE-x4wmH1x_8i0-128" edge="1">
          <mxGeometry relative="1" as="geometry">
            <mxPoint x="-35" y="80" as="targetPoint" />
          </mxGeometry>
        </mxCell>
        <mxCell id="lwx0LvJE-x4wmH1x_8i0-128" value="Multiple Chunks(LUN)" style="rounded=0;whiteSpace=wrap;html=1;fontSize=15;strokeColor=#000000;strokeWidth=1;fillColor=default;gradientColor=none;gradientDirection=south;" parent="k85utWicbaK-2CsPMRpZ-1" vertex="1">
          <mxGeometry x="-95" y="-90" width="120" height="60" as="geometry" />
        </mxCell>
        <mxCell id="lwx0LvJE-x4wmH1x_8i0-129" style="edgeStyle=orthogonalEdgeStyle;rounded=0;orthogonalLoop=1;jettySize=auto;html=1;" parent="k85utWicbaK-2CsPMRpZ-1" source="lwx0LvJE-x4wmH1x_8i0-134" target="lwx0LvJE-x4wmH1x_8i0-122" edge="1">
          <mxGeometry relative="1" as="geometry">
            <mxPoint x="-90" y="-560" as="targetPoint" />
            <Array as="points">
              <mxPoint x="-270" y="-560" />
            </Array>
          </mxGeometry>
        </mxCell>
        <mxCell id="lwx0LvJE-x4wmH1x_8i0-130" value="Storage Port" style="edgeLabel;html=1;align=center;verticalAlign=middle;resizable=0;points=[];labelBackgroundColor=#D5E8D4;" parent="lwx0LvJE-x4wmH1x_8i0-129" vertex="1" connectable="0">
          <mxGeometry x="-0.9035" y="1" relative="1" as="geometry">
            <mxPoint as="offset" />
          </mxGeometry>
        </mxCell>
        <mxCell id="lwx0LvJE-x4wmH1x_8i0-131" style="edgeStyle=orthogonalEdgeStyle;rounded=0;orthogonalLoop=1;jettySize=auto;html=1;entryX=0;entryY=1;entryDx=0;entryDy=0;" parent="k85utWicbaK-2CsPMRpZ-1" source="lwx0LvJE-x4wmH1x_8i0-134" target="lwx0LvJE-x4wmH1x_8i0-139" edge="1">
          <mxGeometry relative="1" as="geometry">
            <mxPoint x="200" y="82" as="targetPoint" />
            <Array as="points">
              <mxPoint x="200" y="82" />
            </Array>
          </mxGeometry>
        </mxCell>
        <mxCell id="lwx0LvJE-x4wmH1x_8i0-132" value="ESXi port" style="edgeLabel;html=1;align=center;verticalAlign=middle;resizable=0;points=[];labelBackgroundColor=#D5E8D4;" parent="lwx0LvJE-x4wmH1x_8i0-131" vertex="1" connectable="0">
          <mxGeometry x="-0.3094" y="-3" relative="1" as="geometry">
            <mxPoint x="-16" y="-3" as="offset" />
          </mxGeometry>
        </mxCell>
        <mxCell id="lwx0LvJE-x4wmH1x_8i0-133" style="edgeStyle=orthogonalEdgeStyle;rounded=0;orthogonalLoop=1;jettySize=auto;html=1;entryX=1.032;entryY=0.444;entryDx=0;entryDy=0;entryPerimeter=0;" parent="k85utWicbaK-2CsPMRpZ-1" source="lwx0LvJE-x4wmH1x_8i0-134" target="lwx0LvJE-x4wmH1x_8i0-160" edge="1">
          <mxGeometry relative="1" as="geometry" />
        </mxCell>
        <mxCell id="lwx0LvJE-x4wmH1x_8i0-134" value="Storage Switch" style="rounded=0;whiteSpace=wrap;html=1;fontSize=15;strokeColor=#000000;strokeWidth=1;fillColor=default;gradientColor=none;gradientDirection=south;" parent="k85utWicbaK-2CsPMRpZ-1" vertex="1">
          <mxGeometry x="-330" y="56.25" width="120" height="60" as="geometry" />
        </mxCell>
        <mxCell id="lwx0LvJE-x4wmH1x_8i0-135" style="edgeStyle=orthogonalEdgeStyle;rounded=0;orthogonalLoop=1;jettySize=auto;html=1;fontSize=15;dashed=1;" parent="k85utWicbaK-2CsPMRpZ-1" source="lwx0LvJE-x4wmH1x_8i0-136" edge="1">
          <mxGeometry relative="1" as="geometry">
            <mxPoint x="180" y="190" as="targetPoint" />
            <Array as="points">
              <mxPoint x="-80" y="140" />
              <mxPoint x="180" y="140" />
            </Array>
          </mxGeometry>
        </mxCell>
        <mxCell id="lwx0LvJE-x4wmH1x_8i0-136" value="Many" style="text;html=1;strokeColor=none;fillColor=none;align=center;verticalAlign=middle;whiteSpace=wrap;rounded=0;fontSize=15;" parent="k85utWicbaK-2CsPMRpZ-1" vertex="1">
          <mxGeometry x="-95" y="-30" width="60" height="15" as="geometry" />
        </mxCell>
        <mxCell id="lwx0LvJE-x4wmH1x_8i0-137" value="Many" style="text;html=1;strokeColor=none;fillColor=none;align=center;verticalAlign=middle;whiteSpace=wrap;rounded=0;fontSize=15;" parent="k85utWicbaK-2CsPMRpZ-1" vertex="1">
          <mxGeometry x="140" y="195" width="60" height="15" as="geometry" />
        </mxCell>
        <mxCell id="lwx0LvJE-x4wmH1x_8i0-138" style="edgeStyle=orthogonalEdgeStyle;rounded=0;orthogonalLoop=1;jettySize=auto;html=1;entryX=0.5;entryY=1;entryDx=0;entryDy=0;dashed=1;fontSize=15;exitX=0.5;exitY=0;exitDx=0;exitDy=0;" parent="k85utWicbaK-2CsPMRpZ-1" source="lwx0LvJE-x4wmH1x_8i0-139" target="lwx0LvJE-x4wmH1x_8i0-140" edge="1">
          <mxGeometry relative="1" as="geometry">
            <Array as="points">
              <mxPoint x="230" y="70" />
              <mxPoint y="70" />
            </Array>
          </mxGeometry>
        </mxCell>
        <mxCell id="lwx0LvJE-x4wmH1x_8i0-139" value="One" style="text;html=1;strokeColor=none;fillColor=none;align=center;verticalAlign=middle;whiteSpace=wrap;rounded=0;fontSize=15;" parent="k85utWicbaK-2CsPMRpZ-1" vertex="1">
          <mxGeometry x="200" y="195" width="60" height="15" as="geometry" />
        </mxCell>
        <mxCell id="lwx0LvJE-x4wmH1x_8i0-140" value="Many" style="text;html=1;strokeColor=none;fillColor=#FFFFFF;align=center;verticalAlign=middle;whiteSpace=wrap;rounded=0;fontSize=15;" parent="k85utWicbaK-2CsPMRpZ-1" vertex="1">
          <mxGeometry x="-30" y="-30" width="60" height="15" as="geometry" />
        </mxCell>
        <mxCell id="lwx0LvJE-x4wmH1x_8i0-141" style="edgeStyle=orthogonalEdgeStyle;rounded=0;orthogonalLoop=1;jettySize=auto;html=1;exitX=0.75;exitY=1;exitDx=0;exitDy=0;entryX=1;entryY=0.75;entryDx=0;entryDy=0;dashed=1;fontSize=15;" parent="k85utWicbaK-2CsPMRpZ-1" source="lwx0LvJE-x4wmH1x_8i0-122" target="lwx0LvJE-x4wmH1x_8i0-122" edge="1">
          <mxGeometry relative="1" as="geometry" />
        </mxCell>
        <mxCell id="lwx0LvJE-x4wmH1x_8i0-142" style="edgeStyle=orthogonalEdgeStyle;rounded=0;orthogonalLoop=1;jettySize=auto;html=1;dashed=1;fontSize=15;" parent="k85utWicbaK-2CsPMRpZ-1" source="lwx0LvJE-x4wmH1x_8i0-143" target="lwx0LvJE-x4wmH1x_8i0-144" edge="1">
          <mxGeometry relative="1" as="geometry" />
        </mxCell>
        <mxCell id="lwx0LvJE-x4wmH1x_8i0-143" value="Many" style="text;html=1;strokeColor=none;fillColor=none;align=center;verticalAlign=middle;whiteSpace=wrap;rounded=0;fontSize=15;" parent="k85utWicbaK-2CsPMRpZ-1" vertex="1">
          <mxGeometry x="-92.5" y="-525" width="60" height="30" as="geometry" />
        </mxCell>
        <mxCell id="lwx0LvJE-x4wmH1x_8i0-144" value="One" style="text;html=1;strokeColor=none;fillColor=none;align=center;verticalAlign=middle;whiteSpace=wrap;rounded=0;fontSize=15;" parent="k85utWicbaK-2CsPMRpZ-1" vertex="1">
          <mxGeometry x="-92.5" y="-455" width="60" height="30" as="geometry" />
        </mxCell>
        <mxCell id="lwx0LvJE-x4wmH1x_8i0-145" style="edgeStyle=orthogonalEdgeStyle;rounded=0;orthogonalLoop=1;jettySize=auto;html=1;dashed=1;fontSize=15;" parent="k85utWicbaK-2CsPMRpZ-1" source="lwx0LvJE-x4wmH1x_8i0-146" target="lwx0LvJE-x4wmH1x_8i0-147" edge="1">
          <mxGeometry relative="1" as="geometry" />
        </mxCell>
        <mxCell id="lwx0LvJE-x4wmH1x_8i0-146" value="One" style="text;html=1;strokeColor=none;fillColor=none;align=center;verticalAlign=middle;whiteSpace=wrap;rounded=0;fontSize=15;" parent="k85utWicbaK-2CsPMRpZ-1" vertex="1">
          <mxGeometry x="-40" y="-455" width="60" height="30" as="geometry" />
        </mxCell>
        <mxCell id="lwx0LvJE-x4wmH1x_8i0-147" value="Many" style="text;html=1;strokeColor=none;fillColor=none;align=center;verticalAlign=middle;whiteSpace=wrap;rounded=0;fontSize=15;" parent="k85utWicbaK-2CsPMRpZ-1" vertex="1">
          <mxGeometry x="-35" y="-520" width="50" height="20" as="geometry" />
        </mxCell>
        <mxCell id="lwx0LvJE-x4wmH1x_8i0-148" style="edgeStyle=orthogonalEdgeStyle;rounded=0;orthogonalLoop=1;jettySize=auto;html=1;entryX=0.5;entryY=0;entryDx=0;entryDy=0;dashed=1;fontSize=15;" parent="k85utWicbaK-2CsPMRpZ-1" source="lwx0LvJE-x4wmH1x_8i0-149" target="lwx0LvJE-x4wmH1x_8i0-150" edge="1">
          <mxGeometry relative="1" as="geometry" />
        </mxCell>
        <mxCell id="lwx0LvJE-x4wmH1x_8i0-149" value="Many" style="text;html=1;strokeColor=none;fillColor=none;align=center;verticalAlign=middle;whiteSpace=wrap;rounded=0;fontSize=15;" parent="k85utWicbaK-2CsPMRpZ-1" vertex="1">
          <mxGeometry x="-100" y="-370" width="60" height="30" as="geometry" />
        </mxCell>
        <mxCell id="lwx0LvJE-x4wmH1x_8i0-150" value="Many" style="text;html=1;strokeColor=none;fillColor=none;align=center;verticalAlign=middle;whiteSpace=wrap;rounded=0;fontSize=15;" parent="k85utWicbaK-2CsPMRpZ-1" vertex="1">
          <mxGeometry x="-98.75" y="-280" width="57.5" height="20" as="geometry" />
        </mxCell>
        <mxCell id="lwx0LvJE-x4wmH1x_8i0-151" style="edgeStyle=orthogonalEdgeStyle;rounded=0;orthogonalLoop=1;jettySize=auto;html=1;dashed=1;fontSize=15;" parent="k85utWicbaK-2CsPMRpZ-1" source="lwx0LvJE-x4wmH1x_8i0-152" target="lwx0LvJE-x4wmH1x_8i0-153" edge="1">
          <mxGeometry relative="1" as="geometry" />
        </mxCell>
        <mxCell id="lwx0LvJE-x4wmH1x_8i0-152" value="One" style="text;html=1;strokeColor=none;fillColor=none;align=center;verticalAlign=middle;whiteSpace=wrap;rounded=0;fontSize=15;" parent="k85utWicbaK-2CsPMRpZ-1" vertex="1">
          <mxGeometry x="-40" y="-285" width="60" height="30" as="geometry" />
        </mxCell>
        <mxCell id="lwx0LvJE-x4wmH1x_8i0-153" value="Many" style="text;html=1;strokeColor=none;fillColor=none;align=center;verticalAlign=middle;whiteSpace=wrap;rounded=0;fontSize=15;" parent="k85utWicbaK-2CsPMRpZ-1" vertex="1">
          <mxGeometry x="-40" y="-365" width="60" height="20" as="geometry" />
        </mxCell>
        <mxCell id="lwx0LvJE-x4wmH1x_8i0-154" style="edgeStyle=orthogonalEdgeStyle;rounded=0;orthogonalLoop=1;jettySize=auto;html=1;entryX=0.5;entryY=0;entryDx=0;entryDy=0;dashed=1;fontSize=15;" parent="k85utWicbaK-2CsPMRpZ-1" source="lwx0LvJE-x4wmH1x_8i0-155" target="lwx0LvJE-x4wmH1x_8i0-156" edge="1">
          <mxGeometry relative="1" as="geometry" />
        </mxCell>
        <mxCell id="lwx0LvJE-x4wmH1x_8i0-155" value="One" style="text;html=1;strokeColor=none;fillColor=none;align=center;verticalAlign=middle;whiteSpace=wrap;rounded=0;fontSize=15;" parent="k85utWicbaK-2CsPMRpZ-1" vertex="1">
          <mxGeometry x="-90" y="-190" width="60" height="30" as="geometry" />
        </mxCell>
        <mxCell id="lwx0LvJE-x4wmH1x_8i0-156" value="Many" style="text;html=1;strokeColor=none;fillColor=none;align=center;verticalAlign=middle;whiteSpace=wrap;rounded=0;fontSize=15;" parent="k85utWicbaK-2CsPMRpZ-1" vertex="1">
          <mxGeometry x="-90" y="-120" width="60" height="30" as="geometry" />
        </mxCell>
        <mxCell id="lwx0LvJE-x4wmH1x_8i0-157" value="One" style="text;html=1;strokeColor=none;fillColor=none;align=center;verticalAlign=middle;whiteSpace=wrap;rounded=0;fontSize=15;" parent="k85utWicbaK-2CsPMRpZ-1" vertex="1">
          <mxGeometry x="-40" y="-185" width="60" height="20" as="geometry" />
        </mxCell>
        <mxCell id="lwx0LvJE-x4wmH1x_8i0-158" style="edgeStyle=orthogonalEdgeStyle;rounded=0;orthogonalLoop=1;jettySize=auto;html=1;dashed=1;fontSize=15;" parent="k85utWicbaK-2CsPMRpZ-1" source="lwx0LvJE-x4wmH1x_8i0-159" target="lwx0LvJE-x4wmH1x_8i0-157" edge="1">
          <mxGeometry relative="1" as="geometry" />
        </mxCell>
        <mxCell id="lwx0LvJE-x4wmH1x_8i0-159" value="One" style="text;html=1;strokeColor=none;fillColor=none;align=center;verticalAlign=middle;whiteSpace=wrap;rounded=0;fontSize=15;" parent="k85utWicbaK-2CsPMRpZ-1" vertex="1">
          <mxGeometry x="-40" y="-120" width="60" height="30" as="geometry" />
        </mxCell>
        <mxCell id="lwx0LvJE-x4wmH1x_8i0-160" value="Replication" style="rounded=0;whiteSpace=wrap;html=1;fontSize=15;strokeColor=#000000;strokeWidth=1;gradientDirection=south;" parent="k85utWicbaK-2CsPMRpZ-1" vertex="1">
          <mxGeometry x="-890" y="35.059999999999995" width="120" height="108.25" as="geometry" />
        </mxCell>
        <mxCell id="lwx0LvJE-x4wmH1x_8i0-161" value="" style="ellipse;shape=cloud;whiteSpace=wrap;html=1;fontSize=13;fillColor=#d5e8d4;strokeColor=#82b366;" parent="k85utWicbaK-2CsPMRpZ-1" vertex="1">
          <mxGeometry x="-710" y="-190" width="310" height="200" as="geometry" />
        </mxCell>
        <mxCell id="lwx0LvJE-x4wmH1x_8i0-162" style="edgeStyle=orthogonalEdgeStyle;rounded=0;orthogonalLoop=1;jettySize=auto;html=1;" parent="k85utWicbaK-2CsPMRpZ-1" source="lwx0LvJE-x4wmH1x_8i0-163" edge="1">
          <mxGeometry relative="1" as="geometry">
            <mxPoint x="-570" y="80" as="targetPoint" />
          </mxGeometry>
        </mxCell>
        <mxCell id="lwx0LvJE-x4wmH1x_8i0-163" value="&lt;font style=&quot;font-size: 14px&quot;&gt;P2P Link&lt;/font&gt;" style="whiteSpace=wrap;html=1;aspect=fixed;" parent="k85utWicbaK-2CsPMRpZ-1" vertex="1">
          <mxGeometry x="-610" y="-145" width="80" height="80" as="geometry" />
        </mxCell>
        <mxCell id="lwx0LvJE-x4wmH1x_8i0-164" value="" style="endArrow=none;dashed=1;html=1;rounded=0;" parent="k85utWicbaK-2CsPMRpZ-1" edge="1">
          <mxGeometry width="50" height="50" relative="1" as="geometry">
            <mxPoint x="-720" y="359.99999999999955" as="sourcePoint" />
            <mxPoint x="-720" y="-550" as="targetPoint" />
          </mxGeometry>
        </mxCell>
        <mxCell id="lwx0LvJE-x4wmH1x_8i0-165" value="Same volume will be created as in DC" style="text;html=1;strokeColor=none;fillColor=none;align=center;verticalAlign=middle;whiteSpace=wrap;rounded=0;labelBackgroundColor=#FFFFFF;" parent="k85utWicbaK-2CsPMRpZ-1" vertex="1">
          <mxGeometry x="-880" y="106.19" width="100" height="30" as="geometry" />
        </mxCell>
        <mxCell id="lwx0LvJE-x4wmH1x_8i0-166" style="edgeStyle=orthogonalEdgeStyle;rounded=0;orthogonalLoop=1;jettySize=auto;html=1;entryX=0.5;entryY=0;entryDx=0;entryDy=0;" parent="k85utWicbaK-2CsPMRpZ-1" source="lwx0LvJE-x4wmH1x_8i0-167" target="lwx0LvJE-x4wmH1x_8i0-174" edge="1">
          <mxGeometry relative="1" as="geometry" />
        </mxCell>
        <mxCell id="lwx0LvJE-x4wmH1x_8i0-167" value="backup traffic switch" style="rounded=0;whiteSpace=wrap;html=1;labelBackgroundColor=#FFFFFF;strokeColor=#000000;fillColor=default;" parent="k85utWicbaK-2CsPMRpZ-1" vertex="1">
          <mxGeometry x="-202.5" y="396.25" width="120" height="60" as="geometry" />
        </mxCell>
        <mxCell id="lwx0LvJE-x4wmH1x_8i0-168" value="Management Switch" style="rounded=0;whiteSpace=wrap;html=1;labelBackgroundColor=#FFFFFF;strokeColor=#000000;fillColor=default;" parent="k85utWicbaK-2CsPMRpZ-1" vertex="1">
          <mxGeometry x="-460" y="340" width="120" height="60" as="geometry" />
        </mxCell>
        <mxCell id="lwx0LvJE-x4wmH1x_8i0-169" style="edgeStyle=orthogonalEdgeStyle;rounded=0;orthogonalLoop=1;jettySize=auto;html=1;entryX=0.5;entryY=1;entryDx=0;entryDy=0;" parent="k85utWicbaK-2CsPMRpZ-1" source="lwx0LvJE-x4wmH1x_8i0-171" target="lwx0LvJE-x4wmH1x_8i0-168" edge="1">
          <mxGeometry relative="1" as="geometry" />
        </mxCell>
        <mxCell id="lwx0LvJE-x4wmH1x_8i0-170" style="edgeStyle=orthogonalEdgeStyle;rounded=0;orthogonalLoop=1;jettySize=auto;html=1;entryX=0;entryY=0.5;entryDx=0;entryDy=0;" parent="k85utWicbaK-2CsPMRpZ-1" source="lwx0LvJE-x4wmH1x_8i0-171" target="lwx0LvJE-x4wmH1x_8i0-175" edge="1">
          <mxGeometry relative="1" as="geometry" />
        </mxCell>
        <mxCell id="lwx0LvJE-x4wmH1x_8i0-171" value="Tape library(many drives)" style="rounded=0;whiteSpace=wrap;html=1;labelBackgroundColor=#FFFFFF;strokeColor=#000000;fillColor=default;" parent="k85utWicbaK-2CsPMRpZ-1" vertex="1">
          <mxGeometry x="-460" y="530" width="120" height="60" as="geometry" />
        </mxCell>
        <mxCell id="lwx0LvJE-x4wmH1x_8i0-172" style="edgeStyle=orthogonalEdgeStyle;rounded=0;orthogonalLoop=1;jettySize=auto;html=1;entryX=1;entryY=0.5;entryDx=0;entryDy=0;" parent="k85utWicbaK-2CsPMRpZ-1" source="lwx0LvJE-x4wmH1x_8i0-174" target="lwx0LvJE-x4wmH1x_8i0-168" edge="1">
          <mxGeometry relative="1" as="geometry" />
        </mxCell>
        <mxCell id="lwx0LvJE-x4wmH1x_8i0-173" style="edgeStyle=orthogonalEdgeStyle;rounded=0;orthogonalLoop=1;jettySize=auto;html=1;entryX=1;entryY=0.5;entryDx=0;entryDy=0;exitX=0.5;exitY=1;exitDx=0;exitDy=0;startArrow=classic;startFill=1;endArrow=none;endFill=0;" parent="k85utWicbaK-2CsPMRpZ-1" source="lwx0LvJE-x4wmH1x_8i0-174" target="lwx0LvJE-x4wmH1x_8i0-175" edge="1">
          <mxGeometry relative="1" as="geometry" />
        </mxCell>
        <mxCell id="lwx0LvJE-x4wmH1x_8i0-174" value="Backup Server" style="rounded=0;whiteSpace=wrap;html=1;labelBackgroundColor=#FFFFFF;strokeColor=#000000;fillColor=default;" parent="k85utWicbaK-2CsPMRpZ-1" vertex="1">
          <mxGeometry x="-202.5" y="520" width="120" height="60" as="geometry" />
        </mxCell>
        <mxCell id="lwx0LvJE-x4wmH1x_8i0-175" value="SAN&amp;nbsp; Fabric switch" style="rounded=0;whiteSpace=wrap;html=1;labelBackgroundColor=#FFFFFF;strokeColor=#000000;fillColor=default;" parent="k85utWicbaK-2CsPMRpZ-1" vertex="1">
          <mxGeometry x="-350" y="690" width="120" height="60" as="geometry" />
        </mxCell>
        <mxCell id="lwx0LvJE-x4wmH1x_8i0-176" style="edgeStyle=orthogonalEdgeStyle;rounded=0;orthogonalLoop=1;jettySize=auto;html=1;entryX=1;entryY=0.5;entryDx=0;entryDy=0;exitX=0.5;exitY=0;exitDx=0;exitDy=0;" parent="k85utWicbaK-2CsPMRpZ-1" source="lwx0LvJE-x4wmH1x_8i0-177" target="lwx0LvJE-x4wmH1x_8i0-174" edge="1">
          <mxGeometry relative="1" as="geometry" />
        </mxCell>
        <mxCell id="lwx0LvJE-x4wmH1x_8i0-177" value="ICS Storage" style="ellipse;whiteSpace=wrap;html=1;aspect=fixed;labelBackgroundColor=#FFFFFF;strokeColor=#000000;fillColor=default;rotation=0;" parent="k85utWicbaK-2CsPMRpZ-1" vertex="1">
          <mxGeometry x="-50" y="640" width="80" height="80" as="geometry" />
        </mxCell>
        <mxCell id="getGa0S9WeNUdmG6-dBY-270" style="edgeStyle=orthogonalEdgeStyle;rounded=0;orthogonalLoop=1;jettySize=auto;html=1;startArrow=none;startFill=0;endArrow=classic;endFill=1;entryX=0;entryY=0.917;entryDx=0;entryDy=0;entryPerimeter=0;" parent="k85utWicbaK-2CsPMRpZ-1" source="lwx0LvJE-x4wmH1x_8i0-180" target="getGa0S9WeNUdmG6-dBY-198" edge="1">
          <mxGeometry relative="1" as="geometry">
            <mxPoint x="640" y="370" as="targetPoint" />
          </mxGeometry>
        </mxCell>
        <mxCell id="lwx0LvJE-x4wmH1x_8i0-180" value="Standalone physical server" style="rounded=0;whiteSpace=wrap;html=1;" parent="k85utWicbaK-2CsPMRpZ-1" vertex="1">
          <mxGeometry x="297" y="385" width="106" height="60" as="geometry" />
        </mxCell>
        <mxCell id="getGa0S9WeNUdmG6-dBY-172" value="" style="edgeStyle=orthogonalEdgeStyle;rounded=0;orthogonalLoop=1;jettySize=auto;html=1;" parent="k85utWicbaK-2CsPMRpZ-1" source="getGa0S9WeNUdmG6-dBY-174" target="getGa0S9WeNUdmG6-dBY-178" edge="1">
          <mxGeometry relative="1" as="geometry" />
        </mxCell>
        <mxCell id="getGa0S9WeNUdmG6-dBY-173" style="edgeStyle=orthogonalEdgeStyle;rounded=0;orthogonalLoop=1;jettySize=auto;html=1;entryX=1;entryY=0.5;entryDx=0;entryDy=0;startArrow=none;startFill=0;endArrow=classic;endFill=1;" parent="k85utWicbaK-2CsPMRpZ-1" source="getGa0S9WeNUdmG6-dBY-174" target="getGa0S9WeNUdmG6-dBY-258" edge="1">
          <mxGeometry relative="1" as="geometry" />
        </mxCell>
        <mxCell id="getGa0S9WeNUdmG6-dBY-174" value="&lt;font style=&quot;font-size: 14px&quot;&gt;Vcenter&lt;/font&gt;" style="rounded=1;whiteSpace=wrap;html=1;" parent="k85utWicbaK-2CsPMRpZ-1" vertex="1">
          <mxGeometry x="840" y="20" width="120" height="60" as="geometry" />
        </mxCell>
        <mxCell id="getGa0S9WeNUdmG6-dBY-175" style="edgeStyle=orthogonalEdgeStyle;rounded=0;orthogonalLoop=1;jettySize=auto;html=1;entryX=0.5;entryY=0;entryDx=0;entryDy=0;startArrow=none;startFill=0;exitX=0.5;exitY=1;exitDx=0;exitDy=0;" parent="k85utWicbaK-2CsPMRpZ-1" source="getGa0S9WeNUdmG6-dBY-178" target="getGa0S9WeNUdmG6-dBY-203" edge="1">
          <mxGeometry relative="1" as="geometry">
            <Array as="points">
              <mxPoint x="900" y="240" />
              <mxPoint x="1134" y="240" />
            </Array>
          </mxGeometry>
        </mxCell>
        <mxCell id="getGa0S9WeNUdmG6-dBY-176" style="edgeStyle=orthogonalEdgeStyle;rounded=0;orthogonalLoop=1;jettySize=auto;html=1;entryX=0.5;entryY=0;entryDx=0;entryDy=0;startArrow=none;startFill=0;endArrow=classic;endFill=1;" parent="k85utWicbaK-2CsPMRpZ-1" source="getGa0S9WeNUdmG6-dBY-178" target="getGa0S9WeNUdmG6-dBY-200" edge="1">
          <mxGeometry relative="1" as="geometry" />
        </mxCell>
        <mxCell id="getGa0S9WeNUdmG6-dBY-177" style="edgeStyle=orthogonalEdgeStyle;rounded=0;orthogonalLoop=1;jettySize=auto;html=1;entryX=0.567;entryY=0.033;entryDx=0;entryDy=0;entryPerimeter=0;startArrow=none;startFill=0;endArrow=classic;endFill=1;exitX=0.5;exitY=1;exitDx=0;exitDy=0;" parent="k85utWicbaK-2CsPMRpZ-1" source="getGa0S9WeNUdmG6-dBY-178" target="getGa0S9WeNUdmG6-dBY-198" edge="1">
          <mxGeometry relative="1" as="geometry">
            <Array as="points">
              <mxPoint x="900" y="240" />
              <mxPoint x="668" y="240" />
            </Array>
          </mxGeometry>
        </mxCell>
        <mxCell id="getGa0S9WeNUdmG6-dBY-178" value="&lt;font style=&quot;font-size: 14px&quot;&gt;cluster&lt;/font&gt;" style="rounded=0;whiteSpace=wrap;html=1;" parent="k85utWicbaK-2CsPMRpZ-1" vertex="1">
          <mxGeometry x="840" y="140" width="120" height="60" as="geometry" />
        </mxCell>
        <mxCell id="getGa0S9WeNUdmG6-dBY-179" style="edgeStyle=orthogonalEdgeStyle;rounded=0;orthogonalLoop=1;jettySize=auto;html=1;entryX=1.008;entryY=0.367;entryDx=0;entryDy=0;entryPerimeter=0;fontSize=14;exitX=0.5;exitY=0;exitDx=0;exitDy=0;" parent="k85utWicbaK-2CsPMRpZ-1" source="getGa0S9WeNUdmG6-dBY-181" target="getGa0S9WeNUdmG6-dBY-174" edge="1">
          <mxGeometry relative="1" as="geometry" />
        </mxCell>
        <mxCell id="getGa0S9WeNUdmG6-dBY-180" style="edgeStyle=orthogonalEdgeStyle;rounded=0;orthogonalLoop=1;jettySize=auto;html=1;startArrow=none;startFill=0;endArrow=classic;endFill=1;" parent="k85utWicbaK-2CsPMRpZ-1" source="getGa0S9WeNUdmG6-dBY-181" target="getGa0S9WeNUdmG6-dBY-234" edge="1">
          <mxGeometry relative="1" as="geometry" />
        </mxCell>
        <mxCell id="getGa0S9WeNUdmG6-dBY-300" style="edgeStyle=orthogonalEdgeStyle;rounded=0;orthogonalLoop=1;jettySize=auto;html=1;startArrow=none;startFill=0;endArrow=classic;endFill=1;strokeColor=#000000;" parent="k85utWicbaK-2CsPMRpZ-1" source="getGa0S9WeNUdmG6-dBY-181" edge="1">
          <mxGeometry relative="1" as="geometry">
            <mxPoint x="1830" y="116.25" as="targetPoint" />
          </mxGeometry>
        </mxCell>
        <mxCell id="getGa0S9WeNUdmG6-dBY-181" value="&lt;font style=&quot;font-size: 14px&quot;&gt;Replication Appliance DC&lt;/font&gt;" style="shape=parallelogram;perimeter=parallelogramPerimeter;whiteSpace=wrap;html=1;fixedSize=1;" parent="k85utWicbaK-2CsPMRpZ-1" vertex="1">
          <mxGeometry x="1270" y="78.75" width="190" height="75" as="geometry" />
        </mxCell>
        <mxCell id="getGa0S9WeNUdmG6-dBY-182" style="edgeStyle=orthogonalEdgeStyle;rounded=0;orthogonalLoop=1;jettySize=auto;html=1;entryX=0.5;entryY=0;entryDx=0;entryDy=0;dashed=1;" parent="k85utWicbaK-2CsPMRpZ-1" source="getGa0S9WeNUdmG6-dBY-183" target="getGa0S9WeNUdmG6-dBY-184" edge="1">
          <mxGeometry relative="1" as="geometry" />
        </mxCell>
        <mxCell id="getGa0S9WeNUdmG6-dBY-183" value="One" style="text;html=1;strokeColor=none;fillColor=none;align=center;verticalAlign=middle;whiteSpace=wrap;rounded=0;" parent="k85utWicbaK-2CsPMRpZ-1" vertex="1">
          <mxGeometry x="850" y="80" width="60" height="15" as="geometry" />
        </mxCell>
        <mxCell id="getGa0S9WeNUdmG6-dBY-184" value="Many" style="text;html=1;strokeColor=none;fillColor=none;align=center;verticalAlign=middle;whiteSpace=wrap;rounded=0;" parent="k85utWicbaK-2CsPMRpZ-1" vertex="1">
          <mxGeometry x="850" y="120" width="60" height="20" as="geometry" />
        </mxCell>
        <mxCell id="getGa0S9WeNUdmG6-dBY-185" style="edgeStyle=orthogonalEdgeStyle;rounded=0;orthogonalLoop=1;jettySize=auto;html=1;entryX=0.5;entryY=1;entryDx=0;entryDy=0;dashed=1;" parent="k85utWicbaK-2CsPMRpZ-1" source="getGa0S9WeNUdmG6-dBY-186" target="getGa0S9WeNUdmG6-dBY-187" edge="1">
          <mxGeometry relative="1" as="geometry" />
        </mxCell>
        <mxCell id="getGa0S9WeNUdmG6-dBY-186" value="One" style="text;html=1;strokeColor=none;fillColor=none;align=center;verticalAlign=middle;whiteSpace=wrap;rounded=0;" parent="k85utWicbaK-2CsPMRpZ-1" vertex="1">
          <mxGeometry x="890" y="122.5" width="60" height="15" as="geometry" />
        </mxCell>
        <mxCell id="getGa0S9WeNUdmG6-dBY-187" value="One" style="text;html=1;strokeColor=none;fillColor=none;align=center;verticalAlign=middle;whiteSpace=wrap;rounded=0;" parent="k85utWicbaK-2CsPMRpZ-1" vertex="1">
          <mxGeometry x="890" y="78.75" width="60" height="17.5" as="geometry" />
        </mxCell>
        <mxCell id="getGa0S9WeNUdmG6-dBY-188" style="edgeStyle=orthogonalEdgeStyle;rounded=0;orthogonalLoop=1;jettySize=auto;html=1;entryX=0.5;entryY=0;entryDx=0;entryDy=0;startArrow=none;startFill=0;endArrow=classic;endFill=1;dashed=1;" parent="k85utWicbaK-2CsPMRpZ-1" source="getGa0S9WeNUdmG6-dBY-189" target="getGa0S9WeNUdmG6-dBY-225" edge="1">
          <mxGeometry relative="1" as="geometry" />
        </mxCell>
        <mxCell id="getGa0S9WeNUdmG6-dBY-189" value="One" style="text;html=1;strokeColor=none;fillColor=none;align=center;verticalAlign=middle;whiteSpace=wrap;rounded=0;" parent="k85utWicbaK-2CsPMRpZ-1" vertex="1">
          <mxGeometry x="940" y="200" width="40" height="20" as="geometry" />
        </mxCell>
        <mxCell id="getGa0S9WeNUdmG6-dBY-190" value="Many" style="text;html=1;strokeColor=none;fillColor=none;align=center;verticalAlign=middle;whiteSpace=wrap;rounded=0;fontSize=14;" parent="k85utWicbaK-2CsPMRpZ-1" vertex="1">
          <mxGeometry x="960" y="48.75" width="40" height="11.25" as="geometry" />
        </mxCell>
        <mxCell id="getGa0S9WeNUdmG6-dBY-191" style="edgeStyle=orthogonalEdgeStyle;rounded=0;orthogonalLoop=1;jettySize=auto;html=1;entryX=1;entryY=0.5;entryDx=0;entryDy=0;dashed=1;fontSize=14;" parent="k85utWicbaK-2CsPMRpZ-1" source="getGa0S9WeNUdmG6-dBY-192" target="getGa0S9WeNUdmG6-dBY-190" edge="1">
          <mxGeometry relative="1" as="geometry" />
        </mxCell>
        <mxCell id="getGa0S9WeNUdmG6-dBY-192" value="One" style="text;html=1;strokeColor=none;fillColor=none;align=center;verticalAlign=middle;whiteSpace=wrap;rounded=0;fontSize=14;" parent="k85utWicbaK-2CsPMRpZ-1" vertex="1">
          <mxGeometry x="1220" y="48.75" width="40" height="11.25" as="geometry" />
        </mxCell>
        <mxCell id="getGa0S9WeNUdmG6-dBY-193" value="One" style="text;html=1;strokeColor=none;fillColor=none;align=center;verticalAlign=middle;whiteSpace=wrap;rounded=0;fontSize=14;" parent="k85utWicbaK-2CsPMRpZ-1" vertex="1">
          <mxGeometry x="1220" y="20" width="40" height="11.25" as="geometry" />
        </mxCell>
        <mxCell id="getGa0S9WeNUdmG6-dBY-194" style="edgeStyle=orthogonalEdgeStyle;rounded=0;orthogonalLoop=1;jettySize=auto;html=1;entryX=0;entryY=0.5;entryDx=0;entryDy=0;dashed=1;fontSize=14;" parent="k85utWicbaK-2CsPMRpZ-1" source="getGa0S9WeNUdmG6-dBY-195" target="getGa0S9WeNUdmG6-dBY-193" edge="1">
          <mxGeometry relative="1" as="geometry" />
        </mxCell>
        <mxCell id="getGa0S9WeNUdmG6-dBY-195" value="One" style="text;html=1;strokeColor=none;fillColor=none;align=center;verticalAlign=middle;whiteSpace=wrap;rounded=0;fontSize=14;" parent="k85utWicbaK-2CsPMRpZ-1" vertex="1">
          <mxGeometry x="960" y="20" width="40" height="11.25" as="geometry" />
        </mxCell>
        <mxCell id="getGa0S9WeNUdmG6-dBY-196" style="edgeStyle=orthogonalEdgeStyle;rounded=0;orthogonalLoop=1;jettySize=auto;html=1;startArrow=none;startFill=0;endArrow=classic;endFill=1;" parent="k85utWicbaK-2CsPMRpZ-1" source="getGa0S9WeNUdmG6-dBY-198" target="getGa0S9WeNUdmG6-dBY-200" edge="1">
          <mxGeometry relative="1" as="geometry" />
        </mxCell>
        <mxCell id="getGa0S9WeNUdmG6-dBY-197" style="edgeStyle=orthogonalEdgeStyle;rounded=0;orthogonalLoop=1;jettySize=auto;html=1;entryX=0.5;entryY=1;entryDx=0;entryDy=0;startArrow=none;startFill=0;endArrow=classic;endFill=1;exitX=0.5;exitY=1;exitDx=0;exitDy=0;" parent="k85utWicbaK-2CsPMRpZ-1" source="getGa0S9WeNUdmG6-dBY-198" target="getGa0S9WeNUdmG6-dBY-203" edge="1">
          <mxGeometry relative="1" as="geometry">
            <Array as="points">
              <mxPoint x="660" y="430" />
              <mxPoint x="1134" y="430" />
            </Array>
          </mxGeometry>
        </mxCell>
        <mxCell id="getGa0S9WeNUdmG6-dBY-198" value="&lt;font style=&quot;font-size: 14px&quot;&gt;ESXi Hosts&lt;/font&gt;" style="rounded=0;whiteSpace=wrap;html=1;" parent="k85utWicbaK-2CsPMRpZ-1" vertex="1">
          <mxGeometry x="600" y="325" width="120" height="60" as="geometry" />
        </mxCell>
        <mxCell id="getGa0S9WeNUdmG6-dBY-199" style="edgeStyle=orthogonalEdgeStyle;rounded=0;orthogonalLoop=1;jettySize=auto;html=1;entryX=0;entryY=0.5;entryDx=0;entryDy=0;startArrow=none;startFill=0;endArrow=classic;endFill=1;" parent="k85utWicbaK-2CsPMRpZ-1" source="getGa0S9WeNUdmG6-dBY-200" target="getGa0S9WeNUdmG6-dBY-203" edge="1">
          <mxGeometry relative="1" as="geometry" />
        </mxCell>
        <mxCell id="getGa0S9WeNUdmG6-dBY-200" value="&lt;font style=&quot;font-size: 14px&quot;&gt;Datastore&lt;/font&gt;" style="rounded=0;whiteSpace=wrap;html=1;" parent="k85utWicbaK-2CsPMRpZ-1" vertex="1">
          <mxGeometry x="840" y="325" width="120" height="60" as="geometry" />
        </mxCell>
        <mxCell id="getGa0S9WeNUdmG6-dBY-329" style="edgeStyle=orthogonalEdgeStyle;rounded=0;orthogonalLoop=1;jettySize=auto;html=1;entryX=0.476;entryY=-0.006;entryDx=0;entryDy=0;entryPerimeter=0;startArrow=none;startFill=0;endArrow=classic;endFill=1;strokeColor=#000000;" parent="k85utWicbaK-2CsPMRpZ-1" source="getGa0S9WeNUdmG6-dBY-203" target="getGa0S9WeNUdmG6-dBY-321" edge="1">
          <mxGeometry relative="1" as="geometry" />
        </mxCell>
        <mxCell id="getGa0S9WeNUdmG6-dBY-360" style="edgeStyle=orthogonalEdgeStyle;rounded=0;orthogonalLoop=1;jettySize=auto;html=1;startArrow=none;startFill=0;endArrow=classic;endFill=1;strokeColor=#000000;exitX=0.5;exitY=1;exitDx=0;exitDy=0;" parent="k85utWicbaK-2CsPMRpZ-1" source="getGa0S9WeNUdmG6-dBY-203" target="getGa0S9WeNUdmG6-dBY-350" edge="1">
          <mxGeometry relative="1" as="geometry" />
        </mxCell>
        <mxCell id="getGa0S9WeNUdmG6-dBY-203" value="VM" style="rounded=0;whiteSpace=wrap;html=1;" parent="k85utWicbaK-2CsPMRpZ-1" vertex="1">
          <mxGeometry x="1098" y="325" width="71" height="60" as="geometry" />
        </mxCell>
        <mxCell id="getGa0S9WeNUdmG6-dBY-204" style="edgeStyle=orthogonalEdgeStyle;rounded=0;orthogonalLoop=1;jettySize=auto;html=1;startArrow=none;startFill=0;endArrow=classic;endFill=1;dashed=1;" parent="k85utWicbaK-2CsPMRpZ-1" source="getGa0S9WeNUdmG6-dBY-205" target="getGa0S9WeNUdmG6-dBY-206" edge="1">
          <mxGeometry relative="1" as="geometry" />
        </mxCell>
        <mxCell id="getGa0S9WeNUdmG6-dBY-205" value="One" style="text;html=1;strokeColor=none;fillColor=none;align=center;verticalAlign=middle;whiteSpace=wrap;rounded=0;" parent="k85utWicbaK-2CsPMRpZ-1" vertex="1">
          <mxGeometry x="800" y="200.6300000000001" width="60" height="15" as="geometry" />
        </mxCell>
        <mxCell id="getGa0S9WeNUdmG6-dBY-206" value="Many" style="text;html=1;strokeColor=none;fillColor=none;align=center;verticalAlign=middle;whiteSpace=wrap;rounded=0;" parent="k85utWicbaK-2CsPMRpZ-1" vertex="1">
          <mxGeometry x="600" y="305" width="60" height="20" as="geometry" />
        </mxCell>
        <mxCell id="getGa0S9WeNUdmG6-dBY-207" style="edgeStyle=orthogonalEdgeStyle;rounded=0;orthogonalLoop=1;jettySize=auto;html=1;entryX=0;entryY=0.75;entryDx=0;entryDy=0;dashed=1;startArrow=none;startFill=0;endArrow=classic;endFill=1;exitX=0.5;exitY=0;exitDx=0;exitDy=0;" parent="k85utWicbaK-2CsPMRpZ-1" source="getGa0S9WeNUdmG6-dBY-208" target="getGa0S9WeNUdmG6-dBY-209" edge="1">
          <mxGeometry relative="1" as="geometry" />
        </mxCell>
        <mxCell id="getGa0S9WeNUdmG6-dBY-208" value="One" style="text;html=1;strokeColor=none;fillColor=none;align=center;verticalAlign=middle;whiteSpace=wrap;rounded=0;" parent="k85utWicbaK-2CsPMRpZ-1" vertex="1">
          <mxGeometry x="550" y="335" width="60" height="20" as="geometry" />
        </mxCell>
        <mxCell id="getGa0S9WeNUdmG6-dBY-209" value="One" style="text;html=1;strokeColor=none;fillColor=none;align=center;verticalAlign=middle;whiteSpace=wrap;rounded=0;" parent="k85utWicbaK-2CsPMRpZ-1" vertex="1">
          <mxGeometry x="800" y="170" width="60" height="20" as="geometry" />
        </mxCell>
        <mxCell id="getGa0S9WeNUdmG6-dBY-210" style="edgeStyle=orthogonalEdgeStyle;rounded=0;orthogonalLoop=1;jettySize=auto;html=1;entryX=0.5;entryY=0;entryDx=0;entryDy=0;dashed=1;startArrow=none;startFill=0;endArrow=classic;endFill=1;" parent="k85utWicbaK-2CsPMRpZ-1" source="getGa0S9WeNUdmG6-dBY-211" target="getGa0S9WeNUdmG6-dBY-212" edge="1">
          <mxGeometry relative="1" as="geometry" />
        </mxCell>
        <mxCell id="getGa0S9WeNUdmG6-dBY-211" value="One" style="text;html=1;strokeColor=none;fillColor=none;align=center;verticalAlign=middle;whiteSpace=wrap;rounded=0;" parent="k85utWicbaK-2CsPMRpZ-1" vertex="1">
          <mxGeometry x="850" y="200.6300000000001" width="60" height="15" as="geometry" />
        </mxCell>
        <mxCell id="getGa0S9WeNUdmG6-dBY-212" value="Many" style="text;html=1;strokeColor=none;fillColor=none;align=center;verticalAlign=middle;whiteSpace=wrap;rounded=0;" parent="k85utWicbaK-2CsPMRpZ-1" vertex="1">
          <mxGeometry x="850" y="305" width="60" height="15" as="geometry" />
        </mxCell>
        <mxCell id="getGa0S9WeNUdmG6-dBY-213" style="edgeStyle=orthogonalEdgeStyle;rounded=0;orthogonalLoop=1;jettySize=auto;html=1;entryX=0;entryY=0.5;entryDx=0;entryDy=0;dashed=1;startArrow=none;startFill=0;endArrow=classic;endFill=1;" parent="k85utWicbaK-2CsPMRpZ-1" source="getGa0S9WeNUdmG6-dBY-214" target="getGa0S9WeNUdmG6-dBY-215" edge="1">
          <mxGeometry relative="1" as="geometry" />
        </mxCell>
        <mxCell id="getGa0S9WeNUdmG6-dBY-214" value="One" style="text;html=1;strokeColor=none;fillColor=none;align=center;verticalAlign=middle;whiteSpace=wrap;rounded=0;" parent="k85utWicbaK-2CsPMRpZ-1" vertex="1">
          <mxGeometry x="720" y="325" width="40" height="20" as="geometry" />
        </mxCell>
        <mxCell id="getGa0S9WeNUdmG6-dBY-215" value="Many" style="text;html=1;strokeColor=none;fillColor=none;align=center;verticalAlign=middle;whiteSpace=wrap;rounded=0;" parent="k85utWicbaK-2CsPMRpZ-1" vertex="1">
          <mxGeometry x="800" y="325" width="40" height="20" as="geometry" />
        </mxCell>
        <mxCell id="getGa0S9WeNUdmG6-dBY-216" style="edgeStyle=orthogonalEdgeStyle;rounded=0;orthogonalLoop=1;jettySize=auto;html=1;entryX=1;entryY=0.5;entryDx=0;entryDy=0;dashed=1;startArrow=none;startFill=0;endArrow=classic;endFill=1;" parent="k85utWicbaK-2CsPMRpZ-1" source="getGa0S9WeNUdmG6-dBY-217" target="getGa0S9WeNUdmG6-dBY-218" edge="1">
          <mxGeometry relative="1" as="geometry" />
        </mxCell>
        <mxCell id="getGa0S9WeNUdmG6-dBY-217" value="One" style="text;html=1;strokeColor=none;fillColor=none;align=center;verticalAlign=middle;whiteSpace=wrap;rounded=0;" parent="k85utWicbaK-2CsPMRpZ-1" vertex="1">
          <mxGeometry x="800" y="365" width="40" height="20" as="geometry" />
        </mxCell>
        <mxCell id="getGa0S9WeNUdmG6-dBY-218" value="Many" style="text;html=1;strokeColor=none;fillColor=none;align=center;verticalAlign=middle;whiteSpace=wrap;rounded=0;" parent="k85utWicbaK-2CsPMRpZ-1" vertex="1">
          <mxGeometry x="720" y="365" width="40" height="20" as="geometry" />
        </mxCell>
        <mxCell id="getGa0S9WeNUdmG6-dBY-219" style="edgeStyle=orthogonalEdgeStyle;rounded=0;orthogonalLoop=1;jettySize=auto;html=1;entryX=0;entryY=0.5;entryDx=0;entryDy=0;dashed=1;startArrow=none;startFill=0;endArrow=classic;endFill=1;" parent="k85utWicbaK-2CsPMRpZ-1" source="getGa0S9WeNUdmG6-dBY-220" target="getGa0S9WeNUdmG6-dBY-221" edge="1">
          <mxGeometry relative="1" as="geometry" />
        </mxCell>
        <mxCell id="getGa0S9WeNUdmG6-dBY-220" value="Many" style="text;html=1;strokeColor=none;fillColor=none;align=center;verticalAlign=middle;whiteSpace=wrap;rounded=0;" parent="k85utWicbaK-2CsPMRpZ-1" vertex="1">
          <mxGeometry x="960" y="335" width="40" height="20" as="geometry" />
        </mxCell>
        <mxCell id="getGa0S9WeNUdmG6-dBY-221" value="Many" style="text;html=1;strokeColor=none;fillColor=none;align=center;verticalAlign=middle;whiteSpace=wrap;rounded=0;" parent="k85utWicbaK-2CsPMRpZ-1" vertex="1">
          <mxGeometry x="1050" y="335" width="40" height="20" as="geometry" />
        </mxCell>
        <mxCell id="getGa0S9WeNUdmG6-dBY-222" style="edgeStyle=orthogonalEdgeStyle;rounded=0;orthogonalLoop=1;jettySize=auto;html=1;entryX=1;entryY=0.5;entryDx=0;entryDy=0;dashed=1;startArrow=none;startFill=0;endArrow=classic;endFill=1;" parent="k85utWicbaK-2CsPMRpZ-1" source="getGa0S9WeNUdmG6-dBY-223" target="getGa0S9WeNUdmG6-dBY-224" edge="1">
          <mxGeometry relative="1" as="geometry" />
        </mxCell>
        <mxCell id="getGa0S9WeNUdmG6-dBY-223" value="One" style="text;html=1;strokeColor=none;fillColor=none;align=center;verticalAlign=middle;whiteSpace=wrap;rounded=0;" parent="k85utWicbaK-2CsPMRpZ-1" vertex="1">
          <mxGeometry x="1050" y="365" width="40" height="20" as="geometry" />
        </mxCell>
        <mxCell id="getGa0S9WeNUdmG6-dBY-224" value="Many" style="text;html=1;strokeColor=none;fillColor=none;align=center;verticalAlign=middle;whiteSpace=wrap;rounded=0;" parent="k85utWicbaK-2CsPMRpZ-1" vertex="1">
          <mxGeometry x="960" y="365" width="40" height="20" as="geometry" />
        </mxCell>
        <mxCell id="getGa0S9WeNUdmG6-dBY-225" value="Many" style="text;html=1;strokeColor=none;fillColor=none;align=center;verticalAlign=middle;whiteSpace=wrap;rounded=0;" parent="k85utWicbaK-2CsPMRpZ-1" vertex="1">
          <mxGeometry x="1140" y="300" width="40" height="20" as="geometry" />
        </mxCell>
        <mxCell id="getGa0S9WeNUdmG6-dBY-226" style="edgeStyle=orthogonalEdgeStyle;rounded=0;orthogonalLoop=1;jettySize=auto;html=1;entryX=1;entryY=0.5;entryDx=0;entryDy=0;dashed=1;startArrow=none;startFill=0;endArrow=classic;endFill=1;exitX=0.5;exitY=0;exitDx=0;exitDy=0;" parent="k85utWicbaK-2CsPMRpZ-1" source="getGa0S9WeNUdmG6-dBY-228" target="getGa0S9WeNUdmG6-dBY-229" edge="1">
          <mxGeometry relative="1" as="geometry" />
        </mxCell>
        <mxCell id="getGa0S9WeNUdmG6-dBY-227" style="edgeStyle=orthogonalEdgeStyle;rounded=0;orthogonalLoop=1;jettySize=auto;html=1;entryX=0;entryY=0.5;entryDx=0;entryDy=0;dashed=1;startArrow=none;startFill=0;endArrow=classic;endFill=1;" parent="k85utWicbaK-2CsPMRpZ-1" source="getGa0S9WeNUdmG6-dBY-228" target="getGa0S9WeNUdmG6-dBY-246" edge="1">
          <mxGeometry relative="1" as="geometry">
            <Array as="points">
              <mxPoint x="1250" y="345" />
              <mxPoint x="1250" y="380" />
            </Array>
          </mxGeometry>
        </mxCell>
        <mxCell id="getGa0S9WeNUdmG6-dBY-228" value="One" style="text;html=1;strokeColor=none;fillColor=none;align=center;verticalAlign=middle;whiteSpace=wrap;rounded=0;" parent="k85utWicbaK-2CsPMRpZ-1" vertex="1">
          <mxGeometry x="1169" y="335" width="40" height="20" as="geometry" />
        </mxCell>
        <mxCell id="getGa0S9WeNUdmG6-dBY-229" value="One" style="text;html=1;strokeColor=none;fillColor=none;align=center;verticalAlign=middle;whiteSpace=wrap;rounded=0;" parent="k85utWicbaK-2CsPMRpZ-1" vertex="1">
          <mxGeometry x="960" y="170" width="40" height="20" as="geometry" />
        </mxCell>
        <mxCell id="getGa0S9WeNUdmG6-dBY-231" value="&lt;font style=&quot;font-size: 14px&quot;&gt;Middleware/App&lt;/font&gt;" style="shape=process;whiteSpace=wrap;html=1;backgroundOutline=1;" parent="k85utWicbaK-2CsPMRpZ-1" vertex="1">
          <mxGeometry x="1347" y="730" width="140" height="60" as="geometry" />
        </mxCell>
        <mxCell id="getGa0S9WeNUdmG6-dBY-232" value="" style="edgeStyle=orthogonalEdgeStyle;rounded=0;orthogonalLoop=1;jettySize=auto;html=1;fontSize=13;" parent="k85utWicbaK-2CsPMRpZ-1" source="getGa0S9WeNUdmG6-dBY-234" target="getGa0S9WeNUdmG6-dBY-242" edge="1">
          <mxGeometry relative="1" as="geometry" />
        </mxCell>
        <mxCell id="getGa0S9WeNUdmG6-dBY-233" style="edgeStyle=orthogonalEdgeStyle;rounded=0;orthogonalLoop=1;jettySize=auto;html=1;entryX=0.75;entryY=0;entryDx=0;entryDy=0;startArrow=none;startFill=0;endArrow=classic;endFill=1;" parent="k85utWicbaK-2CsPMRpZ-1" source="getGa0S9WeNUdmG6-dBY-234" target="getGa0S9WeNUdmG6-dBY-198" edge="1">
          <mxGeometry relative="1" as="geometry" />
        </mxCell>
        <mxCell id="getGa0S9WeNUdmG6-dBY-234" value="&lt;font style=&quot;font-size: 14px&quot;&gt;zerto VRA m/c&lt;/font&gt;" style="rounded=0;whiteSpace=wrap;html=1;" parent="k85utWicbaK-2CsPMRpZ-1" vertex="1">
          <mxGeometry x="1305" y="250" width="120" height="30" as="geometry" />
        </mxCell>
        <mxCell id="getGa0S9WeNUdmG6-dBY-235" style="edgeStyle=orthogonalEdgeStyle;rounded=0;orthogonalLoop=1;jettySize=auto;html=1;entryX=0.5;entryY=0;entryDx=0;entryDy=0;fontSize=13;dashed=1;" parent="k85utWicbaK-2CsPMRpZ-1" source="getGa0S9WeNUdmG6-dBY-236" target="getGa0S9WeNUdmG6-dBY-237" edge="1">
          <mxGeometry relative="1" as="geometry" />
        </mxCell>
        <mxCell id="getGa0S9WeNUdmG6-dBY-236" value="One" style="text;html=1;strokeColor=none;fillColor=none;align=center;verticalAlign=middle;whiteSpace=wrap;rounded=0;fontSize=14;" parent="k85utWicbaK-2CsPMRpZ-1" vertex="1">
          <mxGeometry x="1320" y="164.3800000000001" width="40" height="11.25" as="geometry" />
        </mxCell>
        <mxCell id="getGa0S9WeNUdmG6-dBY-237" value="Many" style="text;html=1;strokeColor=none;fillColor=none;align=center;verticalAlign=middle;whiteSpace=wrap;rounded=0;fontSize=14;" parent="k85utWicbaK-2CsPMRpZ-1" vertex="1">
          <mxGeometry x="1320" y="228" width="40" height="11.25" as="geometry" />
        </mxCell>
        <mxCell id="getGa0S9WeNUdmG6-dBY-238" value="One" style="text;html=1;strokeColor=none;fillColor=none;align=center;verticalAlign=middle;whiteSpace=wrap;rounded=0;fontSize=14;" parent="k85utWicbaK-2CsPMRpZ-1" vertex="1">
          <mxGeometry x="1370" y="164.3699999999999" width="40" height="11.25" as="geometry" />
        </mxCell>
        <mxCell id="getGa0S9WeNUdmG6-dBY-239" style="edgeStyle=orthogonalEdgeStyle;rounded=0;orthogonalLoop=1;jettySize=auto;html=1;entryX=0.5;entryY=1;entryDx=0;entryDy=0;dashed=1;fontSize=13;" parent="k85utWicbaK-2CsPMRpZ-1" source="getGa0S9WeNUdmG6-dBY-240" target="getGa0S9WeNUdmG6-dBY-238" edge="1">
          <mxGeometry relative="1" as="geometry" />
        </mxCell>
        <mxCell id="getGa0S9WeNUdmG6-dBY-240" value="One" style="text;html=1;strokeColor=none;fillColor=none;align=center;verticalAlign=middle;whiteSpace=wrap;rounded=0;fontSize=14;" parent="k85utWicbaK-2CsPMRpZ-1" vertex="1">
          <mxGeometry x="1370" y="228" width="40" height="11.25" as="geometry" />
        </mxCell>
        <mxCell id="getGa0S9WeNUdmG6-dBY-241" style="edgeStyle=orthogonalEdgeStyle;rounded=0;orthogonalLoop=1;jettySize=auto;html=1;entryX=1.006;entryY=0.55;entryDx=0;entryDy=0;entryPerimeter=0;startArrow=none;startFill=0;endArrow=classic;endFill=1;" parent="k85utWicbaK-2CsPMRpZ-1" source="getGa0S9WeNUdmG6-dBY-242" target="getGa0S9WeNUdmG6-dBY-203" edge="1">
          <mxGeometry relative="1" as="geometry" />
        </mxCell>
        <mxCell id="getGa0S9WeNUdmG6-dBY-242" value="Protection Group" style="ellipse;whiteSpace=wrap;html=1;fontSize=13;" parent="k85utWicbaK-2CsPMRpZ-1" vertex="1">
          <mxGeometry x="1305" y="365" width="120" height="50" as="geometry" />
        </mxCell>
        <mxCell id="getGa0S9WeNUdmG6-dBY-243" value="Many" style="text;html=1;align=center;verticalAlign=middle;whiteSpace=wrap;rounded=0;fontSize=13;" parent="k85utWicbaK-2CsPMRpZ-1" vertex="1">
          <mxGeometry x="1320" y="355" width="40" height="10" as="geometry" />
        </mxCell>
        <mxCell id="getGa0S9WeNUdmG6-dBY-244" style="edgeStyle=orthogonalEdgeStyle;rounded=0;orthogonalLoop=1;jettySize=auto;html=1;entryX=0.5;entryY=0;entryDx=0;entryDy=0;fontSize=13;dashed=1;" parent="k85utWicbaK-2CsPMRpZ-1" source="getGa0S9WeNUdmG6-dBY-245" target="getGa0S9WeNUdmG6-dBY-243" edge="1">
          <mxGeometry relative="1" as="geometry" />
        </mxCell>
        <mxCell id="getGa0S9WeNUdmG6-dBY-245" value="One" style="text;html=1;align=center;verticalAlign=middle;whiteSpace=wrap;rounded=0;fontSize=13;" parent="k85utWicbaK-2CsPMRpZ-1" vertex="1">
          <mxGeometry x="1320" y="280" width="40" height="20" as="geometry" />
        </mxCell>
        <mxCell id="getGa0S9WeNUdmG6-dBY-246" value="One" style="text;html=1;align=center;verticalAlign=middle;whiteSpace=wrap;rounded=0;fontSize=13;" parent="k85utWicbaK-2CsPMRpZ-1" vertex="1">
          <mxGeometry x="1265" y="375" width="40" height="10" as="geometry" />
        </mxCell>
        <mxCell id="getGa0S9WeNUdmG6-dBY-247" value="Text" style="text;html=1;strokeColor=#b85450;fillColor=#f8cecc;align=center;verticalAlign=middle;whiteSpace=wrap;rounded=0;fontSize=13;" parent="k85utWicbaK-2CsPMRpZ-1" vertex="1">
          <mxGeometry x="1370" y="285" width="40" height="20" as="geometry" />
        </mxCell>
        <mxCell id="getGa0S9WeNUdmG6-dBY-248" style="edgeStyle=orthogonalEdgeStyle;rounded=0;orthogonalLoop=1;jettySize=auto;html=1;entryX=0.5;entryY=1;entryDx=0;entryDy=0;dashed=1;fontSize=13;" parent="k85utWicbaK-2CsPMRpZ-1" source="getGa0S9WeNUdmG6-dBY-249" target="getGa0S9WeNUdmG6-dBY-247" edge="1">
          <mxGeometry relative="1" as="geometry" />
        </mxCell>
        <mxCell id="getGa0S9WeNUdmG6-dBY-249" value="Text" style="text;html=1;strokeColor=#b85450;fillColor=#f8cecc;align=center;verticalAlign=middle;whiteSpace=wrap;rounded=0;fontSize=13;" parent="k85utWicbaK-2CsPMRpZ-1" vertex="1">
          <mxGeometry x="1370" y="355" width="40" height="10" as="geometry" />
        </mxCell>
        <mxCell id="getGa0S9WeNUdmG6-dBY-250" value="Many" style="text;html=1;strokeColor=none;fillColor=none;align=center;verticalAlign=middle;whiteSpace=wrap;rounded=0;" parent="k85utWicbaK-2CsPMRpZ-1" vertex="1">
          <mxGeometry x="890" y="200.6300000000001" width="60" height="15" as="geometry" />
        </mxCell>
        <mxCell id="getGa0S9WeNUdmG6-dBY-251" style="edgeStyle=orthogonalEdgeStyle;rounded=0;orthogonalLoop=1;jettySize=auto;html=1;entryX=0.5;entryY=1;entryDx=0;entryDy=0;startArrow=none;startFill=0;endArrow=classic;endFill=1;dashed=1;" parent="k85utWicbaK-2CsPMRpZ-1" source="getGa0S9WeNUdmG6-dBY-252" target="getGa0S9WeNUdmG6-dBY-250" edge="1">
          <mxGeometry relative="1" as="geometry" />
        </mxCell>
        <mxCell id="getGa0S9WeNUdmG6-dBY-252" value="One" style="text;html=1;strokeColor=none;fillColor=none;align=center;verticalAlign=middle;whiteSpace=wrap;rounded=0;" parent="k85utWicbaK-2CsPMRpZ-1" vertex="1">
          <mxGeometry x="905" y="305" width="30" height="15" as="geometry" />
        </mxCell>
        <mxCell id="getGa0S9WeNUdmG6-dBY-253" style="edgeStyle=orthogonalEdgeStyle;rounded=0;orthogonalLoop=1;jettySize=auto;html=1;entryX=0.5;entryY=1;entryDx=0;entryDy=0;startArrow=classic;startFill=1;endArrow=classic;endFill=1;exitX=0.5;exitY=1;exitDx=0;exitDy=0;dashed=1;" parent="k85utWicbaK-2CsPMRpZ-1" source="getGa0S9WeNUdmG6-dBY-254" target="getGa0S9WeNUdmG6-dBY-255" edge="1">
          <mxGeometry relative="1" as="geometry">
            <Array as="points">
              <mxPoint x="630" y="440" />
              <mxPoint x="1160" y="440" />
            </Array>
          </mxGeometry>
        </mxCell>
        <mxCell id="getGa0S9WeNUdmG6-dBY-254" value="One" style="text;html=1;strokeColor=none;fillColor=none;align=center;verticalAlign=middle;whiteSpace=wrap;rounded=0;" parent="k85utWicbaK-2CsPMRpZ-1" vertex="1">
          <mxGeometry x="610" y="385" width="40" height="20" as="geometry" />
        </mxCell>
        <mxCell id="getGa0S9WeNUdmG6-dBY-255" value="Many" style="text;html=1;strokeColor=none;fillColor=none;align=center;verticalAlign=middle;whiteSpace=wrap;rounded=0;" parent="k85utWicbaK-2CsPMRpZ-1" vertex="1">
          <mxGeometry x="1140" y="385" width="40" height="20" as="geometry" />
        </mxCell>
        <mxCell id="getGa0S9WeNUdmG6-dBY-256" style="edgeStyle=orthogonalEdgeStyle;rounded=0;orthogonalLoop=1;jettySize=auto;html=1;entryX=0;entryY=0.5;entryDx=0;entryDy=0;startArrow=none;startFill=0;endArrow=classic;endFill=1;exitX=0.5;exitY=1;exitDx=0;exitDy=0;" parent="k85utWicbaK-2CsPMRpZ-1" source="getGa0S9WeNUdmG6-dBY-257" target="getGa0S9WeNUdmG6-dBY-198" edge="1">
          <mxGeometry relative="1" as="geometry" />
        </mxCell>
        <mxCell id="getGa0S9WeNUdmG6-dBY-257" value="&lt;font style=&quot;font-size: 14px&quot;&gt;Std Switch&lt;/font&gt;" style="rounded=0;whiteSpace=wrap;html=1;" parent="k85utWicbaK-2CsPMRpZ-1" vertex="1">
          <mxGeometry x="520" y="25" width="60" height="50" as="geometry" />
        </mxCell>
        <mxCell id="getGa0S9WeNUdmG6-dBY-258" value="DV switch" style="rounded=0;whiteSpace=wrap;html=1;" parent="k85utWicbaK-2CsPMRpZ-1" vertex="1">
          <mxGeometry x="580" y="25" width="60" height="50" as="geometry" />
        </mxCell>
        <mxCell id="getGa0S9WeNUdmG6-dBY-259" style="edgeStyle=orthogonalEdgeStyle;rounded=0;orthogonalLoop=1;jettySize=auto;html=1;startArrow=classic;startFill=1;endArrow=classic;endFill=1;dashed=1;" parent="k85utWicbaK-2CsPMRpZ-1" source="getGa0S9WeNUdmG6-dBY-260" target="getGa0S9WeNUdmG6-dBY-261" edge="1">
          <mxGeometry relative="1" as="geometry" />
        </mxCell>
        <mxCell id="getGa0S9WeNUdmG6-dBY-260" value="One" style="text;html=1;strokeColor=none;fillColor=none;align=center;verticalAlign=middle;whiteSpace=wrap;rounded=0;" parent="k85utWicbaK-2CsPMRpZ-1" vertex="1">
          <mxGeometry x="680" y="250" width="40" height="15" as="geometry" />
        </mxCell>
        <mxCell id="getGa0S9WeNUdmG6-dBY-261" value="One" style="text;html=1;strokeColor=none;fillColor=none;align=center;verticalAlign=middle;whiteSpace=wrap;rounded=0;" parent="k85utWicbaK-2CsPMRpZ-1" vertex="1">
          <mxGeometry x="1265" y="250" width="40" height="15" as="geometry" />
        </mxCell>
        <mxCell id="getGa0S9WeNUdmG6-dBY-262" style="edgeStyle=orthogonalEdgeStyle;rounded=0;orthogonalLoop=1;jettySize=auto;html=1;entryX=1;entryY=0.75;entryDx=0;entryDy=0;startArrow=none;startFill=0;endArrow=classic;endFill=1;dashed=1;" parent="k85utWicbaK-2CsPMRpZ-1" source="getGa0S9WeNUdmG6-dBY-263" target="getGa0S9WeNUdmG6-dBY-264" edge="1">
          <mxGeometry relative="1" as="geometry">
            <Array as="points">
              <mxPoint x="1230" y="405" />
              <mxPoint x="1230" y="380" />
            </Array>
          </mxGeometry>
        </mxCell>
        <mxCell id="getGa0S9WeNUdmG6-dBY-263" value="One" style="text;html=1;strokeColor=none;fillColor=none;align=center;verticalAlign=middle;whiteSpace=wrap;rounded=0;" parent="k85utWicbaK-2CsPMRpZ-1" vertex="1">
          <mxGeometry x="1270" y="395" width="40" height="20" as="geometry" />
        </mxCell>
        <mxCell id="getGa0S9WeNUdmG6-dBY-264" value="Many" style="text;html=1;strokeColor=none;fillColor=none;align=center;verticalAlign=middle;whiteSpace=wrap;rounded=0;" parent="k85utWicbaK-2CsPMRpZ-1" vertex="1">
          <mxGeometry x="1169" y="365" width="40" height="20" as="geometry" />
        </mxCell>
        <mxCell id="getGa0S9WeNUdmG6-dBY-277" style="edgeStyle=orthogonalEdgeStyle;rounded=0;orthogonalLoop=1;jettySize=auto;html=1;entryX=0;entryY=0.75;entryDx=0;entryDy=0;startArrow=classic;startFill=1;endArrow=classic;endFill=1;dashed=1;" parent="k85utWicbaK-2CsPMRpZ-1" source="getGa0S9WeNUdmG6-dBY-274" target="getGa0S9WeNUdmG6-dBY-275" edge="1">
          <mxGeometry relative="1" as="geometry">
            <Array as="points">
              <mxPoint x="510" y="426" />
              <mxPoint x="510" y="400" />
            </Array>
          </mxGeometry>
        </mxCell>
        <mxCell id="getGa0S9WeNUdmG6-dBY-274" value="One" style="text;html=1;strokeColor=none;fillColor=none;align=center;verticalAlign=middle;whiteSpace=wrap;rounded=0;" parent="k85utWicbaK-2CsPMRpZ-1" vertex="1">
          <mxGeometry x="403" y="415" width="40" height="20" as="geometry" />
        </mxCell>
        <mxCell id="getGa0S9WeNUdmG6-dBY-275" value="One" style="text;html=1;strokeColor=none;fillColor=none;align=center;verticalAlign=middle;whiteSpace=wrap;rounded=0;" parent="k85utWicbaK-2CsPMRpZ-1" vertex="1">
          <mxGeometry x="580" y="385" width="30" height="20" as="geometry" />
        </mxCell>
        <mxCell id="getGa0S9WeNUdmG6-dBY-278" value="One" style="text;html=1;strokeColor=none;fillColor=none;align=center;verticalAlign=middle;whiteSpace=wrap;rounded=0;" parent="k85utWicbaK-2CsPMRpZ-1" vertex="1">
          <mxGeometry x="390" y="267.5" width="40" height="20" as="geometry" />
        </mxCell>
        <mxCell id="getGa0S9WeNUdmG6-dBY-281" style="edgeStyle=orthogonalEdgeStyle;rounded=0;orthogonalLoop=1;jettySize=auto;html=1;entryX=1;entryY=0.5;entryDx=0;entryDy=0;dashed=1;startArrow=none;startFill=0;endArrow=classic;endFill=1;" parent="k85utWicbaK-2CsPMRpZ-1" source="getGa0S9WeNUdmG6-dBY-279" target="getGa0S9WeNUdmG6-dBY-278" edge="1">
          <mxGeometry relative="1" as="geometry">
            <Array as="points">
              <mxPoint x="520" y="278" />
            </Array>
          </mxGeometry>
        </mxCell>
        <mxCell id="getGa0S9WeNUdmG6-dBY-279" value="One" style="text;html=1;strokeColor=none;fillColor=none;align=center;verticalAlign=middle;whiteSpace=wrap;rounded=0;" parent="k85utWicbaK-2CsPMRpZ-1" vertex="1">
          <mxGeometry x="500" y="350" width="40" height="20" as="geometry" />
        </mxCell>
        <mxCell id="getGa0S9WeNUdmG6-dBY-284" style="edgeStyle=orthogonalEdgeStyle;rounded=0;orthogonalLoop=1;jettySize=auto;html=1;entryX=0.5;entryY=0;entryDx=0;entryDy=0;dashed=1;startArrow=none;startFill=0;endArrow=classic;endFill=1;" parent="k85utWicbaK-2CsPMRpZ-1" source="getGa0S9WeNUdmG6-dBY-282" target="getGa0S9WeNUdmG6-dBY-283" edge="1">
          <mxGeometry relative="1" as="geometry" />
        </mxCell>
        <mxCell id="getGa0S9WeNUdmG6-dBY-282" value="One" style="text;html=1;strokeColor=none;fillColor=none;align=center;verticalAlign=middle;whiteSpace=wrap;rounded=0;" parent="k85utWicbaK-2CsPMRpZ-1" vertex="1">
          <mxGeometry x="390" y="290" width="40" height="20" as="geometry" />
        </mxCell>
        <mxCell id="getGa0S9WeNUdmG6-dBY-283" value="Many" style="text;html=1;strokeColor=none;fillColor=none;align=center;verticalAlign=middle;whiteSpace=wrap;rounded=0;" parent="k85utWicbaK-2CsPMRpZ-1" vertex="1">
          <mxGeometry x="460" y="350" width="40" height="20" as="geometry" />
        </mxCell>
        <mxCell id="getGa0S9WeNUdmG6-dBY-288" style="edgeStyle=orthogonalEdgeStyle;rounded=0;orthogonalLoop=1;jettySize=auto;html=1;entryX=0.5;entryY=1;entryDx=0;entryDy=0;startArrow=none;startFill=0;endArrow=classic;endFill=1;" parent="k85utWicbaK-2CsPMRpZ-1" source="getGa0S9WeNUdmG6-dBY-285" target="lwx0LvJE-x4wmH1x_8i0-35" edge="1">
          <mxGeometry relative="1" as="geometry" />
        </mxCell>
        <mxCell id="getGa0S9WeNUdmG6-dBY-293" value="Order" style="edgeLabel;html=1;align=center;verticalAlign=middle;resizable=0;points=[];" parent="getGa0S9WeNUdmG6-dBY-288" vertex="1" connectable="0">
          <mxGeometry x="0.2365" y="-1" relative="1" as="geometry">
            <mxPoint x="1" as="offset" />
          </mxGeometry>
        </mxCell>
        <mxCell id="getGa0S9WeNUdmG6-dBY-290" style="edgeStyle=orthogonalEdgeStyle;rounded=0;orthogonalLoop=1;jettySize=auto;html=1;startArrow=none;startFill=0;endArrow=classic;endFill=1;" parent="k85utWicbaK-2CsPMRpZ-1" source="getGa0S9WeNUdmG6-dBY-285" target="getGa0S9WeNUdmG6-dBY-289" edge="1">
          <mxGeometry relative="1" as="geometry">
            <Array as="points">
              <mxPoint x="326" y="700" />
              <mxPoint x="440" y="700" />
            </Array>
          </mxGeometry>
        </mxCell>
        <mxCell id="getGa0S9WeNUdmG6-dBY-295" value="Manage" style="edgeLabel;html=1;align=center;verticalAlign=middle;resizable=0;points=[];" parent="getGa0S9WeNUdmG6-dBY-290" vertex="1" connectable="0">
          <mxGeometry x="0.0372" y="-1" relative="1" as="geometry">
            <mxPoint x="1" as="offset" />
          </mxGeometry>
        </mxCell>
        <mxCell id="getGa0S9WeNUdmG6-dBY-285" value="Internet cloud" style="ellipse;shape=cloud;whiteSpace=wrap;html=1;" parent="k85utWicbaK-2CsPMRpZ-1" vertex="1">
          <mxGeometry x="248" y="750" width="155" height="70" as="geometry" />
        </mxCell>
        <mxCell id="getGa0S9WeNUdmG6-dBY-296" value="" style="edgeStyle=orthogonalEdgeStyle;rounded=0;orthogonalLoop=1;jettySize=auto;html=1;startArrow=none;startFill=0;endArrow=classic;endFill=1;" parent="k85utWicbaK-2CsPMRpZ-1" source="getGa0S9WeNUdmG6-dBY-289" target="getGa0S9WeNUdmG6-dBY-292" edge="1">
          <mxGeometry relative="1" as="geometry" />
        </mxCell>
        <mxCell id="getGa0S9WeNUdmG6-dBY-289" value="TC Firewall" style="shape=trapezoid;perimeter=trapezoidPerimeter;whiteSpace=wrap;html=1;fixedSize=1;" parent="k85utWicbaK-2CsPMRpZ-1" vertex="1">
          <mxGeometry x="380" y="630" width="120" height="30" as="geometry" />
        </mxCell>
        <mxCell id="getGa0S9WeNUdmG6-dBY-297" style="edgeStyle=orthogonalEdgeStyle;rounded=0;orthogonalLoop=1;jettySize=auto;html=1;entryX=0.25;entryY=1;entryDx=0;entryDy=0;startArrow=none;startFill=0;endArrow=classic;endFill=1;exitX=0.5;exitY=0;exitDx=0;exitDy=0;" parent="k85utWicbaK-2CsPMRpZ-1" source="getGa0S9WeNUdmG6-dBY-292" target="getGa0S9WeNUdmG6-dBY-203" edge="1">
          <mxGeometry relative="1" as="geometry">
            <Array as="points">
              <mxPoint x="440" y="480" />
              <mxPoint x="1116" y="480" />
            </Array>
          </mxGeometry>
        </mxCell>
        <mxCell id="getGa0S9WeNUdmG6-dBY-298" value="&lt;span style=&quot;background-color: rgb(255 , 255 , 0)&quot;&gt;VPN&lt;/span&gt;" style="edgeLabel;html=1;align=center;verticalAlign=middle;resizable=0;points=[];" parent="getGa0S9WeNUdmG6-dBY-297" vertex="1" connectable="0">
          <mxGeometry x="-0.9098" relative="1" as="geometry">
            <mxPoint as="offset" />
          </mxGeometry>
        </mxCell>
        <mxCell id="getGa0S9WeNUdmG6-dBY-292" value="Network component" style="rounded=0;whiteSpace=wrap;html=1;fillColor=#D5E8D4;" parent="k85utWicbaK-2CsPMRpZ-1" vertex="1">
          <mxGeometry x="360" y="530" width="160" height="40" as="geometry" />
        </mxCell>
        <mxCell id="getGa0S9WeNUdmG6-dBY-309" style="edgeStyle=orthogonalEdgeStyle;rounded=0;orthogonalLoop=1;jettySize=auto;html=1;entryX=0;entryY=0.5;entryDx=0;entryDy=0;startArrow=none;startFill=0;endArrow=classic;endFill=1;strokeColor=#000000;dashed=1;" parent="k85utWicbaK-2CsPMRpZ-1" source="getGa0S9WeNUdmG6-dBY-305" target="getGa0S9WeNUdmG6-dBY-306" edge="1">
          <mxGeometry relative="1" as="geometry" />
        </mxCell>
        <mxCell id="getGa0S9WeNUdmG6-dBY-305" value="One" style="text;html=1;strokeColor=none;fillColor=none;align=center;verticalAlign=middle;whiteSpace=wrap;rounded=0;" parent="k85utWicbaK-2CsPMRpZ-1" vertex="1">
          <mxGeometry x="640" y="27.5" width="40" height="15" as="geometry" />
        </mxCell>
        <mxCell id="getGa0S9WeNUdmG6-dBY-306" value="One" style="text;html=1;strokeColor=none;fillColor=none;align=center;verticalAlign=middle;whiteSpace=wrap;rounded=0;" parent="k85utWicbaK-2CsPMRpZ-1" vertex="1">
          <mxGeometry x="800" y="25" width="40" height="20" as="geometry" />
        </mxCell>
        <mxCell id="getGa0S9WeNUdmG6-dBY-310" value="Many" style="text;html=1;strokeColor=none;fillColor=none;align=center;verticalAlign=middle;whiteSpace=wrap;rounded=0;" parent="k85utWicbaK-2CsPMRpZ-1" vertex="1">
          <mxGeometry x="640" y="60" width="40" height="15" as="geometry" />
        </mxCell>
        <mxCell id="getGa0S9WeNUdmG6-dBY-312" style="edgeStyle=orthogonalEdgeStyle;rounded=0;orthogonalLoop=1;jettySize=auto;html=1;dashed=1;startArrow=none;startFill=0;endArrow=classic;endFill=1;strokeColor=#000000;" parent="k85utWicbaK-2CsPMRpZ-1" source="getGa0S9WeNUdmG6-dBY-311" target="getGa0S9WeNUdmG6-dBY-310" edge="1">
          <mxGeometry relative="1" as="geometry" />
        </mxCell>
        <mxCell id="getGa0S9WeNUdmG6-dBY-311" value="One" style="text;html=1;strokeColor=none;fillColor=none;align=center;verticalAlign=middle;whiteSpace=wrap;rounded=0;" parent="k85utWicbaK-2CsPMRpZ-1" vertex="1">
          <mxGeometry x="810" y="60" width="20" height="15" as="geometry" />
        </mxCell>
        <mxCell id="getGa0S9WeNUdmG6-dBY-316" style="edgeStyle=orthogonalEdgeStyle;rounded=0;orthogonalLoop=1;jettySize=auto;html=1;dashed=1;startArrow=none;startFill=0;endArrow=classic;endFill=1;strokeColor=#000000;" parent="k85utWicbaK-2CsPMRpZ-1" source="getGa0S9WeNUdmG6-dBY-313" edge="1">
          <mxGeometry relative="1" as="geometry">
            <mxPoint x="530" y="250" as="targetPoint" />
          </mxGeometry>
        </mxCell>
        <mxCell id="getGa0S9WeNUdmG6-dBY-313" value="One" style="text;html=1;strokeColor=none;fillColor=none;align=center;verticalAlign=middle;whiteSpace=wrap;rounded=0;" parent="k85utWicbaK-2CsPMRpZ-1" vertex="1">
          <mxGeometry x="510" y="81.68" width="40" height="15" as="geometry" />
        </mxCell>
        <mxCell id="getGa0S9WeNUdmG6-dBY-314" value="Many" style="text;html=1;strokeColor=none;fillColor=none;align=center;verticalAlign=middle;whiteSpace=wrap;rounded=0;" parent="k85utWicbaK-2CsPMRpZ-1" vertex="1">
          <mxGeometry x="510" y="257.5" width="40" height="15" as="geometry" />
        </mxCell>
        <mxCell id="getGa0S9WeNUdmG6-dBY-320" style="edgeStyle=orthogonalEdgeStyle;rounded=0;orthogonalLoop=1;jettySize=auto;html=1;dashed=1;startArrow=none;startFill=0;endArrow=classic;endFill=1;strokeColor=#000000;" parent="k85utWicbaK-2CsPMRpZ-1" source="getGa0S9WeNUdmG6-dBY-317" target="getGa0S9WeNUdmG6-dBY-318" edge="1">
          <mxGeometry relative="1" as="geometry" />
        </mxCell>
        <mxCell id="getGa0S9WeNUdmG6-dBY-317" value="One" style="text;html=1;strokeColor=none;fillColor=none;align=center;verticalAlign=middle;whiteSpace=wrap;rounded=0;" parent="k85utWicbaK-2CsPMRpZ-1" vertex="1">
          <mxGeometry x="550" y="257.5" width="40" height="15" as="geometry" />
        </mxCell>
        <mxCell id="getGa0S9WeNUdmG6-dBY-318" value="Many" style="text;html=1;strokeColor=none;fillColor=none;align=center;verticalAlign=middle;whiteSpace=wrap;rounded=0;" parent="k85utWicbaK-2CsPMRpZ-1" vertex="1">
          <mxGeometry x="550" y="81.68" width="40" height="15" as="geometry" />
        </mxCell>
        <mxCell id="getGa0S9WeNUdmG6-dBY-324" value="" style="group" parent="k85utWicbaK-2CsPMRpZ-1" vertex="1" connectable="0">
          <mxGeometry x="900" y="610" width="313" height="320" as="geometry" />
        </mxCell>
        <mxCell id="getGa0S9WeNUdmG6-dBY-325" value="" style="group" parent="getGa0S9WeNUdmG6-dBY-324" vertex="1" connectable="0">
          <mxGeometry x="27.61764705882353" y="9.995555555555558" width="313" height="320" as="geometry" />
        </mxCell>
        <mxCell id="getGa0S9WeNUdmG6-dBY-323" value="&lt;font style=&quot;font-size: 14px&quot;&gt;Slave&lt;br&gt;DB&lt;/font&gt;" style="shape=cylinder3;whiteSpace=wrap;html=1;boundedLbl=1;backgroundOutline=1;size=15;" parent="getGa0S9WeNUdmG6-dBY-325" vertex="1">
          <mxGeometry x="225.5441176470588" y="97.77777777777777" width="82.85294117647058" height="75.55555555555556" as="geometry" />
        </mxCell>
        <mxCell id="getGa0S9WeNUdmG6-dBY-333" value="" style="group;container=1;" parent="getGa0S9WeNUdmG6-dBY-325" vertex="1" connectable="0">
          <mxGeometry x="25.38" y="-10" width="313" height="320" as="geometry" />
        </mxCell>
        <mxCell id="getGa0S9WeNUdmG6-dBY-321" value="" style="rounded=0;whiteSpace=wrap;html=1;labelBackgroundColor=#FFFF00;fillColor=none;" parent="getGa0S9WeNUdmG6-dBY-333" vertex="1">
          <mxGeometry width="313" height="220" as="geometry" />
        </mxCell>
        <mxCell id="getGa0S9WeNUdmG6-dBY-230" value="&lt;font style=&quot;font-size: 14px&quot;&gt;Master DB&lt;/font&gt;" style="shape=cylinder3;whiteSpace=wrap;html=1;boundedLbl=1;backgroundOutline=1;size=15;" parent="getGa0S9WeNUdmG6-dBY-333" vertex="1">
          <mxGeometry x="36.8235294117647" y="97.77777777777777" width="80.09117647058824" height="71.11111111111111" as="geometry" />
        </mxCell>
        <mxCell id="getGa0S9WeNUdmG6-dBY-327" value="Load Balancer" style="rounded=0;whiteSpace=wrap;html=1;labelBackgroundColor=none;fillColor=none;" parent="getGa0S9WeNUdmG6-dBY-333" vertex="1">
          <mxGeometry x="21.633823529411764" y="22.22222222222222" width="110.47058823529412" height="31.11111111111111" as="geometry" />
        </mxCell>
        <mxCell id="getGa0S9WeNUdmG6-dBY-336" style="edgeStyle=orthogonalEdgeStyle;rounded=0;orthogonalLoop=1;jettySize=auto;html=1;entryX=0.72;entryY=0.5;entryDx=0;entryDy=0;entryPerimeter=0;startArrow=none;startFill=0;endArrow=classic;endFill=1;strokeColor=#000000;" parent="getGa0S9WeNUdmG6-dBY-333" source="getGa0S9WeNUdmG6-dBY-328" target="getGa0S9WeNUdmG6-dBY-321" edge="1">
          <mxGeometry relative="1" as="geometry" />
        </mxCell>
        <mxCell id="getGa0S9WeNUdmG6-dBY-328" value="Load Balancer" style="rounded=0;whiteSpace=wrap;html=1;labelBackgroundColor=none;fillColor=none;" parent="getGa0S9WeNUdmG6-dBY-333" vertex="1">
          <mxGeometry x="170" y="22.22" width="110.47" height="27.78" as="geometry" />
        </mxCell>
        <mxCell id="getGa0S9WeNUdmG6-dBY-332" value="" style="endArrow=classic;html=1;rounded=0;strokeColor=#000000;entryX=0;entryY=0;entryDx=0;entryDy=15;entryPerimeter=0;exitX=0.5;exitY=1;exitDx=0;exitDy=0;" parent="getGa0S9WeNUdmG6-dBY-333" source="getGa0S9WeNUdmG6-dBY-327" target="getGa0S9WeNUdmG6-dBY-323" edge="1">
          <mxGeometry width="50" height="50" relative="1" as="geometry">
            <mxPoint x="156.5" y="8.88888888888889" as="sourcePoint" />
            <mxPoint x="202.52941176470588" y="-35.55555555555556" as="targetPoint" />
          </mxGeometry>
        </mxCell>
        <mxCell id="getGa0S9WeNUdmG6-dBY-330" style="edgeStyle=orthogonalEdgeStyle;rounded=0;orthogonalLoop=1;jettySize=auto;html=1;entryX=0.5;entryY=0;entryDx=0;entryDy=0;entryPerimeter=0;startArrow=none;startFill=0;endArrow=classic;endFill=1;strokeColor=#000000;" parent="getGa0S9WeNUdmG6-dBY-333" source="getGa0S9WeNUdmG6-dBY-327" target="getGa0S9WeNUdmG6-dBY-230" edge="1">
          <mxGeometry relative="1" as="geometry" />
        </mxCell>
        <mxCell id="getGa0S9WeNUdmG6-dBY-335" value="" style="endArrow=classic;html=1;rounded=0;strokeColor=#000000;exitX=0.5;exitY=1;exitDx=0;exitDy=0;entryX=0.973;entryY=0.138;entryDx=0;entryDy=0;entryPerimeter=0;" parent="getGa0S9WeNUdmG6-dBY-333" source="getGa0S9WeNUdmG6-dBY-328" target="getGa0S9WeNUdmG6-dBY-230" edge="1">
          <mxGeometry width="50" height="50" relative="1" as="geometry">
            <mxPoint x="197.00235294117647" y="120.0044444444444" as="sourcePoint" />
            <mxPoint x="247.00235294117647" y="70.0044444444444" as="targetPoint" />
          </mxGeometry>
        </mxCell>
        <mxCell id="getGa0S9WeNUdmG6-dBY-348" value="" style="group" parent="getGa0S9WeNUdmG6-dBY-333" vertex="1" connectable="0">
          <mxGeometry x="21.633823529411757" y="22.220000000000027" width="258.83617647058827" height="146.6688888888888" as="geometry" />
        </mxCell>
        <mxCell id="getGa0S9WeNUdmG6-dBY-340" value="Load Balancer" style="rounded=0;whiteSpace=wrap;html=1;labelBackgroundColor=none;fillColor=none;" parent="getGa0S9WeNUdmG6-dBY-348" vertex="1">
          <mxGeometry y="0.00222222222214441" width="110.47058823529412" height="31.11111111111111" as="geometry" />
        </mxCell>
        <mxCell id="getGa0S9WeNUdmG6-dBY-341" value="&lt;font style=&quot;font-size: 14px&quot;&gt;Master DB&lt;/font&gt;" style="shape=cylinder3;whiteSpace=wrap;html=1;boundedLbl=1;backgroundOutline=1;size=15;" parent="getGa0S9WeNUdmG6-dBY-348" vertex="1">
          <mxGeometry x="15.189705882352996" y="75.55777777777769" width="80.09117647058824" height="71.11111111111111" as="geometry" />
        </mxCell>
        <mxCell id="getGa0S9WeNUdmG6-dBY-342" style="edgeStyle=orthogonalEdgeStyle;rounded=0;orthogonalLoop=1;jettySize=auto;html=1;entryX=0.5;entryY=0;entryDx=0;entryDy=0;entryPerimeter=0;startArrow=none;startFill=0;endArrow=classic;endFill=1;strokeColor=#000000;" parent="getGa0S9WeNUdmG6-dBY-348" source="getGa0S9WeNUdmG6-dBY-340" target="getGa0S9WeNUdmG6-dBY-341" edge="1">
          <mxGeometry relative="1" as="geometry" />
        </mxCell>
        <mxCell id="getGa0S9WeNUdmG6-dBY-343" value="" style="endArrow=classic;html=1;rounded=0;strokeColor=#000000;entryX=0;entryY=0;entryDx=0;entryDy=15;entryPerimeter=0;exitX=0.5;exitY=1;exitDx=0;exitDy=0;" parent="getGa0S9WeNUdmG6-dBY-348" source="getGa0S9WeNUdmG6-dBY-340" edge="1">
          <mxGeometry width="50" height="50" relative="1" as="geometry">
            <mxPoint x="-818.1314705882353" y="-623.3266666666667" as="sourcePoint" />
            <mxPoint x="178.53029411764714" y="100.55777777777791" as="targetPoint" />
          </mxGeometry>
        </mxCell>
        <mxCell id="getGa0S9WeNUdmG6-dBY-345" style="edgeStyle=orthogonalEdgeStyle;rounded=0;orthogonalLoop=1;jettySize=auto;html=1;entryX=0.72;entryY=0.5;entryDx=0;entryDy=0;entryPerimeter=0;startArrow=none;startFill=0;endArrow=classic;endFill=1;strokeColor=#000000;" parent="getGa0S9WeNUdmG6-dBY-348" source="getGa0S9WeNUdmG6-dBY-347" edge="1">
          <mxGeometry relative="1" as="geometry">
            <mxPoint x="203.72617647058837" y="87.78000000000009" as="targetPoint" />
          </mxGeometry>
        </mxCell>
        <mxCell id="getGa0S9WeNUdmG6-dBY-347" value="Load Balancer" style="rounded=0;whiteSpace=wrap;html=1;labelBackgroundColor=none;fillColor=none;" parent="getGa0S9WeNUdmG6-dBY-348" vertex="1">
          <mxGeometry x="148.36617647058824" width="110.47" height="27.78" as="geometry" />
        </mxCell>
        <mxCell id="getGa0S9WeNUdmG6-dBY-351" value="&lt;font style=&quot;font-size: 14px&quot;&gt;Middleware/App&lt;/font&gt;" style="shape=process;whiteSpace=wrap;html=1;backgroundOutline=1;" parent="k85utWicbaK-2CsPMRpZ-1" vertex="1">
          <mxGeometry x="1522" y="730" width="140" height="60" as="geometry" />
        </mxCell>
        <mxCell id="getGa0S9WeNUdmG6-dBY-354" value="" style="edgeStyle=orthogonalEdgeStyle;rounded=0;orthogonalLoop=1;jettySize=auto;html=1;startArrow=none;startFill=0;endArrow=classic;endFill=1;strokeColor=#000000;" parent="k85utWicbaK-2CsPMRpZ-1" source="getGa0S9WeNUdmG6-dBY-352" target="getGa0S9WeNUdmG6-dBY-231" edge="1">
          <mxGeometry relative="1" as="geometry" />
        </mxCell>
        <mxCell id="getGa0S9WeNUdmG6-dBY-352" value="Load Balancer" style="rounded=0;whiteSpace=wrap;html=1;labelBackgroundColor=none;fillColor=none;" parent="k85utWicbaK-2CsPMRpZ-1" vertex="1">
          <mxGeometry x="1357.0014705882354" y="629.9977777777777" width="110.47058823529412" height="31.11111111111111" as="geometry" />
        </mxCell>
        <mxCell id="getGa0S9WeNUdmG6-dBY-357" style="edgeStyle=orthogonalEdgeStyle;rounded=0;orthogonalLoop=1;jettySize=auto;html=1;startArrow=none;startFill=0;endArrow=classic;endFill=1;strokeColor=#000000;" parent="k85utWicbaK-2CsPMRpZ-1" source="getGa0S9WeNUdmG6-dBY-353" edge="1">
          <mxGeometry relative="1" as="geometry">
            <mxPoint x="1591.996764705882" y="730" as="targetPoint" />
          </mxGeometry>
        </mxCell>
        <mxCell id="getGa0S9WeNUdmG6-dBY-353" value="Load Balancer" style="rounded=0;whiteSpace=wrap;html=1;labelBackgroundColor=none;fillColor=none;" parent="k85utWicbaK-2CsPMRpZ-1" vertex="1">
          <mxGeometry x="1536.7614705882354" y="628.8877777777777" width="110.47058823529412" height="31.11111111111111" as="geometry" />
        </mxCell>
        <mxCell id="getGa0S9WeNUdmG6-dBY-356" value="" style="endArrow=classic;html=1;rounded=0;strokeColor=#000000;exitX=0.5;exitY=1;exitDx=0;exitDy=0;entryX=0.557;entryY=0;entryDx=0;entryDy=0;entryPerimeter=0;" parent="k85utWicbaK-2CsPMRpZ-1" source="getGa0S9WeNUdmG6-dBY-352" target="getGa0S9WeNUdmG6-dBY-351" edge="1">
          <mxGeometry width="50" height="50" relative="1" as="geometry">
            <mxPoint x="1570" y="680" as="sourcePoint" />
            <mxPoint x="1620" y="630" as="targetPoint" />
          </mxGeometry>
        </mxCell>
        <mxCell id="getGa0S9WeNUdmG6-dBY-358" value="" style="endArrow=classic;html=1;rounded=0;strokeColor=#000000;entryX=0.5;entryY=0;entryDx=0;entryDy=0;exitX=0.5;exitY=1;exitDx=0;exitDy=0;" parent="k85utWicbaK-2CsPMRpZ-1" source="getGa0S9WeNUdmG6-dBY-353" target="getGa0S9WeNUdmG6-dBY-231" edge="1">
          <mxGeometry width="50" height="50" relative="1" as="geometry">
            <mxPoint x="1580" y="680" as="sourcePoint" />
            <mxPoint x="1630" y="630" as="targetPoint" />
          </mxGeometry>
        </mxCell>
        <mxCell id="dww9duzTpYLMChEa1gvT-0" value="One" style="text;html=1;strokeColor=none;fillColor=none;align=center;verticalAlign=middle;whiteSpace=wrap;rounded=0;fontSize=15;" vertex="1" parent="k85utWicbaK-2CsPMRpZ-1">
          <mxGeometry x="-142.5" y="375" width="60" height="15" as="geometry" />
        </mxCell>
        <mxCell id="dww9duzTpYLMChEa1gvT-2" style="edgeStyle=orthogonalEdgeStyle;rounded=0;orthogonalLoop=1;jettySize=auto;html=1;entryX=0.5;entryY=0;entryDx=0;entryDy=0;startArrow=classic;startFill=1;dashed=1;" edge="1" parent="k85utWicbaK-2CsPMRpZ-1" source="dww9duzTpYLMChEa1gvT-1" target="dww9duzTpYLMChEa1gvT-0">
          <mxGeometry relative="1" as="geometry" />
        </mxCell>
        <mxCell id="dww9duzTpYLMChEa1gvT-1" value="One" style="text;html=1;strokeColor=none;fillColor=none;align=center;verticalAlign=middle;whiteSpace=wrap;rounded=0;fontSize=15;" vertex="1" parent="k85utWicbaK-2CsPMRpZ-1">
          <mxGeometry x="80" y="220" width="60" height="15" as="geometry" />
        </mxCell>
        <mxCell id="dww9duzTpYLMChEa1gvT-3" value="One" style="text;html=1;strokeColor=none;fillColor=none;align=center;verticalAlign=middle;whiteSpace=wrap;rounded=0;fontSize=15;" vertex="1" parent="k85utWicbaK-2CsPMRpZ-1">
          <mxGeometry x="-150" y="457.5" width="60" height="15" as="geometry" />
        </mxCell>
        <mxCell id="dww9duzTpYLMChEa1gvT-8" style="edgeStyle=orthogonalEdgeStyle;rounded=0;orthogonalLoop=1;jettySize=auto;html=1;dashed=1;startArrow=none;startFill=0;" edge="1" parent="k85utWicbaK-2CsPMRpZ-1" source="dww9duzTpYLMChEa1gvT-4">
          <mxGeometry relative="1" as="geometry">
            <mxPoint x="-120" y="480" as="targetPoint" />
          </mxGeometry>
        </mxCell>
        <mxCell id="dww9duzTpYLMChEa1gvT-4" value="One" style="text;html=1;strokeColor=none;fillColor=none;align=center;verticalAlign=middle;whiteSpace=wrap;rounded=0;fontSize=15;" vertex="1" parent="k85utWicbaK-2CsPMRpZ-1">
          <mxGeometry x="-150" y="505" width="60" height="15" as="geometry" />
        </mxCell>
        <mxCell id="dww9duzTpYLMChEa1gvT-7" style="edgeStyle=orthogonalEdgeStyle;rounded=0;orthogonalLoop=1;jettySize=auto;html=1;entryX=0.5;entryY=0;entryDx=0;entryDy=0;dashed=1;startArrow=none;startFill=0;" edge="1" parent="k85utWicbaK-2CsPMRpZ-1" source="dww9duzTpYLMChEa1gvT-5" target="dww9duzTpYLMChEa1gvT-6">
          <mxGeometry relative="1" as="geometry" />
        </mxCell>
        <mxCell id="dww9duzTpYLMChEa1gvT-5" value="One" style="text;html=1;strokeColor=none;fillColor=none;align=center;verticalAlign=middle;whiteSpace=wrap;rounded=0;fontSize=15;" vertex="1" parent="k85utWicbaK-2CsPMRpZ-1">
          <mxGeometry x="-200" y="457.5" width="60" height="15" as="geometry" />
        </mxCell>
        <mxCell id="dww9duzTpYLMChEa1gvT-6" value="Many" style="text;html=1;strokeColor=none;fillColor=none;align=center;verticalAlign=middle;whiteSpace=wrap;rounded=0;fontSize=15;" vertex="1" parent="k85utWicbaK-2CsPMRpZ-1">
          <mxGeometry x="-200" y="505" width="60" height="15" as="geometry" />
        </mxCell>
        <mxCell id="dww9duzTpYLMChEa1gvT-11" style="edgeStyle=orthogonalEdgeStyle;rounded=0;orthogonalLoop=1;jettySize=auto;html=1;entryX=1;entryY=0.75;entryDx=0;entryDy=0;dashed=1;startArrow=classic;startFill=1;" edge="1" parent="k85utWicbaK-2CsPMRpZ-1" source="dww9duzTpYLMChEa1gvT-9" target="dww9duzTpYLMChEa1gvT-10">
          <mxGeometry relative="1" as="geometry" />
        </mxCell>
        <mxCell id="dww9duzTpYLMChEa1gvT-9" value="One" style="text;html=1;strokeColor=none;fillColor=none;align=center;verticalAlign=middle;whiteSpace=wrap;rounded=0;fontSize=15;" vertex="1" parent="k85utWicbaK-2CsPMRpZ-1">
          <mxGeometry x="-200" y="585" width="60" height="15" as="geometry" />
        </mxCell>
        <mxCell id="dww9duzTpYLMChEa1gvT-10" value="One" style="text;html=1;strokeColor=none;fillColor=none;align=center;verticalAlign=middle;whiteSpace=wrap;rounded=0;fontSize=15;" vertex="1" parent="k85utWicbaK-2CsPMRpZ-1">
          <mxGeometry x="-240" y="697.5" width="60" height="15" as="geometry" />
        </mxCell>
        <mxCell id="dww9duzTpYLMChEa1gvT-15" style="edgeStyle=orthogonalEdgeStyle;rounded=0;orthogonalLoop=1;jettySize=auto;html=1;dashed=1;startArrow=none;startFill=0;endArrow=classic;endFill=1;" edge="1" parent="k85utWicbaK-2CsPMRpZ-1" source="dww9duzTpYLMChEa1gvT-12">
          <mxGeometry relative="1" as="geometry">
            <mxPoint x="-420" y="610" as="targetPoint" />
          </mxGeometry>
        </mxCell>
        <mxCell id="dww9duzTpYLMChEa1gvT-12" value="One" style="text;html=1;strokeColor=none;fillColor=none;align=center;verticalAlign=middle;whiteSpace=wrap;rounded=0;fontSize=15;" vertex="1" parent="k85utWicbaK-2CsPMRpZ-1">
          <mxGeometry x="-400" y="730" width="60" height="15" as="geometry" />
        </mxCell>
        <mxCell id="dww9duzTpYLMChEa1gvT-13" value="Many" style="text;html=1;strokeColor=none;fillColor=none;align=center;verticalAlign=middle;whiteSpace=wrap;rounded=0;fontSize=15;" vertex="1" parent="k85utWicbaK-2CsPMRpZ-1">
          <mxGeometry x="-400" y="690" width="60" height="15" as="geometry" />
        </mxCell>
        <mxCell id="dww9duzTpYLMChEa1gvT-14" value="Many" style="text;html=1;strokeColor=none;fillColor=none;align=center;verticalAlign=middle;whiteSpace=wrap;rounded=0;fontSize=15;" vertex="1" parent="k85utWicbaK-2CsPMRpZ-1">
          <mxGeometry x="-450" y="590" width="60" height="15" as="geometry" />
        </mxCell>
        <mxCell id="dww9duzTpYLMChEa1gvT-18" style="edgeStyle=orthogonalEdgeStyle;rounded=0;orthogonalLoop=1;jettySize=auto;html=1;entryX=0.5;entryY=0;entryDx=0;entryDy=0;dashed=1;startArrow=none;startFill=0;endArrow=classic;endFill=1;" edge="1" parent="k85utWicbaK-2CsPMRpZ-1" source="dww9duzTpYLMChEa1gvT-16" target="dww9duzTpYLMChEa1gvT-13">
          <mxGeometry relative="1" as="geometry" />
        </mxCell>
        <mxCell id="dww9duzTpYLMChEa1gvT-16" value="Many" style="text;html=1;strokeColor=none;fillColor=none;align=center;verticalAlign=middle;whiteSpace=wrap;rounded=0;fontSize=15;" vertex="1" parent="k85utWicbaK-2CsPMRpZ-1">
          <mxGeometry x="-400" y="595" width="60" height="15" as="geometry" />
        </mxCell>
        <mxCell id="dww9duzTpYLMChEa1gvT-19" value="One" style="text;html=1;strokeColor=none;fillColor=none;align=center;verticalAlign=middle;whiteSpace=wrap;rounded=0;fontSize=15;" vertex="1" parent="k85utWicbaK-2CsPMRpZ-1">
          <mxGeometry x="-450" y="505" width="60" height="15" as="geometry" />
        </mxCell>
        <mxCell id="dww9duzTpYLMChEa1gvT-21" style="edgeStyle=orthogonalEdgeStyle;rounded=0;orthogonalLoop=1;jettySize=auto;html=1;entryX=0.5;entryY=-0.333;entryDx=0;entryDy=0;entryPerimeter=0;dashed=1;startArrow=classic;startFill=1;endArrow=classic;endFill=1;" edge="1" parent="k85utWicbaK-2CsPMRpZ-1" source="dww9duzTpYLMChEa1gvT-20" target="dww9duzTpYLMChEa1gvT-19">
          <mxGeometry relative="1" as="geometry" />
        </mxCell>
        <mxCell id="dww9duzTpYLMChEa1gvT-20" value="One" style="text;html=1;strokeColor=none;fillColor=none;align=center;verticalAlign=middle;whiteSpace=wrap;rounded=0;fontSize=15;" vertex="1" parent="k85utWicbaK-2CsPMRpZ-1">
          <mxGeometry x="-450" y="400" width="60" height="15" as="geometry" />
        </mxCell>
        <mxCell id="dww9duzTpYLMChEa1gvT-23" value="One" style="text;html=1;strokeColor=none;fillColor=none;align=center;verticalAlign=middle;whiteSpace=wrap;rounded=0;fontSize=15;" vertex="1" parent="k85utWicbaK-2CsPMRpZ-1">
          <mxGeometry x="-250" y="555" width="60" height="15" as="geometry" />
        </mxCell>
        <mxCell id="dww9duzTpYLMChEa1gvT-25" style="edgeStyle=orthogonalEdgeStyle;rounded=0;orthogonalLoop=1;jettySize=auto;html=1;entryX=0;entryY=0.5;entryDx=0;entryDy=0;dashed=1;startArrow=classic;startFill=1;endArrow=classic;endFill=1;" edge="1" parent="k85utWicbaK-2CsPMRpZ-1" source="dww9duzTpYLMChEa1gvT-24" target="dww9duzTpYLMChEa1gvT-23">
          <mxGeometry relative="1" as="geometry">
            <Array as="points">
              <mxPoint x="-320" y="563" />
            </Array>
          </mxGeometry>
        </mxCell>
        <mxCell id="dww9duzTpYLMChEa1gvT-24" value="One" style="text;html=1;strokeColor=none;fillColor=none;align=center;verticalAlign=middle;whiteSpace=wrap;rounded=0;fontSize=15;" vertex="1" parent="k85utWicbaK-2CsPMRpZ-1">
          <mxGeometry x="-350" y="380" width="60" height="15" as="geometry" />
        </mxCell>
      </root>
    </mxGraphModel>
  </diagram>
</mxfile>
